<svg width="38" height="27" viewBox="0 0 38 27" fill="none" xmlns="http://www.w3.org/2000/svg">
    <path d="M35.8328 4.91333C35.6407 4.14588 35.2495 3.44271 34.6986 2.87485C34.1478 2.30699 33.4569 1.89454 32.6956 1.67917C29.9143 1 18.7888 1 18.7888 1C18.7888 1 7.66328 1 4.88191 1.74386C4.12066 1.95922 3.42974 2.37167 2.87891 2.93953C2.32809 3.50739 1.93687 4.21056 1.74478 4.97801C1.23575 7.8007 0.986752 10.6641 1.00092 13.5323C0.98278 16.4221 1.23179 19.3074 1.74478 22.1514C1.95655 22.895 2.35653 23.5714 2.90607 24.1153C3.45562 24.6591 4.13615 25.0521 4.88191 25.2561C7.66328 26 18.7888 26 18.7888 26C18.7888 26 29.9143 26 32.6956 25.2561C33.4569 25.0408 34.1478 24.6283 34.6986 24.0605C35.2495 23.4926 35.6407 22.7894 35.8328 22.022C36.3379 19.2206 36.5868 16.3789 36.5766 13.5323C36.5948 10.6426 36.3457 7.75727 35.8328 4.91333V4.91333Z" stroke="#333333" stroke-linecap="round" stroke-linejoin="round"/>
    <path d="M15.1504 18.8203L24.4486 13.5325L15.1504 8.24463V18.8203Z" stroke="#333333" stroke-linecap="round" stroke-linejoin="round"/>
    </svg>
    