<svg width="1440" height="676" viewBox="0 0 1440 676" fill="none" xmlns="http://www.w3.org/2000/svg">
<g filter="url(#filter0_d_681_4045)">
<path d="M0.000488281 -8H1440V519H0.000488281V-8Z" fill="#FFDD44"/>
</g>
<path d="M0.000488281 566.517C2.54624 565.306 14.0674 560.165 25.7757 565.105C39.193 570.776 43.204 585.635 44.1362 589.1C47.5964 601.959 41.7917 605.816 45.5485 620.153C46.9609 625.583 49.2171 634.151 56.8473 639.913C66.0275 646.84 80.8324 648.089 87.9188 641.325C90.5881 638.777 91.5803 634.92 93.5682 627.21C95.2502 620.75 96.1978 614.121 96.3929 607.449C96.7036 592.481 92.9114 591.69 93.5682 579.22C93.9213 572.695 94.4862 564.046 100.63 556.636C102.748 554.103 107.278 548.637 114.753 548.167C122.747 547.666 128.439 553.358 128.877 553.813C135.232 560.394 131.119 566.555 137.351 576.397C139.056 579.089 143.396 585.924 151.474 587.689C157.738 589.044 165.534 587.174 169.835 582.043C175.247 575.589 170.343 569.692 175.484 560.871C178.902 555.016 186.19 548.873 193.844 549.579C204.49 550.574 209.917 564.304 210.793 566.517C214.03 574.703 212.184 579.117 210.793 598.981C209.733 614.154 209.108 623.78 210.793 635.679C212.678 649.017 213.836 657.204 220.679 663.909C228.094 671.164 241.253 675.832 251.751 670.966C262.897 665.8 265.825 652.299 267.286 645.559C270.506 630.696 264.942 626.286 265.874 603.215C266.397 590.311 266.757 583.677 271.523 577.808C277.879 569.982 289.884 564.752 301.183 567.928C303.834 568.676 310.998 571.178 315.306 577.808C319.765 584.672 317.107 589.725 320.955 597.569C322.509 600.745 326.033 607.622 333.666 610.272C339.492 612.294 347.02 611.592 352.027 607.449C357.365 603.031 355.628 598.194 360.501 584.866C362.503 579.389 365.508 571.376 371.8 563.694C376.39 558.108 383.049 549.963 394.397 548.167C396.007 547.913 408.722 546.085 416.995 553.813C424.198 560.542 420.822 567.783 428.293 573.574C433.148 577.335 441.199 579.414 446.654 576.397C453.274 572.738 450.961 564.399 457.953 556.636C464.156 549.741 472.609 548.485 474.901 548.167C475.995 548.016 485.652 546.823 494.673 552.402C506.188 559.519 509.069 572.956 511.622 584.866C515.456 602.739 513.694 619.8 513.034 625.799C511.622 638.759 509.408 642.796 511.622 651.205C512.497 654.526 515.611 666.379 527.157 672.377C534.572 676.259 545.408 677.649 553.992 672.377C562.755 666.993 565.005 657.204 566.703 649.794C567.917 644.501 567.921 640.972 566.703 615.918C565.845 598.275 565.598 594.968 568.115 590.512C573.955 580.173 586.536 578.02 587.888 577.808C598.025 576.227 608.96 580.109 614.723 587.689C620.845 595.738 616.04 601.257 621.784 610.272C627.861 619.8 641.945 627.295 652.856 622.976C663.448 618.78 666.552 605.219 666.979 603.215C669.804 589.972 661.732 584.979 665.567 574.985C670.125 563.101 685.537 559.71 686.752 559.459C692.603 558.256 699.159 560.729 712.174 565.105C722.682 568.634 722.092 569.438 727.71 570.751C743.359 574.41 747.716 568.136 754.544 572.162C762.051 576.587 763.788 588.292 767.255 611.684C768.64 621.007 768.467 624.228 771.493 628.622C776.736 636.233 786.986 640.683 796.915 639.913C798.758 639.772 810.614 638.855 816.688 630.033C822.69 621.328 816.928 613.801 816.688 587.689C816.497 566.848 820.063 560.973 822.337 558.048C822.768 557.494 831.588 546.463 842.11 548.167C852.752 549.889 858.867 563.619 860.47 572.162C861.794 579.22 859.69 580.857 861.882 586.277C864.757 593.388 872.747 601.373 881.655 600.392C891.951 599.259 896.958 586.877 897.191 586.277C901.735 574.569 893.815 567.261 898.603 559.459C902.664 552.843 913.74 549.328 921.201 552.402C936.843 558.845 935.607 593.846 935.324 601.803C935.028 610.251 933.983 610.692 933.912 620.153C933.81 634.162 933.728 645.228 939.561 655.44C945.32 665.518 959.009 678.553 972.045 675.2C985.021 671.862 989.668 654.261 990.406 651.205C992.937 640.746 989.307 637.179 987.581 618.741C985.745 599.125 984.647 587.417 991.818 577.808C998.88 568.334 1011.87 563.761 1022.89 565.105C1026.62 565.56 1034.19 566.485 1038.43 572.162C1043.4 578.867 1038.28 584.845 1042.66 594.746C1043.11 595.766 1048.06 606.539 1058.2 608.861C1067.48 610.978 1077.02 605.096 1082.21 598.981C1092 587.435 1084.22 577.491 1093.51 563.694C1094.11 562.794 1104.69 547.567 1120.34 548.167C1132.6 548.637 1140.79 558.542 1141.53 559.459C1149.13 568.934 1145.75 577.223 1152.82 583.454C1158.25 588.225 1167.21 590.893 1172.6 587.689C1175.96 585.688 1175.73 582.706 1181.07 567.928C1184.25 559.131 1185.88 554.688 1188.13 552.402C1193.98 546.463 1204.09 544.529 1212.14 546.756C1224.41 550.147 1229.8 562.593 1233.33 570.751C1242.16 591.179 1238.6 612.083 1237.57 617.33C1234.87 631.092 1230.32 635.824 1231.92 646.971C1232.56 651.47 1233.88 660.93 1241.8 668.143C1242.6 668.87 1253.95 678.849 1268.64 675.2C1282.1 671.859 1287.76 659.713 1288.41 658.263C1292.41 649.31 1288.69 645.058 1288.41 624.387C1288.18 607.188 1288.18 598.458 1294.06 591.923C1301.78 583.352 1314.57 583.433 1318.07 583.454C1322.49 583.482 1332.9 583.55 1339.25 590.512C1344.59 596.341 1341.58 600.967 1347.73 608.861C1349.04 610.548 1353.68 616.342 1361.85 618.741C1363.44 619.207 1375.27 622.503 1383.04 615.918C1389.47 610.463 1389.79 601.045 1390.1 591.923C1390.49 580.448 1387.57 577.939 1390.1 572.162C1393.53 564.308 1402.35 561.146 1407.05 559.459C1421.95 554.11 1440.83 566.686 1441.26 560.871C1445.18 507.234 1441.26 503 1441.26 503H0.000488281V566.517Z" fill="#FFDD44"/>
<path d="M55.6659 625.342C56.8143 624.39 58.3182 625.978 61.6069 626.253C65.4324 626.57 70.705 625.035 72.5786 622.167C73.0122 621.41 73.6436 620.783 74.4061 620.353C75.2131 619.926 76.621 619.531 77.3783 620.127C78.5338 621.037 77.5952 623.8 77.3783 624.436C75.8282 628.988 71.4054 631.158 70.7476 631.468C66.8048 633.335 63.2175 632.7 61.3794 632.375C59.1431 631.98 56.5086 631.518 55.4348 629.429C54.7629 628.12 54.674 626.151 55.6659 625.342Z" fill="white"/>
<path d="M221.138 622.622C220.324 624.107 220.583 625.596 221.138 628.518C221.582 630.84 221.902 632.53 222.969 634.644C224.096 636.885 225.23 639.136 227.769 640.315C229.859 641.288 232.661 641.828 233.482 640.77C234.04 640.064 233.937 638.275 233.937 638.275C233.937 638.275 231.185 637.594 229.596 636.458C226.695 634.39 226.439 629.926 226.396 629.199C226.265 626.927 226.915 626.2 226.396 623.754C226.13 622.505 225.746 620.692 224.569 620.353C223.392 620.014 221.842 621.344 221.138 622.622Z" fill="white"/>
<path d="M324.217 592.907C323.371 595.232 326.255 598.08 328.562 599.258C330.869 600.437 333.877 600.567 336.103 599.258C336.615 598.955 338.641 597.766 338.389 596.308C338.197 595.197 336.75 594.301 335.648 594.495C334.546 594.689 334.453 595.952 333.589 596.083C331.783 596.354 330.77 591.04 327.876 590.638C326.372 590.426 324.697 591.591 324.217 592.907Z" fill="white"/>
<path d="M519.237 644.549C519.22 644.224 519.141 642.036 520.304 641.451C521.147 641.031 522.224 641.627 523.049 642.132C528.161 645.255 528.78 648.13 532.421 649.616C534.731 650.565 536.904 650.403 538.361 650.297C540.779 650.171 543.131 649.47 545.22 648.254C546.574 647.435 547.054 646.804 548.647 646.214C549.148 646.027 551.929 644.997 552.533 645.759C553.56 647.061 548.931 654.443 541.561 657.781C539.588 658.674 533.363 661.497 528.076 658.688C524.521 656.793 522.661 653.018 521.221 650.071C520.365 648.305 519.7 646.454 519.237 644.549Z" fill="white"/>
<path d="M634.37 607.198C633.946 608.553 636.193 610.201 636.428 610.374C638.75 612.078 641.509 611.856 643.055 611.733C644.964 611.581 646.966 611.422 648.082 609.919C648.911 608.818 649.206 607.096 648.541 606.517C648.022 606.066 647.03 606.401 645.341 606.969C643.254 607.675 643.428 608.003 642.596 608.105C640.204 608.398 639.187 605.607 636.656 605.836C635.738 605.917 634.622 606.39 634.37 607.198Z" fill="white"/>
<path d="M785.218 624.891C787.437 623.575 789.513 626.401 794.131 625.798C795.315 625.642 797.217 625.395 798.245 623.984C798.995 622.95 798.664 622.131 799.617 621.034C800.282 620.265 801.633 619.298 802.817 619.672C804.122 620.088 804.595 621.944 804.644 623.077C804.758 626.2 801.697 628.497 800.758 629.199C796.474 632.41 791.447 631.669 790.018 631.468C788.468 631.242 784.145 630.611 783.618 628.292C783.352 627.139 784.038 625.589 785.218 624.891Z" fill="white"/>
<path d="M948.635 623.077C947.903 626.373 949.179 629.143 951.376 633.737C952.823 636.761 953.769 637.904 955.035 638.727C956.101 639.432 958.235 640.445 959.148 639.633C959.81 639.037 959.607 637.622 959.148 636.687C958.384 635.124 957.132 635.336 955.721 633.963C953.549 631.846 953.463 628.37 953.435 627.16C953.381 624.898 954.007 624.28 953.435 622.622C952.958 621.246 951.792 619.545 950.69 619.672C949.357 619.831 948.738 622.622 948.635 623.077Z" fill="white"/>
<path d="M1051.94 591.545C1053.74 591.742 1053.81 593.747 1056.28 595.172C1056.92 595.525 1058.77 596.584 1060.63 596.083C1062.3 595.62 1062.86 594.212 1063.83 594.495C1064.54 594.699 1065.04 595.709 1064.97 596.534C1064.79 598.553 1061.21 599.558 1060.63 599.71C1056.49 600.797 1053.05 598.486 1052.86 598.348C1050.9 596.986 1048.62 594.251 1049.43 592.678C1049.83 591.894 1050.97 591.435 1051.94 591.545Z" fill="white"/>
<path d="M1247.82 643.038C1248.45 642.708 1249.16 642.551 1249.87 642.583C1252.71 642.763 1253.07 646.274 1256.04 647.573C1258.83 648.794 1262.34 647.389 1265.87 645.985C1267.73 645.237 1269.64 644.631 1271.59 644.171C1273.45 643.734 1274.43 643.645 1275.24 644.171C1276.46 644.969 1276.57 646.74 1276.61 647.347C1276.84 650.982 1274.1 655.167 1270.21 657.1C1267.49 658.459 1265.03 658.303 1260.39 658.011C1257.8 657.845 1255.52 657.679 1252.84 656.423C1251.47 655.773 1249.01 654.574 1247.36 651.885C1246.76 650.911 1245.87 649.415 1245.99 647.347C1246.1 645.749 1246.74 644.234 1247.82 643.038Z" fill="white"/>
<path d="M1363.24 607.424C1362.77 609.022 1364.52 610.55 1364.84 610.826C1366.65 612.417 1369.02 612.332 1370.32 612.188C1371.47 612.061 1372.77 612.015 1373.75 611.051C1374.46 610.37 1375.11 609.125 1374.66 608.557C1374.35 608.165 1373.62 608.557 1371.92 608.786C1369.95 609.054 1368.48 609.255 1367.35 608.557C1365.89 607.66 1366.09 605.952 1365.06 605.836C1364.31 605.748 1363.48 606.591 1363.24 607.424Z" fill="white"/>
<defs>
<filter id="filter0_d_681_4045" x="-3.99951" y="-8" width="1448" height="535" filterUnits="userSpaceOnUse" color-interpolation-filters="sRGB">
<feFlood flood-opacity="0" result="BackgroundImageFix"/>
<feColorMatrix in="SourceAlpha" type="matrix" values="0 0 0 0 0 0 0 0 0 0 0 0 0 0 0 0 0 0 127 0" result="hardAlpha"/>
<feOffset dy="4"/>
<feGaussianBlur stdDeviation="2"/>
<feComposite in2="hardAlpha" operator="out"/>
<feColorMatrix type="matrix" values="0 0 0 0 0 0 0 0 0 0 0 0 0 0 0 0 0 0 0.25 0"/>
<feBlend mode="normal" in2="BackgroundImageFix" result="effect1_dropShadow_681_4045"/>
<feBlend mode="normal" in="SourceGraphic" in2="effect1_dropShadow_681_4045" result="shape"/>
</filter>
</defs>
</svg>
