<svg width="1440" height="684" viewBox="0 0 1440 684" fill="none" xmlns="http://www.w3.org/2000/svg">
<g filter="url(#filter0_d_124_404)">
<path fill-rule="evenodd" clip-rule="evenodd" d="M1440 0H0V503H-3V566.517C-0.445432 565.306 11.1157 560.165 22.8646 565.105C36.3283 570.776 40.3533 585.635 41.2886 589.1C42.9853 595.384 42.4621 599.517 41.9232 603.775C41.3592 608.231 40.7782 612.821 42.7059 620.153C44.1231 625.583 46.3871 634.151 54.0438 639.913C63.2558 646.84 78.112 648.089 85.223 641.325C87.8986 638.78 88.895 634.929 90.8853 627.236L90.8919 627.21C92.5798 620.75 93.5306 614.121 93.7264 607.449C93.8847 599.849 92.9816 595.904 92.1404 592.229C91.3249 588.667 90.5675 585.358 90.8919 579.22C91.2462 572.695 91.8131 564.046 97.9781 556.636L98.014 556.593C100.155 554.042 104.692 548.634 112.15 548.167C120.172 547.666 125.883 553.358 126.323 553.813C129.609 557.204 130.106 560.484 130.671 564.212C131.203 567.72 131.795 571.626 134.826 576.397C136.538 579.089 140.892 585.924 148.999 587.689C155.284 589.044 163.107 587.174 167.423 582.043C170.184 578.762 170.27 575.626 170.364 572.176C170.456 568.839 170.555 565.208 173.092 560.871C176.521 555.016 183.834 548.873 191.516 549.579C202.191 550.573 207.636 564.285 208.521 566.512L208.523 566.517C210.921 572.56 210.539 576.548 209.613 586.213C209.285 589.64 208.888 593.781 208.523 598.981C207.46 614.154 206.832 623.78 208.523 635.679C210.415 649.017 211.577 657.204 218.443 663.909C225.884 671.164 239.089 675.832 249.622 670.966C260.807 665.8 263.745 652.302 265.211 645.561L265.212 645.559C266.914 637.73 266.17 632.801 265.221 626.516C264.369 620.871 263.352 614.132 263.795 603.215C264.319 590.31 264.68 583.677 269.464 577.808C275.841 569.982 287.888 564.752 299.226 567.928C301.886 568.676 309.075 571.178 313.398 577.808C315.76 581.431 316.132 584.549 316.524 587.84C316.876 590.783 317.243 593.865 319.067 597.569C320.626 600.745 324.162 607.622 331.822 610.272C337.668 612.294 345.222 611.592 350.246 607.449C353.486 604.777 354.129 601.952 355.213 597.187C355.921 594.074 356.817 590.133 358.75 584.866C360.758 579.389 363.774 571.376 370.087 563.694L370.134 563.637C374.738 558.053 381.414 549.957 392.763 548.167C394.379 547.913 407.138 546.085 415.439 553.813C418.964 557.095 419.964 560.498 420.933 563.795C421.952 567.26 422.936 570.607 426.777 573.574C431.649 577.336 439.727 579.414 445.201 576.397C448.679 574.481 449.7 571.283 450.89 567.557C451.973 564.165 453.196 560.335 456.539 556.636C462.764 549.741 471.246 548.485 473.546 548.167C474.644 548.016 484.334 546.823 493.387 552.402C504.941 559.519 507.832 572.956 510.394 584.866C514.242 602.739 512.474 619.8 511.811 625.799C511.38 629.74 510.875 632.857 510.442 635.521C509.454 641.619 508.848 645.354 510.394 651.205L510.397 651.217C511.28 654.553 514.411 666.386 525.983 672.377C533.424 676.259 544.298 677.649 552.911 672.377C561.705 666.993 563.962 657.204 565.666 649.794C566.885 644.501 566.888 640.972 565.666 615.918L565.589 614.347C564.792 598.072 564.634 594.833 567.083 590.512C572.944 580.173 585.568 578.02 586.925 577.808C597.097 576.227 608.07 580.109 613.852 587.689C616.99 591.8 617.267 595.252 617.556 598.847C617.832 602.289 618.118 605.862 620.938 610.272C627.036 619.8 641.169 627.295 652.117 622.976C662.747 618.78 665.861 605.219 666.29 603.215C667.703 596.614 666.399 592.062 665.212 587.92C664.018 583.752 662.943 579.997 664.873 574.985C669.447 563.101 684.912 559.71 686.131 559.459C691.561 558.346 697.596 560.378 708.803 564.151C709.714 564.458 710.659 564.776 711.641 565.105C716.783 566.826 719.277 567.899 721.136 568.699L721.137 568.699C723.09 569.539 724.343 570.078 727.231 570.751C735.44 572.664 740.553 571.862 744.542 571.236C748.183 570.665 750.888 570.241 754.158 572.162C761.691 576.587 763.434 588.292 766.914 611.684C767.188 613.523 767.401 615.124 767.59 616.544C768.359 622.323 768.728 625.095 771.165 628.622C776.427 636.233 786.712 640.683 796.676 639.913C798.525 639.772 810.423 638.855 816.517 630.033C820.128 624.814 819.496 620.019 818.359 611.389C817.599 605.624 816.613 598.147 816.517 587.689C816.326 566.848 819.904 560.973 822.186 558.048C822.618 557.494 831.469 546.463 842.027 548.167C852.706 549.889 858.843 563.619 860.451 572.162C861.051 575.351 860.95 577.433 860.86 579.257C860.752 581.471 860.662 583.306 861.868 586.277C864.753 593.388 872.771 601.373 881.71 600.392C892.041 599.259 897.065 586.877 897.299 586.277C899.623 580.31 898.699 575.487 897.869 571.158C897.071 566.992 896.361 563.285 898.717 559.459C902.791 552.843 913.906 549.328 921.392 552.402C937.088 558.845 935.848 593.846 935.565 601.803C935.429 605.644 935.139 607.83 934.855 609.961L934.855 609.962C934.515 612.517 934.186 614.994 934.147 620.153V620.155C934.045 634.163 933.964 645.228 939.816 655.44C945.595 665.518 959.332 678.553 972.413 675.2C985.434 671.862 990.096 654.261 990.837 651.205C992.385 644.83 991.637 641.016 990.424 634.834C989.647 630.873 988.679 625.941 988.002 618.741L988.001 618.725C986.159 599.119 985.06 587.414 992.254 577.808C999.34 568.334 1012.37 563.761 1023.43 565.105C1027.18 565.56 1034.77 566.485 1039.02 572.162C1041.58 575.6 1041.48 578.846 1041.37 582.527C1041.26 586.027 1041.13 589.921 1043.27 594.746C1043.73 595.766 1048.7 606.539 1058.86 608.861C1068.18 610.978 1077.75 605.096 1082.96 598.981C1087.97 593.094 1088.39 587.623 1088.84 581.846C1089.27 576.293 1089.73 570.456 1094.3 563.694C1094.9 562.794 1105.52 547.567 1121.22 548.167C1133.52 548.637 1141.74 558.542 1142.48 559.459C1146.25 564.138 1147.33 568.527 1148.31 572.523C1149.32 576.618 1150.22 580.3 1153.82 583.454C1159.26 588.225 1168.26 590.893 1173.66 587.689C1176 586.301 1176.61 584.441 1178.55 578.498L1178.55 578.495L1178.55 578.491C1179.41 575.868 1180.52 572.45 1182.16 567.928C1185.35 559.131 1186.99 554.688 1189.25 552.402C1195.11 546.463 1205.26 544.529 1213.34 546.756C1225.65 550.147 1231.06 562.593 1234.6 570.751C1243.46 591.179 1239.89 612.083 1238.85 617.33C1237.86 622.384 1236.62 626.22 1235.52 629.603C1233.63 635.432 1232.17 639.917 1233.18 646.971L1233.19 647.03C1233.84 651.552 1235.19 660.962 1243.1 668.143C1243.91 668.87 1255.29 678.849 1270.03 675.2C1283.54 671.859 1289.23 659.713 1289.87 658.263C1292.31 652.815 1291.89 649.108 1291.12 642.383C1290.62 638.056 1289.98 632.48 1289.87 624.387C1289.64 607.188 1289.64 598.458 1295.54 591.923C1303.28 583.356 1316.12 583.433 1319.63 583.454H1319.64C1324.08 583.482 1334.52 583.55 1340.89 590.512C1343.52 593.369 1344.13 595.938 1344.8 598.744C1345.5 601.662 1346.25 604.837 1349.4 608.861C1350.72 610.548 1355.37 616.342 1363.57 618.741C1365.16 619.207 1377.03 622.503 1384.83 615.918C1391.28 610.463 1391.6 601.045 1391.91 591.923C1392.09 586.924 1391.63 583.627 1391.26 581.019V581.018C1390.79 577.641 1390.48 575.422 1391.91 572.162C1395.36 564.309 1404.2 561.147 1408.92 559.46L1408.92 559.459C1417.26 556.479 1426.83 559.063 1433.75 560.93C1439.24 562.414 1443.06 563.446 1443.25 560.871C1447.19 507.234 1443.25 503 1443.25 503H1440V0Z" fill="#F2805F"/>
</g>
<defs>
<filter id="filter0_d_124_404" x="-7" y="0" width="1456" height="684" filterUnits="userSpaceOnUse" color-interpolation-filters="sRGB">
<feFlood flood-opacity="0" result="BackgroundImageFix"/>
<feColorMatrix in="SourceAlpha" type="matrix" values="0 0 0 0 0 0 0 0 0 0 0 0 0 0 0 0 0 0 127 0" result="hardAlpha"/>
<feOffset dy="4"/>
<feGaussianBlur stdDeviation="2"/>
<feComposite in2="hardAlpha" operator="out"/>
<feColorMatrix type="matrix" values="0 0 0 0 0 0 0 0 0 0 0 0 0 0 0 0 0 0 0.25 0"/>
<feBlend mode="normal" in2="BackgroundImageFix" result="effect1_dropShadow_124_404"/>
<feBlend mode="normal" in="SourceGraphic" in2="effect1_dropShadow_124_404" result="shape"/>
</filter>
</defs>
</svg>
