<svg xmlns="http://www.w3.org/2000/svg" width="1448.001" height="676.665" viewBox="0 0 1448.001 676.665">
    <g   id="Group_2" data-name="Group 2" transform="translate(-236 -201.335)">
        <g id="Group_1" data-name="Group 1" transform="translate(239 202)">
            <path  id="Path_1" data-name="Path 1" d="M1440,0H0V503H-3v63.517c2.555-1.211,14.116-6.352,25.865-1.412,13.464,5.671,17.489,20.53,18.424,23.995,1.7,6.284,1.174,10.417.635,14.675a37.853,37.853,0,0,0,.783,16.378c1.417,5.43,3.681,14,11.338,19.76,9.212,6.927,24.068,8.176,31.179,1.412,2.676-2.545,3.672-6.4,5.662-14.089l.007-.026a88.429,88.429,0,0,0,2.835-19.761,54.065,54.065,0,0,0-1.586-15.22,40.682,40.682,0,0,1-1.249-13.009c.354-6.525.921-15.174,7.086-22.584l.036-.043c2.141-2.551,6.678-7.959,14.136-8.426,8.022-.5,13.733,5.191,14.173,5.646,3.286,3.391,3.783,6.671,4.348,10.4a28.214,28.214,0,0,0,4.155,12.185c1.712,2.692,6.066,9.527,14.173,11.292,6.285,1.355,14.108-.515,18.424-5.646,2.761-3.281,2.847-6.417,2.941-9.867.092-3.337.191-6.968,2.728-11.305,3.429-5.855,10.742-12,18.424-11.292,10.675.994,16.12,14.706,17,16.933l0,.005c2.4,6.043,2.016,10.031,1.09,19.7-.328,3.427-.725,7.568-1.09,12.768-1.063,15.173-1.691,24.8,0,36.7,1.892,13.338,3.054,21.525,9.92,28.23,7.441,7.255,20.646,11.923,31.179,7.057,11.185-5.166,14.123-18.664,15.589-25.4v0c1.7-7.829.958-12.758.009-19.043a109.7,109.7,0,0,1-1.426-23.3c.524-12.905.885-19.538,5.669-25.407,6.377-7.826,18.424-13.056,29.762-9.88,2.66.748,9.849,3.25,14.172,9.88,2.362,3.623,2.734,6.741,3.126,10.032a27.414,27.414,0,0,0,2.543,9.729c1.559,3.176,5.1,10.053,12.755,12.7,5.846,2.022,13.4,1.32,18.424-2.823,3.24-2.672,3.883-5.5,4.967-10.262a92.173,92.173,0,0,1,3.537-12.321c2.008-5.477,5.024-13.49,11.337-21.172l.047-.057c4.6-5.584,11.28-13.68,22.629-15.47,1.616-.254,14.375-2.082,22.676,5.646,3.525,3.282,4.525,6.685,5.494,9.982,1.019,3.465,2,6.812,5.844,9.779,4.872,3.762,12.95,5.84,18.424,2.823,3.478-1.916,4.5-5.114,5.689-8.84,1.083-3.392,2.306-7.222,5.649-10.921,6.225-6.895,14.707-8.151,17.007-8.469a31.881,31.881,0,0,1,19.841,4.235c11.554,7.117,14.445,20.554,17.007,32.464,3.848,17.873,2.08,34.934,1.417,40.933-.431,3.941-.936,7.058-1.369,9.722-.988,6.1-1.594,9.833-.048,15.684l0,.012c.883,3.336,4.014,15.169,15.586,21.16,7.441,3.882,18.315,5.272,26.928,0,8.794-5.384,11.051-15.173,12.755-22.583,1.219-5.293,1.222-8.822,0-33.876l-.077-1.571c-.8-16.275-.955-19.514,1.494-23.835,5.861-10.339,18.485-12.492,19.842-12.7,10.172-1.581,21.145,2.3,26.927,9.881,3.138,4.111,3.415,7.563,3.7,11.158.276,3.442.562,7.015,3.382,11.425,6.1,9.528,20.231,17.023,31.179,12.7,10.63-4.2,13.744-17.757,14.173-19.761,1.413-6.6.109-11.153-1.078-15.3-1.194-4.168-2.269-7.923-.339-12.935,4.574-11.884,20.039-15.275,21.258-15.526,5.43-1.113,11.465.919,22.672,4.692q1.367.461,2.838.954c5.142,1.721,7.636,2.794,9.495,3.594h0a29.981,29.981,0,0,0,6.094,2.052,40.373,40.373,0,0,0,17.311.485c3.641-.571,6.346-.995,9.616.926,7.533,4.425,9.276,16.13,12.756,39.522.274,1.839.487,3.44.676,4.86.769,5.779,1.138,8.551,3.575,12.078,5.262,7.611,15.547,12.061,25.511,11.291,1.849-.141,13.747-1.058,19.841-9.88,3.611-5.219,2.979-10.014,1.842-18.644a179.925,179.925,0,0,1-1.842-23.7c-.191-20.841,3.387-26.716,5.669-29.641.432-.554,9.283-11.585,19.841-9.881,10.679,1.722,16.816,15.452,18.424,23.995a27.1,27.1,0,0,1,.409,7.1,14.143,14.143,0,0,0,1.008,7.02c2.885,7.111,10.9,15.1,19.842,14.115,10.331-1.133,15.355-13.515,15.589-14.115,2.324-5.967,1.4-10.79.57-15.119-.8-4.166-1.508-7.873.848-11.7,4.074-6.616,15.189-10.131,22.675-7.057,15.7,6.443,14.456,41.444,14.173,49.4a73.832,73.832,0,0,1-.71,8.158h0a69.871,69.871,0,0,0-.708,10.191v0c-.1,14.008-.183,25.073,5.669,35.285,5.779,10.078,19.516,23.113,32.6,19.76,13.021-3.338,17.683-20.939,18.424-23.995,1.548-6.375.8-10.189-.413-16.371A148.795,148.795,0,0,1,988,618.741v-.016c-1.842-19.606-2.941-31.311,4.253-40.917,7.086-9.474,20.116-14.047,31.176-12.7,3.75.455,11.34,1.38,15.59,7.057,2.56,3.438,2.46,6.684,2.35,10.365-.11,3.5-.24,7.394,1.9,12.219.46,1.02,5.43,11.793,15.59,14.115,9.32,2.117,18.89-3.765,24.1-9.88,5.01-5.887,5.43-11.358,5.88-17.135.43-5.553.89-11.39,5.46-18.152.6-.9,11.22-16.127,26.92-15.527,12.3.47,20.52,10.375,21.26,11.292,3.77,4.679,4.85,9.068,5.83,13.064,1.01,4.095,1.91,7.777,5.51,10.931,5.44,4.771,14.44,7.439,19.84,4.235,2.34-1.388,2.95-3.248,4.89-9.191v-.007c.86-2.623,1.97-6.041,3.61-10.563,3.19-8.8,4.83-13.24,7.09-15.526,5.86-5.939,16.01-7.873,24.09-5.646,12.31,3.391,17.72,15.837,21.26,23.995,8.86,20.428,5.29,41.332,4.25,46.579a98.387,98.387,0,0,1-3.33,12.273c-1.89,5.829-3.35,10.314-2.34,17.368l.01.059c.65,4.522,2,13.932,9.91,21.113.81.727,12.19,10.706,26.93,7.057,13.51-3.341,19.2-15.487,19.84-16.937,2.44-5.448,2.02-9.155,1.25-15.88a162.987,162.987,0,0,1-1.25-18c-.23-17.2-.23-25.929,5.67-32.464,7.74-8.567,20.58-8.49,24.09-8.469h.01c4.44.028,14.88.1,21.25,7.058,2.63,2.857,3.24,5.426,3.91,8.232a23.14,23.14,0,0,0,4.6,10.117,28.354,28.354,0,0,0,14.17,9.88c1.59.466,13.46,3.762,21.26-2.823,6.45-5.455,6.77-14.873,7.08-24a56.173,56.173,0,0,0-.65-10.9h0c-.47-3.377-.78-5.6.65-8.856,3.45-7.853,12.29-11.015,17.01-12.7h0c8.34-2.98,17.91-.4,24.83,1.471,5.49,1.484,9.31,2.516,9.5-.059,3.94-53.637,0-57.871,0-57.871H1440Z" fill="#FFD101" fill-rule="evenodd" />
        </g>
    </g>
    <path id="Path_2" data-name="Path 2" d="M236,716.2V149.335h14.352v557.8Z" transform="translate(-235.999 -149.335)" fill="#FFD101" />
</svg>