<svg width="720" height="700" viewBox="0 0 720 700" fill="none" xmlns="http://www.w3.org/2000/svg">
<path d="M504.064 20.3047L492.213 40.6885L468.59 40.9255L444.967 41.1625L433.116 61.6253L421.265 82.1671L398.037 82.3251L374.888 82.5621L363.037 102.867L351.186 123.251L336.412 123.172C328.353 123.093 318.24 122.856 313.974 122.54L306.231 122.065L294.933 102.314L283.635 82.5621L260.012 82.3251L236.389 82.0881L224.696 61.5463L212.924 41.0836H188.748H164.493L152.642 61.6253L140.791 82.0881L117.168 82.3251L93.4659 82.5621L81.3778 103.341L69.2898 124.12L81.3778 145.214L93.4659 166.309L117.089 166.546L140.791 166.783L150.272 183.454C155.486 192.619 160.622 201.704 161.649 203.521L163.545 206.919L152.642 225.722C146.637 236.072 141.265 245.079 140.633 245.711C139.685 246.738 136.288 246.817 117.247 246.58L94.967 246.343L83.037 266.806L71.186 287.19L47.5629 287.585L23.9399 287.98L11.8519 308.521C5.21532 319.819 -0.0781338 329.458 0.000873007 329.932C0.0798798 330.406 5.45234 340.124 12.0099 351.501L23.8609 372.122H47.3259H70.7119L81.8519 391.558C88.0144 402.302 92.9918 411.309 92.9918 411.625C92.9918 412.02 87.9354 420.948 81.8519 431.456C75.6894 441.964 70.4749 451.129 70.3169 451.84C70.1589 452.551 75.2943 462.348 81.7729 473.646L93.6239 494.187L117.168 494.582L140.791 494.977L152.326 515.045L163.861 535.192L157.145 546.648C153.511 552.968 148.218 562.133 145.373 567.032L140.238 575.801L152.326 596.817L164.414 617.833H187.879H211.265L223.037 638.375L234.73 658.916H259.301H283.793L294.854 639.797C300.938 629.289 306.468 620.045 307.1 619.176C308.285 617.754 309.233 617.754 330.407 618.386L352.45 619.018L363.906 639.007L375.283 658.916H398.748H422.213L433.985 679.458L445.678 700H469.933H494.188L506.197 679.458L518.206 658.916H541.592H565.057L576.908 638.375L588.759 617.912L610.96 617.833H633.161L644.933 638.375L656.626 658.916H680.091H703.635L715.328 679.458L727.021 700L751.434 699.842L775.926 699.605L787.777 679.221L799.628 658.916H823.093H846.479L858.409 638.375C865.046 627.077 870.418 617.359 870.339 616.885C870.339 616.332 865.046 606.772 858.646 595.711L847.032 575.564L837.947 575.09C832.969 574.774 822.303 574.537 814.245 574.458L799.549 574.379L787.935 554.074C779.403 539.221 776.479 533.454 776.953 532.427C777.269 531.716 782.405 522.946 788.251 512.833L798.917 494.582H822.382H845.768L857.777 474.041L869.786 453.499L893.093 453.341L916.479 453.104L928.33 432.641L940.26 412.178L963.488 412.494L986.795 412.81L998.567 392.664C1005.05 381.603 1010.58 372.122 1010.73 371.648C1010.97 371.095 1005.76 361.219 999.12 349.684L987.111 328.668H963.725H940.339L928.488 308.126L916.637 287.585H892.145L867.653 287.664L855.802 308.126L843.951 328.668H830.836C823.646 328.668 813.455 328.431 808.161 328.115L798.601 327.641L786.908 307.257L775.215 286.795H751.75H728.364L717.145 267.28L706.005 247.686L707.427 245.237C708.218 243.894 713.274 235.124 718.725 225.722L728.601 208.657L753.093 208.578H777.585L789.674 187.641L801.762 166.783L789.832 145.926L777.823 124.989L753.646 124.436C731.683 123.883 729.391 123.962 728.522 125.147C728.048 125.858 722.676 135.023 716.671 145.372L705.689 164.334L682.066 164.176L658.443 163.939L647.145 144.187C640.904 133.284 635.768 124.278 635.768 124.041C635.768 123.804 641.062 114.56 647.461 103.499L659.233 83.4312L647.224 62.4944L635.215 41.4786L611.592 41.2416L587.969 41.0836L576.276 20.5418L564.583 0H540.249H515.915L504.064 20.3047ZM574.064 21.8059C580.148 32.4718 585.204 41.6366 585.204 42.0316C585.204 42.8217 564.899 78.1377 562.845 80.824C561.976 82.009 559.843 82.0881 539.459 81.535L516.942 80.982L505.723 61.4673L494.583 41.9526L506.039 22.1219L517.495 2.37024H540.17H562.845L574.064 21.8059ZM203.601 44.2438H211.897L220.746 59.8871C225.644 68.4199 230.701 77.2687 231.965 79.4019L234.256 83.3522L222.642 103.104L211.107 122.856L188.906 123.093C168.522 123.251 166.626 123.172 165.52 121.907C163.15 119.142 143.477 83.7472 143.714 82.6411C143.872 82.0881 148.929 73.0023 155.012 62.4154L166.073 43.2957L180.689 43.7698C188.748 44.0068 199.019 44.2438 203.601 44.2438ZM503.59 63.4424L514.888 83.1152L503.511 102.551L492.213 122.065H469.538H446.863L435.407 102.235L424.03 82.4831L435.328 62.9684L446.547 43.5328L469.459 43.6908L492.371 43.8488L503.59 63.4424ZM644.538 62.9684C650.701 73.7924 655.757 82.8781 655.757 83.3522C655.757 83.7472 650.622 92.912 644.38 103.657L633.082 123.172L610.486 122.698C591.209 122.302 587.811 122.065 586.942 121.038C586.389 120.327 581.333 111.637 575.644 101.682C566.4 85.6434 565.373 83.4312 566.084 81.772C567.111 79.4808 586.705 45.824 587.811 44.4019C588.364 43.6908 593.974 43.4537 610.881 43.4537H633.24L644.538 62.9684ZM152.01 104.289C158.172 114.955 163.071 124.12 162.834 124.752C162.597 125.384 157.619 134.391 151.615 144.661L140.791 163.465L117.879 163.544H94.967L83.59 143.792L72.2921 124.041L78.3756 113.612C81.7729 107.844 86.9873 98.9165 89.9896 93.7811L95.4411 84.5373L118.116 84.6953L140.791 84.9323L152.01 104.289ZM293.116 104.289C302.676 121.038 303.94 123.646 303.229 125.147C302.676 126.095 297.382 135.181 291.457 145.372L280.554 163.939L258.669 164.097L236.784 164.255L234.888 161.332C232.123 157.065 213.872 124.989 213.872 124.357C213.872 123.962 218.455 115.982 232.676 91.7269L237.021 84.3002L259.538 84.6953L282.134 85.0903L293.116 104.289ZM433.274 104.763L444.651 124.594L433.353 144.029L422.055 163.544L399.143 163.307L376.31 163.149L365.012 143.476L353.793 123.725L355.215 121.354C356.637 119.063 365.486 103.894 373.387 90.2258L376.705 84.5373L399.301 84.6953L421.897 84.9323L433.274 104.763ZM573.748 103.973C579.832 114.639 584.809 123.804 584.809 124.436C584.809 124.989 579.832 134.075 573.748 144.503L562.687 163.544H540.012H517.416L506.197 144.029C499.64 132.573 495.215 123.883 495.373 123.093C495.61 122.382 500.667 113.375 506.592 103.104L517.416 84.5373H540.091H562.687L573.748 103.973ZM221.773 144.266C227.619 154.537 232.755 163.623 233.15 164.413C233.703 165.519 231.333 170.181 222.563 185.271L211.265 204.628H188.274H165.204L154.301 185.429C148.218 174.921 143.319 165.914 143.319 165.519C143.319 165.045 148.376 155.88 154.696 145.135L166.073 125.621H188.59H211.107L221.773 144.266ZM362.958 145.372L374.177 165.045L362.721 184.876L351.186 204.628H328.906H306.705L295.407 184.876L284.109 165.203L291.378 152.72C295.328 145.846 300.543 136.919 302.913 132.889L307.179 125.621H329.459L351.739 125.7L362.958 145.372ZM503.669 145.846L514.967 165.756L503.669 185.192L492.371 204.628L469.538 204.391L446.705 204.233L435.723 185.034C429.719 174.447 424.82 165.361 424.978 164.729C425.136 164.176 430.193 155.169 436.276 144.661L447.337 125.621L469.854 125.779L492.292 126.016L503.669 145.846ZM626.841 126.332L634.188 126.806L645.249 146.084L656.31 165.282L644.696 185.35L633.003 205.418L616.017 205.339C606.694 205.26 596.423 205.023 593.342 204.707L587.574 204.233L576.434 184.876C566.874 168.205 565.452 165.361 566.163 163.781C567.111 161.648 586.705 127.991 587.811 126.569C588.601 125.542 612.935 125.305 626.841 126.332ZM787.461 147.032L798.759 166.783L797.258 169.391C796.468 170.813 791.333 179.661 785.881 189.063L776.005 206.129L753.093 206.208H730.102L718.804 186.377C710.114 171.208 707.664 166.23 708.138 165.203C708.534 164.413 713.669 155.564 719.516 145.451L730.181 127.201H753.172H776.242L787.461 147.032ZM261.671 167.494H281.66L292.8 187.088C298.883 197.833 303.94 206.998 303.94 207.314C303.94 207.709 298.883 216.716 292.8 227.302L281.66 246.501L259.064 246.343L236.468 246.106L225.091 226.196L213.714 206.287L220.983 193.804C238.68 163.623 236.705 166.467 239.312 167.02C240.655 167.257 250.689 167.494 261.671 167.494ZM433.353 186.535L444.651 206.366L439.832 214.819C437.145 219.402 432.01 228.251 428.455 234.413L422.055 245.632L399.538 245.711H377.021L365.802 225.959C359.561 215.135 354.504 205.813 354.504 205.339C354.504 204.944 357.032 200.282 360.035 195.068C363.116 189.932 368.093 181.4 371.096 176.185L376.705 166.704H399.38H422.055L433.353 186.535ZM574.143 186.456C582.913 201.862 585.283 206.603 584.73 207.709C584.335 208.499 579.2 217.348 573.353 227.461L562.687 245.711H540.17H517.574L506.276 225.959C500.114 215.056 495.136 205.892 495.294 205.497C495.452 205.102 500.509 196.253 506.592 185.745L517.653 166.704H540.249H562.924L574.143 186.456ZM714.538 185.271C720.306 195.226 725.362 204.233 725.915 205.102C726.705 206.603 725.441 209.131 715.486 226.275L704.109 245.711H681.118H658.048L646.908 226.117L635.768 206.445L647.303 186.614L658.917 166.704L681.513 166.862L704.109 167.099L714.538 185.271ZM222.563 227.54C229.516 239.786 233.624 247.765 233.308 248.555C232.597 250.372 212.213 285.451 211.186 286.558C210.475 287.348 205.102 287.427 188.195 287.032L166.073 286.558L156.592 269.966C151.378 260.801 146.242 251.874 145.215 249.977L143.398 246.659L154.696 227.224L166.073 207.788H188.669H211.344L222.563 227.54ZM343.522 208.578H351.976L363.116 228.014C369.279 238.679 374.098 247.686 374.019 247.923C373.861 248.239 368.646 257.246 362.405 268.07L351.107 287.585L328.985 287.427L306.942 287.19L295.565 267.517C289.403 256.614 284.425 247.607 284.504 247.37C287.902 241.366 305.441 211.501 306.547 209.842L308.206 207.551L321.637 208.025C329.064 208.341 338.94 208.578 343.522 208.578ZM503.748 227.619C514.256 245.948 514.967 247.607 514.177 249.503C513.624 250.609 508.567 259.458 502.958 269.176L492.608 286.795H469.854H447.1L435.881 267.043C429.719 256.219 424.82 247.054 424.978 246.659C425.057 246.264 430.193 237.336 436.276 226.907L447.337 207.788H469.854H492.371L503.748 227.619ZM643.669 226.117C649.516 236.23 654.572 245.079 654.967 245.79C655.52 246.659 652.834 251.874 644.222 266.727L632.766 286.4L610.407 286.637L587.969 286.795L576.908 267.359C570.825 256.693 565.847 247.528 565.847 247.054C565.847 246.501 570.825 237.494 576.908 226.986L587.969 207.867L610.565 207.788H633.161L643.669 226.117ZM291.694 266.411C297.224 276.129 302.36 285.135 303.229 286.4L304.651 288.77L293.353 308.126L282.134 327.483H259.301H236.468L225.17 307.81L213.872 288.138L224.617 269.492C230.622 259.221 235.836 250.372 236.231 249.819C236.784 249.108 242.394 248.871 259.301 248.871H281.66L291.694 266.411ZM433.511 268.623L444.809 288.375L439.832 296.907C437.145 301.569 432.01 310.418 428.455 316.58L422.055 327.799H399.538H377.021L366.039 308.521C360.035 297.935 355.057 289.007 354.978 288.77C354.978 288.533 360.035 279.447 366.355 268.544L377.811 248.871H400.012H422.292L433.511 268.623ZM573.59 267.833C579.516 278.262 584.493 287.032 584.572 287.427C584.73 287.822 579.674 297.065 573.353 307.968L561.897 327.799L539.775 327.878H517.653L506.276 308.205L494.978 288.454L502.326 275.971C506.276 269.097 511.491 260.169 513.861 256.14L518.127 248.871H540.407H562.766L573.59 267.833ZM714.775 268.307C720.938 278.973 725.757 288.138 725.599 288.612C725.362 289.165 720.227 298.093 714.143 308.521L703.082 327.483H680.407H657.732L646.75 308.521C640.667 298.093 635.847 289.007 635.926 288.296C636.084 287.585 641.141 278.42 647.224 267.991L658.285 248.871H680.881H703.556L714.775 268.307ZM150.114 265.068C154.854 273.284 159.911 282.212 161.333 284.819L164.019 289.56L152.721 308.917L141.502 328.273L118.906 328.51L96.3101 328.668L86.5923 311.919C81.2988 302.675 76.1634 293.668 75.1363 291.93L73.3192 288.77L82.958 272.178C88.2514 263.014 93.3869 254.244 94.335 252.585L96.1521 249.661L118.827 249.819L141.502 250.056L150.114 265.068ZM633.082 290.192C634.188 291.614 654.967 328.51 654.967 329.063C654.967 330.011 633.635 366.512 632.213 368.093C631.344 368.962 627.315 369.041 609.38 368.567L587.653 367.935L576.513 348.657L565.452 329.379L575.407 312.235C580.859 302.833 586.231 293.747 587.337 292.009L589.312 288.928L611.197 289.56C623.206 289.876 633.082 290.192 633.082 290.192ZM774.188 290.666C775.61 292.009 796.231 328.905 795.994 329.774C795.836 330.327 790.78 339.334 784.696 349.842L773.635 368.962L750.802 368.725L727.969 368.567L716.671 348.815L705.373 329.063L706.874 326.693C707.664 325.429 712.642 316.817 717.935 307.731C723.229 298.567 727.89 290.745 728.285 290.271C728.996 289.402 773.161 289.718 774.188 290.666ZM63.1273 290.429L71.423 290.982L82.3259 310.023C88.3304 320.53 93.2289 329.379 93.2289 329.853C93.2289 330.248 88.0934 339.492 81.8519 350.237L70.4749 369.831L48.116 369.673L25.7571 369.594L23.8609 366.67C22.9128 365.09 17.6984 356.242 12.4049 346.919C3.95121 332.144 2.84512 329.774 3.63518 328.194C4.58327 325.982 24.1769 292.325 25.283 290.903C26.1521 289.876 48.353 289.56 63.1273 290.429ZM353.24 292.878C354.346 294.537 359.64 303.623 365.012 313.104L374.809 330.327L363.353 350L351.818 369.752H345.102C341.389 369.752 331.118 369.515 322.427 369.199L306.468 368.725L295.328 349.131L284.109 329.458L291.378 317.054C295.328 310.181 300.543 301.253 302.913 297.223L307.179 289.955H329.222H351.344L353.24 292.878ZM503.748 309.391C509.911 320.135 514.888 329.221 514.888 329.616C514.888 330.011 509.832 339.097 503.669 349.684L492.45 368.962L469.854 368.804L447.337 368.567L436.908 350.395C431.141 340.361 426.084 331.433 425.531 330.564C424.741 329.063 426.005 326.535 435.96 309.391L447.337 289.955H470.012H492.608L503.748 309.391ZM926.434 309.707L937.653 329.458L926.276 349.052L914.899 368.567L892.066 368.725L869.233 368.962L857.935 349.21C847.901 331.512 846.795 329.221 847.585 327.641C849.403 324.323 868.285 291.93 869.075 290.903C869.628 290.192 875.317 289.955 892.461 289.955H915.136L926.434 309.707ZM222.8 309.944C228.725 320.451 233.624 329.458 233.624 329.853C233.624 330.327 228.488 339.334 222.247 350L210.949 369.357L188.748 369.594L166.626 369.752L155.486 350.316C149.324 339.65 144.346 330.485 144.346 330.011C144.346 329.537 149.403 320.53 155.486 309.944L166.705 290.745H189.301L211.897 290.824L222.8 309.944ZM714.459 350.474L725.915 370.384L714.222 390.293L702.608 410.282L697.473 409.729C694.628 409.492 684.516 409.255 675.114 409.255H658.048L646.75 389.661C640.588 378.917 635.531 369.752 635.531 369.357C635.531 368.883 639.087 362.483 643.432 355.135C647.698 347.709 652.755 339.097 654.651 335.937L657.969 330.248L680.486 330.406L703.003 330.643L714.459 350.474ZM131.784 331.591L141.739 332.065L152.642 351.027C158.646 361.456 163.545 370.384 163.545 370.858C163.545 371.885 142.292 408.386 140.949 409.808C140.238 410.519 134.47 410.598 117.721 410.282L95.362 409.808L84.3011 390.53C78.1386 379.865 73.2402 370.937 73.3982 370.621C73.5562 370.305 78.7706 361.298 85.0122 350.553L96.3891 331.038H109.109C116.141 331.038 126.333 331.275 131.784 331.591ZM292.642 350C298.567 360.192 303.545 369.199 303.703 369.91C303.94 370.7 299.516 379.154 292.8 390.689L281.502 410.045H258.906L236.389 409.966L225.407 390.689C218.534 378.521 214.662 370.858 214.978 370.068C215.373 368.962 233.782 337.043 236.468 332.777L237.653 331.038L259.775 331.196L281.897 331.433L292.642 350ZM433.432 350.79L444.73 370.621L432.958 390.768L421.265 410.993L415.418 410.519C412.179 410.282 402.224 410.045 393.297 410.045H377.021L365.96 390.609C359.877 379.865 354.978 370.779 355.136 370.305C355.294 369.91 360.43 360.824 366.592 350.316L377.811 331.038H399.933H422.134L433.432 350.79ZM572.405 348.42C577.777 357.743 582.913 366.749 583.782 368.33L585.441 371.174L574.143 390.609L562.924 410.045H540.249H517.574L506.276 390.293C500.114 379.391 495.136 370.226 495.294 369.831C495.452 369.436 500.509 360.587 506.592 350.079L517.653 331.038L540.091 331.196L562.608 331.433L572.405 348.42ZM855.486 350.395C861.491 360.824 866.468 369.831 866.468 370.384C866.468 370.937 861.412 380.023 855.249 390.689L843.951 410.045H821.434H798.917L788.251 391.4C782.405 381.129 777.269 372.043 776.874 371.253C776.321 370.147 778.692 365.485 787.461 350.395L798.759 331.038L821.671 331.196L844.504 331.433L855.486 350.395ZM996.671 350.553C1002.83 361.377 1007.89 370.463 1007.89 370.779C1007.89 371.174 1002.83 380.102 996.671 390.768L985.373 410.045H962.461L939.549 409.966L928.33 390.293L917.19 370.542L928.646 350.79L940.181 331.038H962.856H985.452L996.671 350.553ZM503.748 391.479C509.911 402.065 514.888 411.072 514.888 411.388C514.888 411.704 509.753 420.711 503.59 431.377L492.292 450.734L470.091 450.971L447.89 451.129L436.75 431.772C430.588 421.185 425.61 412.099 425.61 411.625C425.61 410.756 430.667 401.828 442.992 380.813L448.364 371.727L470.486 371.964L492.687 372.201L503.748 391.479ZM222.721 392.19L234.177 412.178L222.879 431.456L211.66 450.734L188.906 450.892L166.073 451.129L154.854 431.456L143.556 411.783L155.17 391.953L166.705 372.122H188.985H211.265L222.721 392.19ZM361.141 387.923C366.039 396.377 371.096 405.305 372.439 407.675L374.967 412.02L363.669 431.377L352.45 450.734H329.617H306.784L295.486 431.061C285.689 413.917 284.346 411.23 285.136 409.729C286.874 406.411 305.757 374.097 306.547 373.07C307.1 372.359 312.394 372.122 329.854 372.28L352.371 372.517L361.141 387.923ZM644.222 391.874L655.441 411.625L643.906 431.377L632.45 451.129H610.17H587.969L576.671 431.298L565.373 411.467L571.457 401.117C574.775 395.35 579.99 386.501 582.992 381.366L588.443 372.122H610.723L633.003 372.201L644.222 391.874ZM785.091 391.637C791.175 402.382 796.073 411.546 795.994 412.02C795.836 412.573 790.78 421.58 784.696 432.009L773.635 451.129H751.039H728.443L716.987 431.14L705.61 411.151L714.538 395.745C719.516 387.291 724.572 378.521 725.836 376.23L728.206 372.122H751.039H773.872L785.091 391.637ZM926.276 392.19L937.495 411.862L926.197 431.298L914.82 450.734L892.066 450.892L869.233 451.129L858.172 431.693C852.089 421.027 847.111 411.941 847.111 411.388C847.111 410.835 852.089 401.828 858.172 391.321L869.233 372.122L892.066 372.359L914.978 372.517L926.276 392.19ZM563.24 413.917C564.267 414.865 585.204 451.919 585.204 452.788C585.204 453.262 580.148 462.348 573.985 472.935L562.766 492.212H540.486H518.206L506.592 471.986L495.057 451.84L505.881 433.115C511.886 422.844 517.021 413.995 517.337 413.521C518.048 412.652 562.213 412.968 563.24 413.917ZM713.748 430.982C719.516 440.937 724.572 449.865 725.046 450.734C725.757 452.156 724.256 455.158 714.301 472.382L702.687 492.37L680.565 492.054L658.522 491.817L647.224 472.065C637.19 454.684 636.005 452.235 636.795 450.734C637.349 449.786 642.563 440.779 648.409 430.666L659.075 412.257L681.197 412.573L703.319 412.81L713.748 430.982ZM152.405 432.799C158.409 443.386 163.308 452.472 163.15 453.025C162.992 453.578 157.935 462.664 151.852 473.093L140.791 492.212L117.958 491.975L95.125 491.817L83.8271 472.065C73.7142 454.447 72.6081 452.156 73.5562 450.734C74.1092 449.865 79.2447 441.095 85.0122 431.14L95.5201 413.205L118.432 413.363L141.423 413.6L152.405 432.799ZM291.694 430.745C297.224 440.463 302.36 449.47 303.15 450.734L304.651 453.104L293.353 472.461L282.055 491.817L259.222 491.975L236.389 492.212L225.17 472.461L213.872 452.788L225.407 433.036L236.942 413.205H259.301H281.66L291.694 430.745ZM416.525 413.679L422.845 414.233L434.143 433.984L445.362 453.736L434.064 473.172L422.766 492.607L406.965 492.844C398.353 492.923 388.082 492.765 384.132 492.449L377.1 491.817L365.881 472.302L354.741 452.788L366.276 433.036L377.732 413.205H394.008C402.935 413.205 413.048 413.442 416.525 413.679ZM853.906 429.955C859.199 439.199 864.335 448.205 865.283 449.944L867.1 453.104L855.644 472.619L844.267 492.212H821.513H798.838L787.54 472.461C781.378 461.558 776.4 452.393 776.558 451.998C776.716 451.603 781.773 442.754 787.856 432.246L798.917 413.205H821.592H844.188L853.906 429.955ZM784.933 473.646C794.73 490.632 796.152 493.555 795.441 495.135C794.098 498.138 774.662 531.242 773.635 532.427C772.845 533.296 768.658 533.375 750.565 532.901L728.522 532.269L717.856 513.702C712.089 503.51 706.953 494.582 706.637 493.792C706.084 492.765 708.771 487.63 717.303 472.935L728.601 453.499L751.118 453.736L773.635 453.894L784.933 473.646ZM223.116 474.436C233.308 492.212 234.256 494.266 233.308 495.768C232.755 496.637 227.619 505.406 221.852 515.282L211.344 533.296H188.59H165.836L154.696 513.86C148.534 503.115 143.556 494.108 143.556 493.713C143.556 493.318 148.613 484.233 154.854 473.646L166.073 454.289L188.906 454.526L211.818 454.684L223.116 474.436ZM363.827 474.12L375.125 493.95L363.748 513.386L352.371 532.901L329.854 533.138L307.258 533.296L296.039 513.781C289.482 502.325 285.057 493.634 285.215 492.844C285.452 492.133 290.509 483.126 296.434 472.856L307.258 454.289H329.933L352.529 454.368L363.827 474.12ZM503.748 473.725C509.911 484.47 514.888 493.555 514.888 494.108C514.888 494.582 509.832 503.589 503.59 514.176L492.371 533.375L470.249 533.296C458.082 533.296 447.89 532.98 447.574 532.664C447.337 532.348 442.202 523.657 436.276 513.307C429.798 502.009 425.689 494.029 425.926 493.239C426.4 492.212 444.809 460.214 447.416 456.027C448.522 454.289 448.601 454.289 470.565 454.289H492.608L503.748 473.725ZM644.617 474.436L656.152 494.582L644.933 513.781L633.714 532.901H610.881H588.048L576.75 513.228C570.588 502.404 565.61 493.318 565.768 493.081C566.163 492.37 576.75 474.199 582.834 463.77L588.443 454.289H610.723H633.082L644.617 474.436ZM293.511 515.598L304.809 535.508L293.511 554.944L282.213 574.379L259.38 574.142L236.547 573.984L225.249 554.391L214.03 534.718L216.163 531.084C217.348 529.029 222.484 520.181 227.619 511.332L236.942 495.372L259.538 495.53L282.134 495.768L293.511 515.598ZM434.143 515.124L445.362 534.955L433.985 554.47L422.608 573.984L400.17 574.221L377.653 574.379L366.671 555.26C360.667 544.752 355.61 535.666 355.452 535.113C355.294 534.481 360.193 525.316 366.434 514.729L377.653 495.372H400.249H422.845L434.143 515.124ZM574.538 514.887C580.622 525.632 585.52 534.718 585.362 535.192C585.204 535.666 580.069 544.673 573.906 555.181L562.766 574.379H540.486H518.206L506.987 554.865C500.904 544.12 496.084 534.876 496.321 534.244C496.716 533.217 515.283 501.061 517.732 497.111C518.838 495.372 518.917 495.372 541.197 495.372L563.477 495.451L574.538 514.887ZM715.012 515.519L726.468 535.587L715.249 554.786L704.109 573.984H681.276H658.522L647.54 555.023C641.536 544.594 636.637 535.587 636.558 535.034C636.558 534.402 641.615 525.237 647.777 514.65L658.996 495.372H681.276H703.477L715.012 515.519ZM223.116 556.208L234.414 575.959L222.879 595.711L211.344 615.463H188.669H165.994L154.696 595.632C146.005 580.463 143.556 575.485 144.03 574.458C144.425 573.668 149.561 564.819 155.407 554.707L166.073 536.456H188.985H211.897L223.116 556.208ZM363.669 556.287L374.809 575.643L363.274 595.553L351.739 615.463L329.301 615.226L306.863 615.068L295.881 595.869C289.877 585.282 284.978 576.196 285.136 575.643C285.294 575.09 290.351 566.084 296.434 555.576L307.495 536.456L330.012 536.693L352.529 536.851L363.669 556.287ZM504.38 556.524L515.599 576.196L513.703 579.436C512.676 581.253 507.54 589.944 502.405 598.871L492.924 615.068H470.17H447.416L436.197 595.474L424.978 575.88L436.513 556.129L447.969 536.456L470.565 536.614L493.082 536.851L504.38 556.524ZM644.854 555.892C650.938 566.637 655.836 575.722 655.678 576.196C655.52 576.591 650.385 585.598 644.301 596.185L633.082 615.463H610.802H588.522L578.014 597.054C572.247 587.02 567.032 578.014 566.479 577.144C565.61 575.643 566.479 573.747 575.802 557.788C581.491 547.991 586.626 539.221 587.258 538.194C588.364 536.456 588.443 536.456 611.118 536.456H633.793L644.854 555.892ZM785.96 555.813C791.965 566.242 796.863 575.169 796.863 575.564C796.942 576.038 791.886 585.124 785.644 595.711L774.425 615.068H751.592H728.759L717.856 596.106C711.852 585.677 706.953 576.67 706.953 576.117C706.874 575.564 711.931 566.4 718.093 555.734L729.312 536.456L752.145 536.614L775.057 536.851L785.96 555.813ZM715.091 596.738C721.175 607.246 726.073 616.253 726.073 616.648C726.073 617.122 721.017 626.287 714.775 637.032L703.398 656.546H680.881H658.285L646.987 636.795C636.874 619.018 635.768 616.885 636.637 615.305C639.087 610.643 657.416 579.357 658.364 578.33C659.233 577.302 662.631 577.144 681.75 577.381L704.109 577.619L715.091 596.738ZM293.59 597.37L304.967 617.201L303.466 619.808C302.676 621.151 297.54 630 292.089 639.402L282.213 656.467H259.301L236.389 656.546L225.091 636.795L213.793 617.122L221.062 604.639C225.012 597.765 230.227 588.837 232.597 584.808L236.863 577.54H259.538H282.213L293.59 597.37ZM433.906 596.975C439.99 607.641 444.967 616.569 444.888 616.806C444.888 617.043 439.753 626.05 433.432 636.874L422.055 656.546L399.854 656.467C379.944 656.467 377.495 656.309 376.468 655.124C375.283 653.702 355.452 619.255 355.136 617.912C354.978 617.517 360.035 608.273 366.355 597.37L377.811 577.54H400.328H422.845L433.906 596.975ZM574.538 597.133C580.622 607.799 585.599 616.964 585.599 617.517C585.599 617.991 580.622 626.998 574.538 637.506L563.477 656.546L540.644 656.388L517.811 656.151L506.592 636.479L495.294 616.806L500.193 608.431C502.879 603.849 508.093 595 511.649 588.758L518.206 577.54L540.802 577.619H563.477L574.538 597.133ZM856.671 597.528L867.811 617.122L856.355 636.795L844.899 656.546H822.145H799.47L788.33 637.111C782.168 626.366 777.19 617.28 777.19 616.885C777.19 616.49 782.247 607.404 788.409 596.817L799.628 577.54L822.54 577.698L845.452 577.935L856.671 597.528ZM483.285 618.307L493.24 618.86L504.459 638.375L515.678 657.968L504.143 677.799L492.608 697.63L479.098 697.551C471.592 697.472 461.242 697.235 456.107 696.919L446.626 696.445L435.723 677.483C429.798 667.054 424.82 658.284 424.82 657.889C424.82 657.573 430.035 648.409 436.355 637.585L447.89 617.833H460.61C467.642 617.833 477.834 618.07 483.285 618.307ZM761.784 618.623H774.504L785.802 638.375L797.1 658.126L785.644 677.72L774.267 697.235L751.671 697.472L728.996 697.63L727.179 694.707C722.202 686.885 706.084 657.968 706.321 657.494C706.479 657.178 711.773 648.093 718.014 637.269L729.391 617.596L739.267 618.149C744.719 618.386 754.832 618.623 761.784 618.623Z" fill="#FCE47A" fill-opacity="0.6"/>
</svg>
