<svg width="798" height="96" viewBox="0 0 798 96" fill="none" xmlns="http://www.w3.org/2000/svg">
<path d="M0 35.2462C1.40784 34.5745 7.77922 31.7215 14.2541 34.4629C21.674 37.6096 23.8922 45.8553 24.4077 47.7781C26.3212 54.9135 23.1111 57.0537 25.1887 65.0096C25.9698 68.0231 27.2175 72.7774 31.4371 75.9751C36.5139 79.8188 44.7012 80.512 48.6201 76.7583C50.0963 75.3445 50.645 73.2043 51.7443 68.9258C52.6745 65.3412 53.1985 61.6628 53.3064 57.9604C53.4782 49.654 51.3811 49.2154 51.7443 42.2954C51.9396 38.6748 52.252 33.8755 55.6495 29.7634C56.8211 28.3575 59.3263 25.3244 63.46 25.0639C67.8807 24.7859 71.0283 27.9443 71.2704 28.1969C74.7851 31.8488 72.5104 35.2677 75.9567 40.7289C76.8998 42.2229 79.2996 46.0158 83.7672 46.9949C87.2311 47.7468 91.5425 46.709 93.9208 43.8619C96.9141 40.2805 94.202 37.0085 97.045 32.1132C98.9351 28.8646 102.965 25.4556 107.199 25.8472C113.086 26.3994 116.087 34.0184 116.571 35.2462C118.362 39.789 117.34 42.2386 116.571 53.2609C115.985 61.6808 115.64 67.0225 116.571 73.6253C117.614 81.027 118.254 85.5698 122.038 89.2903C126.139 93.3162 133.416 95.9068 139.221 93.2065C145.386 90.3398 147.005 82.8481 147.813 79.108C149.594 70.8605 146.516 68.4128 147.032 55.6106C147.321 48.4498 147.52 44.7685 150.156 41.5121C153.671 37.169 160.31 34.2671 166.558 36.0294C168.024 36.4445 171.986 37.8328 174.368 41.5121C176.835 45.3207 175.364 48.1247 177.493 52.4776C178.352 54.2399 180.301 58.0563 184.522 59.5268C187.744 60.6488 191.907 60.2592 194.676 57.9604C197.628 55.5088 196.667 52.8242 199.362 45.4284C200.469 42.3894 202.131 37.9425 205.61 33.6797C208.149 30.58 211.831 26.0606 218.107 25.0639C218.997 24.923 226.029 23.9086 230.604 28.1969C234.587 31.9311 232.72 35.9491 236.852 39.1624C239.537 41.2498 243.989 42.4031 247.006 40.7289C250.667 38.6983 249.388 34.0713 253.254 29.7634C256.685 25.9373 261.359 25.2402 262.627 25.0639C263.232 24.9797 268.572 24.3179 273.561 27.4137C279.929 31.3632 281.522 38.8197 282.934 45.4284C285.054 55.3463 284.08 64.8138 283.715 68.1426C282.934 75.3348 281.71 77.5748 282.934 82.241C283.418 84.0836 285.14 90.661 291.525 93.9898C295.626 96.1437 301.618 96.9152 306.365 93.9898C311.212 91.0017 312.455 85.5698 313.395 81.4578C314.066 78.5206 314.068 76.5625 313.395 62.6598C312.92 52.8692 312.784 51.0345 314.176 48.5614C317.405 42.8241 324.363 41.6296 325.11 41.5121C330.716 40.6349 336.764 42.7888 339.95 46.9949C343.336 51.4614 340.679 54.5239 343.855 59.5268C347.216 64.8138 355.005 68.9728 361.038 66.5761C366.896 64.2479 368.613 56.7228 368.849 55.6106C370.411 48.2618 365.947 45.491 368.068 39.9456C370.589 33.3507 379.112 31.4689 379.784 31.3299C383.019 30.6622 386.645 32.0348 393.842 34.4629C399.653 36.421 399.327 36.8675 402.434 37.5959C411.088 39.6265 413.497 36.1449 417.274 38.3792C421.425 40.8346 422.386 47.3297 424.303 60.3101C425.069 65.4835 424.973 67.2712 426.646 69.7091C429.546 73.9327 435.214 76.4019 440.705 75.9751C441.724 75.8967 448.281 75.3876 451.64 70.4923C454.959 65.6616 451.773 61.485 451.64 46.9949C451.534 35.4302 453.507 32.17 454.764 30.5467C455.002 30.2392 459.88 24.1182 465.699 25.0639C471.584 26.0195 474.966 33.6385 475.852 38.3792C476.584 42.2954 475.421 43.204 476.633 46.2116C478.223 50.1572 482.641 54.5885 487.568 54.0441C493.262 53.4156 496.031 46.5445 496.159 46.2116C498.672 39.7146 494.293 35.6593 496.94 31.3299C499.186 27.6584 505.311 25.7082 509.437 27.4137C518.087 30.9892 517.404 50.4118 517.248 54.8274C517.084 59.5151 516.506 59.7599 516.467 65.0096C516.41 72.7833 516.365 78.924 519.591 84.5908C522.776 90.1832 530.346 97.4165 537.555 95.5563C544.731 93.7039 547.3 83.9368 547.708 82.241C549.108 76.4372 547.101 74.4575 546.146 64.2263C545.131 53.3411 544.524 46.8441 548.49 41.5121C552.395 36.2546 559.576 33.7169 565.672 34.4629C567.736 34.7155 571.921 35.2285 574.264 38.3792C577.017 42.0996 574.186 45.4166 576.607 50.9111C576.857 51.477 579.595 57.4552 585.199 58.7436C590.332 59.9185 595.608 56.6543 598.476 53.2609C603.891 46.8539 599.587 41.3359 604.725 33.6797C605.061 33.1803 610.911 24.7311 619.565 25.0639C626.342 25.3244 630.872 30.8208 631.28 31.3299C635.486 36.5875 633.614 41.1871 637.529 44.6451C640.528 47.2925 645.486 48.7729 648.463 46.9949C650.322 45.8846 650.197 44.23 653.15 36.0294C654.907 31.1478 655.811 28.6825 657.055 27.4137C660.286 24.1182 665.877 23.0451 670.333 24.2807C677.116 26.1624 680.096 33.0687 682.048 37.5959C686.93 48.9315 684.962 60.5314 684.391 63.4431C682.9 71.0798 680.387 73.7056 681.267 79.8913C681.623 82.3879 682.353 87.6376 686.735 91.64C687.178 92.0434 693.45 97.581 701.574 95.5563C709.018 93.7019 712.152 86.9621 712.509 86.1573C714.719 81.1895 712.665 78.83 712.509 67.3593C712.38 57.8155 712.38 52.9711 715.633 49.3446C719.902 44.5884 726.978 44.6334 728.911 44.6451C731.358 44.6608 737.112 44.698 740.627 48.5614C743.577 51.7962 741.914 54.3633 745.313 58.7436C746.039 59.6796 748.607 62.8948 753.124 64.2263C754.002 64.4848 760.543 66.3137 764.839 62.6598C768.395 59.6326 768.573 54.4064 768.744 49.3446C768.961 42.9768 767.346 41.5846 768.744 38.3792C770.644 34.0204 775.518 32.2659 778.117 31.3299C786.361 28.3614 796.802 35.3401 797.036 32.1132C799.205 2.34974 797.036 0 797.036 0H0V35.2462Z" fill="#FFD101"/>
<path d="M30.6777 67.8901C31.3106 67.3614 32.1394 68.2425 33.9518 68.3953C36.0601 68.5715 38.9658 67.7197 39.9984 66.1278C40.2373 65.7078 40.5853 65.3601 41.0055 65.1213C41.4503 64.8844 42.2262 64.6651 42.6435 64.996C43.2803 65.5012 42.763 67.0344 42.6435 67.3868C41.7892 69.9128 39.3518 71.117 38.9893 71.2893C36.8164 72.3252 34.8394 71.9727 33.8264 71.7926C32.594 71.5733 31.1421 71.3167 30.5504 70.1575C30.18 69.4311 30.131 68.3385 30.6777 67.8901Z" fill="white"/>
<path d="M121.87 66.3801C121.422 67.2044 121.565 68.0308 121.87 69.6521C122.115 70.9405 122.292 71.8784 122.879 73.0513C123.501 74.2947 124.126 75.544 125.525 76.198C126.677 76.7385 128.221 77.038 128.673 76.4506C128.981 76.059 128.924 75.0662 128.924 75.0662C128.924 75.0662 127.407 74.6883 126.532 74.0578C124.933 72.9104 124.792 70.4334 124.768 70.03C124.696 68.769 125.054 68.3656 124.768 67.0086C124.621 66.3155 124.41 65.309 123.761 65.121C123.113 64.933 122.258 65.6712 121.87 66.3801Z" fill="white"/>
<path d="M178.677 49.8911C178.211 51.1815 179.8 52.7617 181.072 53.4157C182.343 54.0697 184.001 54.1421 185.228 53.4157C185.51 53.2473 186.627 52.5874 186.487 51.7787C186.382 51.1619 185.584 50.6646 184.977 50.7723C184.369 50.8799 184.318 51.5809 183.842 51.6534C182.847 51.8042 182.289 48.8553 180.694 48.632C179.865 48.5146 178.942 49.1607 178.677 49.8911Z" fill="white"/>
<path d="M286.155 78.5481C286.145 78.3679 286.102 77.1539 286.743 76.8288C287.207 76.5958 287.801 76.9267 288.255 77.2067C291.073 78.9397 291.414 80.5355 293.42 81.3599C294.694 81.8866 295.891 81.7965 296.694 81.7378C298.027 81.6676 299.323 81.2788 300.474 80.6041C301.22 80.1498 301.485 79.7993 302.363 79.4723C302.639 79.3685 304.171 78.7967 304.504 79.2197C305.07 79.9422 302.519 84.0386 298.458 85.8909C297.37 86.3863 293.939 87.9528 291.026 86.3942C289.066 85.3427 288.042 83.2475 287.248 81.6125C286.776 80.6326 286.41 79.6054 286.155 78.5481Z" fill="white"/>
<path d="M349.605 57.8209C349.372 58.5728 350.61 59.4872 350.739 59.5832C352.019 60.529 353.539 60.4056 354.392 60.3371C355.444 60.2529 356.547 60.1648 357.162 59.3306C357.619 58.7197 357.781 57.7641 357.415 57.443C357.129 57.1923 356.582 57.3784 355.651 57.6936C354.501 58.0852 354.597 58.2673 354.139 58.3241C352.82 58.4866 352.26 56.9378 350.865 57.0651C350.359 57.1101 349.744 57.3725 349.605 57.8209Z" fill="white"/>
<path d="M432.738 67.6389C433.96 66.9085 435.104 68.477 437.65 68.1421C438.302 68.056 439.35 67.9189 439.917 67.1357C440.33 66.5619 440.148 66.1076 440.673 65.4987C441.039 65.0718 441.784 64.5353 442.436 64.7429C443.155 64.9739 443.416 66.0039 443.443 66.6324C443.506 68.3653 441.819 69.6401 441.302 70.0297C438.941 71.8116 436.17 71.4004 435.383 71.2888C434.528 71.1635 432.146 70.813 431.856 69.5265C431.709 68.8862 432.087 68.0266 432.738 67.6389Z" fill="white"/>
<path d="M522.797 66.633C522.394 68.4619 523.097 69.999 524.308 72.5485C525.106 74.2266 525.627 74.861 526.324 75.3172C526.912 75.7089 528.088 76.2708 528.591 75.8205C528.956 75.4896 528.844 74.7043 528.591 74.1854C528.17 73.318 527.48 73.4355 526.702 72.6738C525.505 71.4989 525.458 69.5702 525.443 68.8986C525.413 67.6434 525.758 67.3008 525.443 66.3804C525.18 65.6168 524.537 64.673 523.93 64.7435C523.195 64.8316 522.854 66.3804 522.797 66.633Z" fill="white"/>
<path d="M579.731 49.1344C580.72 49.244 580.757 50.3562 582.123 51.1473C582.472 51.3431 583.495 51.9305 584.517 51.6525C585.438 51.396 585.748 50.6147 586.281 50.7713C586.673 50.8849 586.951 51.4449 586.91 51.9031C586.814 53.0232 584.837 53.5812 584.517 53.6654C582.237 54.2685 580.342 52.986 580.234 52.9096C579.155 52.1538 577.903 50.6362 578.345 49.7629C578.565 49.3282 579.196 49.0737 579.731 49.1344Z" fill="white"/>
<path d="M687.677 77.7095C688.025 77.5261 688.416 77.4389 688.809 77.4569C690.377 77.5568 690.573 79.5051 692.211 80.2257C693.745 80.9032 695.683 80.1238 697.627 79.3445C698.65 78.9294 699.703 78.5929 700.777 78.3381C701.804 78.0952 702.345 78.0463 702.791 78.3381C703.464 78.7806 703.526 79.7636 703.548 80.1003C703.675 82.1172 702.161 84.4395 700.021 85.5125C698.522 86.2664 697.166 86.1803 694.605 86.0177C693.177 85.9257 691.921 85.8337 690.448 85.1366C689.691 84.7763 688.333 84.1105 687.424 82.6185C687.095 82.078 686.605 81.2478 686.67 80.1003C686.731 79.2138 687.085 78.3728 687.677 77.7095Z" fill="white"/>
<path d="M751.286 57.9457C751.031 58.8327 751.993 59.6806 752.168 59.8333C753.169 60.7164 754.474 60.6695 755.191 60.5892C755.826 60.5187 756.539 60.4932 757.08 59.9587C757.472 59.5807 757.832 58.8895 757.583 58.5743C757.413 58.3569 757.009 58.5743 756.073 58.7015C754.985 58.8504 754.176 58.962 753.553 58.5743C752.751 58.0769 752.857 57.1292 752.293 57.0646C751.879 57.0156 751.419 57.4836 751.286 57.9457Z" fill="white"/>
</svg>
