<svg width="181" height="303" viewBox="0 0 181 303" fill="none" xmlns="http://www.w3.org/2000/svg">
    <path d="M27.7999 267.544C27.7999 267.544 22.4499 274.044 20.1499 275.954C17.8499 277.864 6.76989 285.894 2.55989 291.634C-1.65011 297.374 2.94989 303.484 12.8899 301.954C22.8299 300.424 21.2999 295.844 27.0399 293.954C32.7799 292.064 35.8299 289.754 36.5999 282.874C37.3699 275.994 37.3599 269.874 37.3599 269.874L27.7999 267.544Z" fill="white" stroke="#263238" stroke-linecap="round" stroke-linejoin="round"/>
    <path d="M31.2397 281.694L29.3297 277.104C27.4197 272.514 22.4497 274.814 22.4497 274.814L21.5197 274.664C21.0949 275.116 20.6477 275.547 20.1797 275.954C17.8897 277.874 6.79967 285.894 2.58967 291.634C-1.62033 297.374 2.97968 303.484 12.9197 301.954C22.8597 300.424 21.3297 295.844 27.0697 293.954C32.8097 292.064 35.8597 289.754 36.6297 282.874C36.7397 281.874 36.8297 280.874 36.9197 279.874L31.2397 281.694Z" fill="#FFD101" stroke="#263238" stroke-linecap="round" stroke-linejoin="round"/>
    <path d="M35.8897 286.344C33.23 287.55 30.6543 288.933 28.1797 290.484C22.8297 293.924 21.2997 297.374 11.3597 298.484C5.7697 299.134 2.7197 296.874 1.1197 294.774C0.239702 299.344 4.7897 303.174 12.8897 301.924C22.8297 300.404 21.2997 295.814 27.0397 293.924C31.6597 292.384 34.5497 290.634 35.8897 286.344Z" fill="white" stroke="#263238" stroke-linecap="round" stroke-linejoin="round"/>
    <path d="M139.04 267.544C139.04 267.544 144.4 274.044 146.69 275.954C148.98 277.864 160.07 285.894 164.28 291.634C168.49 297.374 163.9 303.484 153.96 301.954C144.02 300.424 145.54 295.844 139.81 293.954C134.08 292.064 131.01 289.754 130.25 282.874C129.49 275.994 129.48 269.874 129.48 269.874L139.04 267.544Z" fill="white" stroke="#263238" stroke-linecap="round" stroke-linejoin="round"/>
    <path d="M135.6 281.694L137.51 277.104C139.43 272.514 144.4 274.814 144.4 274.814L145.33 274.664C145.84 275.184 146.33 275.664 146.69 275.954C148.99 277.874 160.07 285.894 164.28 291.634C168.49 297.374 163.9 303.484 153.96 301.954C144.02 300.424 145.54 295.844 139.81 293.954C134.08 292.064 131.01 289.754 130.25 282.874C130.14 281.874 130.04 280.874 129.96 279.874L135.6 281.694Z" fill="#FFD101" stroke="#263238" stroke-linecap="round" stroke-linejoin="round"/>
    <path d="M130.96 286.344C133.617 287.548 136.19 288.931 138.66 290.484C144.01 293.924 145.54 297.374 155.49 298.484C161.08 299.134 164.13 296.874 165.73 294.774C166.6 299.344 162.06 303.174 153.96 301.924C144.01 300.404 145.54 295.814 139.81 293.924C135.18 292.384 132.3 290.634 130.96 286.344Z" fill="white" stroke="#263238" stroke-linecap="round" stroke-linejoin="round"/>
    <path d="M60.3399 141.684L25.1299 262.954L44.2399 266.394L89.4599 180.564L99.7799 182.094L127.22 275.574L146.72 273.664L131.85 158.504L96.6699 142.064L60.3399 141.684Z" fill="#263238" stroke="#263238" stroke-linecap="round" stroke-linejoin="round"/>
    <path d="M127.64 59.474C127.64 59.474 110.05 52.204 100.87 50.674C91.6897 49.144 85.5797 49.914 81.7597 52.584C77.9397 55.254 75.2597 68.264 77.1697 72.854C78.1644 75.0637 78.9316 77.369 79.4597 79.734C79.4597 79.734 70.2797 120.634 69.8997 122.944C69.5197 125.254 61.4897 127.534 61.4897 129.444C61.4897 131.354 59.1797 143.214 59.1797 143.214C59.1797 143.214 74.0897 150.094 98.1797 155.444C122.27 160.794 132.59 160.444 132.59 160.444C132.59 160.444 132.97 152.804 133.36 147.444C133.75 142.084 131.83 138.274 131.83 137.124C131.83 135.974 145.59 98.504 145.59 98.504L157.83 117.244L154.39 155.864C154.39 155.864 143.3 159.684 142.53 162.744C141.76 165.804 139.86 170.004 139.86 171.924C139.86 173.844 140.24 176.504 143.3 176.124C146.36 175.744 146.36 170.004 146.36 170.004L147.89 168.864L146.36 184.154C146.67 184.999 147.249 185.719 148.007 186.203C148.766 186.687 149.663 186.909 150.56 186.834C154.01 186.834 153.24 183.394 153.24 183.394L158.59 182.624C158.59 182.624 164.71 181.484 166.24 179.564C167.77 177.644 170.06 164.654 170.06 161.564C170.077 159.518 170.207 157.475 170.45 155.444C170.45 155.444 180.77 118.354 179.62 114.154C178.47 109.954 163.18 76.634 160.18 72.854C157.18 69.074 142.18 62.914 137.62 62.144C134.231 61.506 130.895 60.6135 127.64 59.474V59.474Z" fill="#B2B2B2" stroke="#263238" stroke-linecap="round" stroke-linejoin="round"/>
    <path d="M153.26 183.364L156.97 169.954" stroke="#263238" stroke-linecap="round" stroke-linejoin="round"/>
    <path d="M158.61 182.594L162.22 172.244" stroke="#263238" stroke-linecap="round" stroke-linejoin="round"/>
    <path d="M164.19 180.444L166.15 172.904" stroke="#263238" stroke-linecap="round" stroke-linejoin="round"/>
    <path d="M160.18 72.854C157.12 69.034 142.18 62.914 137.62 62.144C134.244 61.5041 130.922 60.6116 127.68 59.474C127.68 59.474 110.09 52.204 100.91 50.674C91.7297 49.144 85.6197 49.914 81.7997 52.584C77.9797 55.254 75.2997 68.264 77.2097 72.854C78.2044 75.0637 78.9716 77.369 79.4997 79.734C79.4997 79.734 70.2797 120.634 69.8997 122.944C69.5197 125.254 61.4897 127.534 61.4897 129.444C61.4897 131.354 59.1797 143.214 59.1797 143.214C59.1797 143.214 74.0897 150.094 98.1797 155.444C122.27 160.794 132.59 160.444 132.59 160.444C132.59 160.444 132.97 152.804 133.36 147.444C133.75 142.084 131.83 138.274 131.83 137.124C131.83 135.974 145.59 98.504 145.59 98.504L153.96 111.324L172.59 97.724C167.76 87.104 161.91 75.064 160.18 72.854Z" fill="white" stroke="#263238" stroke-linecap="round" stroke-linejoin="round"/>
    <path d="M153.98 111.294L172.61 97.694C171.11 94.404 169.51 90.984 167.96 87.754L167.86 87.544C167.6 87.004 167.34 86.474 167.09 85.944C167.03 85.814 166.97 85.684 166.9 85.564L166.22 84.154L166.02 83.744C165.79 83.284 165.58 82.844 165.36 82.414L165.17 82.034L164.47 80.624C164.433 80.5594 164.399 80.4926 164.37 80.424C164.11 79.904 163.85 79.424 163.6 78.914L163.52 78.764C163.31 78.354 163.1 77.964 162.91 77.584L162.68 77.164C162.54 76.884 162.39 76.614 162.25 76.364C162.11 76.114 162.1 76.074 162.02 75.944L161.66 75.284L161.44 74.904L161.12 74.344L160.93 74.034L160.64 73.564L160.5 73.354C160.39 73.1802 160.27 73.0133 160.14 72.854C157.08 69.034 142.14 62.914 137.58 62.144C134.205 61.5041 130.882 60.6116 127.64 59.474C127.64 59.474 110.05 52.204 100.87 50.674C91.6901 49.144 85.5801 49.914 81.7601 52.584C77.9401 55.254 75.2601 68.264 77.1701 72.854C78.1648 75.0637 78.9321 77.369 79.4601 79.734C79.4601 79.734 78.0801 85.904 76.3701 93.574C86.9201 90.444 116.58 80.824 126.88 68.644L129.55 69.034C129.55 69.034 128.92 96.734 138.24 118.724C141.83 108.724 145.61 98.474 145.61 98.474L153.98 111.294Z" fill="#FFD101" stroke="#263238" stroke-linecap="round" stroke-linejoin="round"/>
    <path d="M79.46 79.7341C79.46 79.7341 88.46 79.6641 91.14 65.4141Z" fill="#FFD101"/>
    <path d="M79.46 79.7341C79.46 79.7341 88.46 79.6641 91.14 65.4141" stroke="#263238" stroke-linecap="round" stroke-linejoin="round"/>
    <path d="M152.34 82.354L145.61 98.474L158.88 83.124" fill="#FFD101"/>
    <path d="M152.34 82.354L145.61 98.474L158.88 83.124" stroke="#263238" stroke-linecap="round" stroke-linejoin="round"/>
    <path d="M139.75 62.6341C138.27 62.3641 136.75 62.0341 135.11 61.6341C131.27 60.7441 127.64 59.4541 127.64 59.4541C127.64 59.4541 121.84 57.0541 115.17 54.7241C114.9 63.8541 115.17 81.3941 121.17 85.7241C127.93 90.7241 143.3 72.3341 148.41 65.8341C145.589 64.5982 142.697 63.5297 139.75 62.6341Z" fill="white" stroke="#263238" stroke-linecap="round" stroke-linejoin="round"/>
    <path d="M119.61 52.634C119.61 52.634 116.55 76.344 122.67 81.314C128.79 86.284 146 65.254 146 65.254C146 65.254 126.49 64.444 119.61 52.634Z" fill="#B2B2B2" stroke="#263238" stroke-linecap="round" stroke-linejoin="round"/>
    <path d="M119.08 27.5141C119.08 27.5141 115.23 20.6841 112.24 27.5141C109.25 34.3441 113.53 39.5141 116.94 39.9041C120.35 40.2941 119.08 27.5141 119.08 27.5141Z" fill="#B2B2B2" stroke="#263238" stroke-linecap="round" stroke-linejoin="round"/>
    <path d="M161.26 38.2941C161.26 38.2941 167.98 34.2941 167.21 41.6641C166.44 49.0341 160.21 51.4341 157.02 50.1241C153.83 48.8141 161.26 38.2941 161.26 38.2941Z" fill="#B2B2B2" stroke="#263238" stroke-linecap="round" stroke-linejoin="round"/>
    <path d="M121.18 14.2741C121.18 14.2741 115.63 33.4941 116.06 45.4541C116.49 57.4141 124.17 66.3841 131.06 68.9441C137.95 71.5041 150.71 63.3941 155.41 55.2841C160.11 47.1741 167.41 27.9441 166.51 18.5441C165.61 9.14407 151.99 1.45406 141.74 1.03406C131.49 0.614062 122.92 4.02407 121.18 14.2741Z" fill="#B2B2B2" stroke="#263238" stroke-linecap="round" stroke-linejoin="round"/>
    <path d="M125.06 32.2141C128.281 31.844 131.516 32.7645 134.06 34.7741" stroke="#263238" stroke-width="2" stroke-linecap="round" stroke-linejoin="round"/>
    <path d="M124.63 25.3741C128.327 23.8747 132.463 23.8747 136.16 25.3741" stroke="#263238" stroke-linecap="round" stroke-linejoin="round"/>
    <path d="M144.28 38.634C144.28 38.634 150.69 38.204 153.28 42.474" stroke="#263238" stroke-width="2" stroke-linecap="round" stroke-linejoin="round"/>
    <path d="M147.7 30.5041C149.521 30.4796 151.316 30.9423 152.898 31.8443C154.48 32.7462 155.793 34.0546 156.7 35.6341" stroke="#263238" stroke-linecap="round" stroke-linejoin="round"/>
    <path d="M132.75 39.4741C132.75 39.4741 131.47 42.8941 135.75 44.6041C136.845 45.1298 138.093 45.2464 139.266 44.9328C140.44 44.6191 141.463 43.896 142.15 42.8941" stroke="#263238" stroke-linecap="round" stroke-linejoin="round"/>
    <path d="M143.32 48.634C142.018 49.3577 140.568 49.7737 139.081 49.85C137.594 49.9262 136.109 49.6608 134.74 49.074C131.48 47.734 131.23 45.334 128.37 43.794C125.51 42.254 123.09 44.454 124.19 49.294C125.29 54.134 131.01 56.984 136.5 57.644C141.99 58.304 146.62 55.444 146.84 51.924C147.06 48.404 143.32 48.634 143.32 48.634Z" fill="white" stroke="#263238" stroke-linecap="round" stroke-linejoin="round"/>
    <path d="M124.18 44.7041C126.412 48.6817 130 51.7235 134.29 53.2741C138.295 54.747 142.719 54.589 146.61 52.8341" stroke="#263238" stroke-linecap="round" stroke-linejoin="round"/>
    <path d="M166.49 18.5441C165.64 9.14405 151.97 1.45404 141.72 1.03404C131.47 0.614042 122.92 4.03405 121.21 14.274C121.21 14.274 119.85 18.9941 118.53 25.2141C119.367 24.158 120.342 23.2196 121.43 22.424C125.51 19.364 126.53 20.044 126.53 15.964C126.53 11.884 129.26 7.11405 132.32 6.77405C135.38 6.43405 138.11 7.45405 144.57 10.5141C151.03 13.5741 157.85 12.894 160.91 15.284C163.97 17.674 165.34 21.404 161.91 25.834C158.48 30.264 160.55 32.984 160.55 35.024C160.55 37.064 159.87 41.144 161.55 41.494C164.61 33.314 167 24.1741 166.49 18.5441Z" fill="#263238"/>
    <path d="M59.96 54.5041C59.96 54.5041 60.34 68.2641 63.02 74.0041C65.7 79.7441 74.49 82.0041 81.02 77.0641C87.55 72.1241 85.61 62.9141 83.32 58.3241C81.03 53.7341 79.49 51.0641 79.49 51.0641L59.96 54.5041Z" fill="#B2B2B2" stroke="#263238" stroke-linecap="round" stroke-linejoin="round"/>
    <path d="M83.6698 55.2641L95.5198 46.474C97.0498 45.324 98.5798 41.474 96.2898 39.974C93.9998 38.474 91.2898 41.114 91.2898 41.114C91.2898 41.114 82.8698 45.3241 81.2898 45.3241C79.7098 45.3241 77.4698 40.7341 76.2898 38.8241C75.1098 36.9141 72.5798 23.9141 71.8098 21.6341C71.0398 19.3541 66.0798 20.1041 66.0798 23.5441C66.0798 26.9841 68.3698 36.9341 68.3698 36.9341L63.0198 37.694C63.0198 37.694 58.4298 26.6341 57.2798 24.2941C56.1298 21.9541 51.1698 22.7641 51.9298 25.8241C52.6898 28.8841 56.9298 39.974 56.9298 39.974H53.8398C53.8398 39.974 46.5798 31.1741 45.0498 30.7941C43.5198 30.4141 41.9898 32.7041 44.6698 36.5241C47.3498 40.3441 50.7798 44.5241 50.7798 44.5241C50.7798 44.5241 42.7798 43.7641 41.6098 43.3841C40.4398 43.0041 37.7798 46.054 40.8398 47.584C43.813 48.8454 46.8829 49.8654 50.0198 50.6341C50.0198 50.6341 55.3698 57.9041 60.7298 57.1341C63.7444 56.7428 66.6976 55.9734 69.5198 54.8441C69.5198 54.8441 74.8698 59.0941 83.6698 55.2641Z" fill="#B2B2B2" stroke="#263238" stroke-linecap="round" stroke-linejoin="round"/>
    <path d="M121.87 264.864L126.07 275.954L147.87 274.044V257.604L121.87 264.864Z" fill="white" stroke="#263238" stroke-linecap="round" stroke-linejoin="round"/>
    <path d="M24.3601 257.604L22.8301 268.314L41.5701 274.424L50.3601 261.424L24.3601 257.604Z" fill="white" stroke="#263238" stroke-linecap="round" stroke-linejoin="round"/>
    </svg>
    