<svg width="129" height="312" viewBox="0 0 129 312" fill="none" xmlns="http://www.w3.org/2000/svg">
    <path d="M80.7704 13.9488C80.7704 13.9488 77.9403 -0.921222 58.8203 1.20878C39.7003 3.33878 28.7303 28.8188 29.8203 36.6088C30.9103 44.3988 31.5904 71.6088 31.5904 71.6088L69.8304 88.6088L95.2903 73.7688L96.3503 36.5888C96.3503 36.5888 97.0604 11.4688 80.7704 13.9488Z" fill="#263238" stroke="#263238" stroke-linecap="round" stroke-linejoin="round"/>
    <path d="M35.1001 287.279C35.1001 287.279 29.4301 292.949 21.6401 300.029C13.8501 307.109 20.2301 312.779 30.1401 311.029C40.0501 309.279 46.0701 298.629 46.0701 298.629C46.0701 298.629 51.7401 296.159 51.7401 291.199C51.7401 286.239 39.3501 284.099 35.1001 287.279Z" fill="white" stroke="#263238" stroke-linecap="round" stroke-linejoin="round"/>
    <path d="M90.0404 287.279C90.0404 287.279 95.7104 292.949 103.5 300.029C111.29 307.109 104.91 312.779 95.0004 311.029C85.0904 309.279 79.0704 298.629 79.0704 298.629C79.0704 298.629 73.4004 296.159 73.4004 291.199C73.4004 286.239 85.7904 284.099 90.0404 287.279Z" fill="white" stroke="#263238" stroke-linecap="round" stroke-linejoin="round"/>
    <path d="M28.7305 163.359C28.7305 163.359 32.6205 227.089 33.3305 238.069C34.0405 249.049 35.8105 276.659 35.8105 276.659C35.8105 276.659 32.9705 281.269 32.9705 283.039C32.9705 284.809 33.3305 289.409 33.3305 289.409C33.3305 289.409 39.3305 291.889 42.1805 292.239C45.0305 292.589 52.0905 293.659 52.0905 293.659C52.0905 293.659 53.5105 287.659 52.8005 284.099C52.0905 280.539 51.3905 276.659 51.3905 276.659C51.3905 276.659 53.1605 271.349 53.1605 268.159C53.1605 264.969 52.8005 263.209 52.8005 261.079C52.8005 258.949 60.2405 189.209 60.2405 189.209H63.7805C63.7805 189.209 69.7805 264.979 70.1505 266.389C70.5205 267.799 69.4405 272.059 70.5005 274.539C71.3508 276.735 72.0622 278.983 72.6305 281.269C71.8262 283.305 71.347 285.454 71.2105 287.639C71.3077 289.798 71.667 291.937 72.2805 294.009C74.8635 294.294 77.4621 294.415 80.0605 294.369C85.3805 294.369 92.4605 289.759 92.4605 289.759C92.4605 289.759 91.3905 281.269 91.0405 278.759C90.6905 276.249 89.9805 272.759 89.9805 271.319V261.409C89.9805 259.989 90.3305 253.969 90.3305 253.969L93.5205 164.039L58.4705 145.629L28.7305 163.359Z" fill="#263238" stroke="#263238" stroke-linecap="round" stroke-linejoin="round"/>
    <path d="M54.8903 67.4087C54.8903 67.4087 41.7903 64.2287 35.0603 66.7087C28.3303 69.1887 18.4202 79.0987 15.9402 81.9287C13.4602 84.7587 6.03027 95.0287 6.03027 95.0287L15.9402 103.879L33.2903 93.9687L35.7703 113.089L13.8903 155.569C13.8903 155.569 29.4603 171.859 58.8903 172.919C88.3203 173.979 111.29 158.049 111.29 158.049L89.2703 111.669L89.6203 89.3687L110.89 104.589L121.49 90.0687C121.49 90.0687 108.74 75.9087 101.31 70.9487C93.8803 65.9887 82.5403 67.0587 75.1103 67.0587C67.6803 67.0587 56.3403 67.7687 56.3403 67.7687L54.8903 67.4087Z" fill="#FF9A00"/>
    <path d="M54.8903 67.4087C54.8903 67.4087 41.7903 64.2287 35.0603 66.7087C28.3303 69.1887 18.4202 79.0987 15.9402 81.9287C13.4602 84.7587 6.03027 95.0287 6.03027 95.0287L15.9402 103.879L33.2903 93.9687L35.7703 113.089L13.8903 155.569C13.8903 155.569 29.4603 171.859 58.8903 172.919C88.3203 173.979 111.29 158.049 111.29 158.049L89.2703 111.669L89.6203 89.3687L110.89 104.589L121.49 90.0687C121.49 90.0687 108.74 75.9087 101.31 70.9487C93.8803 65.9887 82.5403 67.0587 75.1103 67.0587C67.6803 67.0587 56.3403 67.7687 56.3403 67.7687L54.8903 67.4087Z" stroke="#263238" stroke-linecap="round" stroke-linejoin="round"/>
    <path d="M83.3701 45.2788C83.3701 45.2788 87.1201 38.4588 90.1901 43.9188C93.2601 49.3788 87.4601 54.8288 84.7301 56.5388C82.0001 58.2488 83.3701 45.2788 83.3701 45.2788Z" fill="white" stroke="#263238" stroke-linecap="round" stroke-linejoin="round"/>
    <path d="M53.1602 66.7087L54.5702 82.2787C55.4198 84.421 56.8994 86.2551 58.8134 87.5389C60.7273 88.8226 62.9857 89.4955 65.2902 89.4687C73.8802 89.4687 75.8202 80.4687 75.8202 80.4687L77.5902 64.1887C77.5902 64.1887 63.4202 68.1187 53.1602 66.7087Z" fill="white" stroke="#263238" stroke-linecap="round" stroke-linejoin="round"/>
    <path d="M68.6402 30.2588C68.6402 30.2588 49.8702 38.1088 42.0302 40.1488L42.7102 46.2888C42.7102 46.2888 38.6202 41.1788 35.5502 45.6088C32.4802 50.0388 35.8902 55.1588 38.9602 57.5488C42.0302 59.9388 44.0702 57.8888 44.0702 57.8888C44.0702 57.8888 47.4902 68.8088 56.7002 73.2488C65.9102 77.6888 76.5802 75.4488 81.3502 64.5288C83.7702 59.0088 85.4402 49.6588 84.9102 40.8888C75.1202 40.4988 68.6402 30.2588 68.6402 30.2588Z" fill="white" stroke="#263238" stroke-linecap="round" stroke-linejoin="round"/>
    <path d="M61.4404 51.9088C61.4404 51.9088 64.1704 55.6688 68.9504 51.9088" stroke="#263238" stroke-linecap="round" stroke-linejoin="round"/>
    <path d="M57.5202 48.6388C58.2713 48.6388 58.8802 47.5822 58.8802 46.2788C58.8802 44.9754 58.2713 43.9188 57.5202 43.9188C56.7691 43.9188 56.1602 44.9754 56.1602 46.2788C56.1602 47.5822 56.7691 48.6388 57.5202 48.6388Z" fill="#263238"/>
    <path d="M70.6002 48.6388C71.3513 48.6388 71.9602 47.5822 71.9602 46.2788C71.9602 44.9754 71.3513 43.9188 70.6002 43.9188C69.8491 43.9188 69.2402 44.9754 69.2402 46.2788C69.2402 47.5822 69.8491 48.6388 70.6002 48.6388Z" fill="#263238"/>
    <path d="M50.5903 41.3387C50.5903 41.3387 54.3403 37.5787 59.1203 38.9487" stroke="#263238" stroke-linecap="round" stroke-linejoin="round"/>
    <path d="M68.9502 38.9488C68.9502 38.9488 74.7502 36.5588 77.1402 41.6788" stroke="#263238" stroke-linecap="round" stroke-linejoin="round"/>
    <path d="M59.9404 57.1288C59.9404 57.1288 61.0604 64.3388 64.4904 65.2888C69.4904 66.6788 70.6604 57.0288 70.6604 57.0288L59.9404 57.1288Z" fill="#263238" stroke="#263238" stroke-linecap="round" stroke-linejoin="round"/>
    <path d="M48.6902 52.3988C48.6902 52.3988 48.3802 52.6188 47.8802 53.0088C46.2502 54.2888 42.5802 57.3888 40.8802 60.4788C38.7002 64.4788 37.4603 73.8588 35.8802 76.0388C34.3002 78.2188 8.89026 87.8588 4.20026 91.5888C-0.489744 95.3188 -0.799728 107.459 8.56027 107.769C17.9203 108.079 21.3103 104.039 26.5603 100.309C31.8103 96.5788 40.2502 85.6788 40.2502 85.6788C40.2502 85.6788 48.9603 81.9488 50.8303 77.9088C52.7003 73.8688 53.2702 65.5688 53.9402 64.8388C56.4902 62.0588 58.6003 58.3088 58.6003 55.5088C58.6003 52.7088 54.6002 49.2788 48.6902 52.3988Z" fill="white" stroke="#263238" stroke-linecap="round" stroke-linejoin="round"/>
    <path d="M58.3804 55.0587C58.3804 55.0587 57.5304 53.4887 56.1004 55.0587C54.6704 56.6287 49.1004 61.6287 48.6704 62.4887" stroke="#263238" stroke-linecap="round" stroke-linejoin="round"/>
    <path d="M56.5304 52.3388C56.5304 52.3388 54.9504 51.4888 54.1004 52.3388C53.2504 53.1888 47.5204 57.6288 46.6704 59.1988C46.2598 59.877 45.9245 60.5979 45.6704 61.3488" stroke="#263238" stroke-linecap="round" stroke-linejoin="round"/>
    <path d="M49.2402 52.3387C49.2402 52.3387 44.8102 56.3387 42.9502 60.1987" stroke="#263238" stroke-linecap="round" stroke-linejoin="round"/>
    <path d="M80.7203 52.3988C80.7203 52.3988 81.0304 52.6188 81.5304 53.0088C83.1604 54.2888 86.8304 57.3888 88.5304 60.4788C90.7104 64.4788 91.9504 73.8588 93.5304 76.0388C95.1104 78.2188 120.59 87.8588 125.26 91.5888C129.93 95.3188 130.26 107.459 120.9 107.769C111.54 108.079 108.15 104.039 102.9 100.309C97.6504 96.5788 89.2104 85.6788 89.2104 85.6788C89.2104 85.6788 80.5003 81.9488 78.6303 77.9088C76.7603 73.8688 76.1904 65.5688 75.5204 64.8388C72.9704 62.0588 70.8604 58.3088 70.8604 55.5088C70.8604 52.7088 74.8103 49.2788 80.7203 52.3988Z" fill="white" stroke="#263238" stroke-linecap="round" stroke-linejoin="round"/>
    <path d="M71.0303 55.0587C71.0303 55.0587 71.8803 53.4887 73.3103 55.0587C74.7403 56.6287 80.3103 61.6287 80.7403 62.4887" stroke="#263238" stroke-linecap="round" stroke-linejoin="round"/>
    <path d="M72.8901 52.3388C72.8901 52.3388 74.4701 51.4888 75.3201 52.3388C76.1701 53.1888 81.9001 57.6288 82.7501 59.1988C83.1607 59.877 83.496 60.5979 83.7501 61.3488" stroke="#263238" stroke-linecap="round" stroke-linejoin="round"/>
    <path d="M80.1704 52.3387C80.1704 52.3387 84.6004 56.3387 86.4604 60.1987" stroke="#263238" stroke-linecap="round" stroke-linejoin="round"/>
    </svg>