<svg width="158" height="316" viewBox="0 0 158 316" fill="none" xmlns="http://www.w3.org/2000/svg">
    <path d="M29.803 146.418L18.613 177.058C18.613 177.058 25.733 183.968 25.213 186.588C24.693 189.208 24.653 193.108 23.963 194.588C23.273 196.068 22.023 197.958 19.823 196.588C17.623 195.218 19.673 190.808 19.673 190.808L18.923 189.378L14.603 201.598C14.0612 202.133 13.359 202.475 12.604 202.573C11.849 202.67 11.0829 202.517 10.423 202.138C7.79298 200.908 9.61299 198.548 9.61299 198.548L5.80299 196.038C5.80299 196.038 1.53299 192.958 1.05299 190.948C0.572988 188.938 3.48299 178.158 4.58299 175.818C5.30591 174.247 5.94351 172.638 6.49299 170.998C6.49299 170.998 10.573 146.848 13.213 138.618L29.803 146.418Z" fill="white" stroke="#263238" stroke-linecap="round" stroke-linejoin="round"/>
    <path d="M9.61279 198.548L11.5928 186.948" stroke="#263238" stroke-linecap="round" stroke-linejoin="round"/>
    <path d="M5.7832 196.038L6.7532 186.818" stroke="#263238" stroke-linecap="round" stroke-linejoin="round"/>
    <path d="M2.29297 192.388L3.50296 185.908" stroke="#263238" stroke-linecap="round" stroke-linejoin="round"/>
    <path d="M37.7129 290.418C37.7129 290.418 27.0929 300.188 23.2729 305.278C19.4529 310.368 25.4029 314.618 33.8929 315.048C42.3829 315.478 49.1729 306.558 54.6929 303.578C60.2129 300.598 61.9129 300.188 61.9129 290.838C61.9129 281.488 37.7129 290.418 37.7129 290.418Z" fill="white" stroke="#263238" stroke-linecap="round" stroke-linejoin="round"/>
    <path d="M54.6931 303.578C58.8631 301.338 60.8531 300.578 61.5731 296.258C58.8037 297.276 56.222 298.746 53.9331 300.608C50.5531 303.768 41.9331 312.848 33.4631 311.998C24.9931 311.148 22.4631 307.568 22.4631 307.568L22.2031 307.468C21.2731 311.548 26.6331 314.688 33.8731 315.048C42.3831 315.498 49.1731 306.558 54.6931 303.578Z" fill="white" stroke="#263238" stroke-linecap="round" stroke-linejoin="round"/>
    <path d="M40.2631 183.418L37.7131 272.158L33.8931 278.498L36.0131 292.088C36.0131 292.088 39.4131 294.638 47.0131 296.328C52.3467 297.442 57.7543 298.168 63.1931 298.498C63.1931 298.498 65.7331 280.238 64.8831 275.988C64.0331 271.738 63.6131 268.348 63.6131 268.348L65.3131 197.008L65.7331 186.398L40.2631 183.418Z" fill="#263238" stroke="#263238" stroke-linecap="round" stroke-linejoin="round"/>
    <path d="M101.313 290.418C101.313 290.418 111.933 300.188 115.753 305.278C119.573 310.368 113.623 314.618 105.133 315.048C96.6428 315.478 89.8528 306.558 84.3328 303.578C78.8128 300.598 77.1128 300.188 77.1128 290.838C77.1128 281.488 101.313 290.418 101.313 290.418Z" fill="white" stroke="#263238" stroke-linecap="round" stroke-linejoin="round"/>
    <path d="M84.3329 303.578C80.1629 301.338 78.1729 300.578 77.4429 296.258C80.2165 297.274 82.8018 298.744 85.0929 300.608C88.4629 303.768 97.0929 312.848 105.563 311.998C114.033 311.148 116.563 307.568 116.563 307.568L116.823 307.468C117.753 311.548 112.393 314.688 105.153 315.048C96.6429 315.498 89.8529 306.558 84.3329 303.578Z" fill="white" stroke="#263238" stroke-linecap="round" stroke-linejoin="round"/>
    <path d="M98.8032 183.418L101.353 272.158L105.173 278.528L103.053 292.118C103.053 292.118 99.6532 294.668 92.0532 296.358C86.6958 297.466 81.2647 298.181 75.8032 298.498C75.8032 298.498 73.2632 280.238 74.1032 275.988C74.9432 271.738 75.3832 268.348 75.3832 268.348L73.6832 197.008L73.2632 186.398L98.8032 183.418Z" fill="#263238" stroke="#263238" stroke-linecap="round" stroke-linejoin="round"/>
    <path d="M58.5631 84.7678C58.5631 84.7678 33.1931 91.1178 31.7831 93.2278C30.3731 95.3378 14.1631 136.568 14.1631 136.568L29.6731 142.918L37.8031 128.498L36.3931 184.878L64.5831 204.258L70.5831 196.148L74.4631 204.258L102.653 185.578L98.4231 123.208L113.223 132.018L120.273 115.108C120.273 115.108 102.653 87.6178 97.3631 86.9178C92.0731 86.2178 76.2231 83.3878 69.1731 83.7478C65.618 83.8561 62.0737 84.1968 58.5631 84.7678Z" fill="#F2805F" stroke="#263238" stroke-linecap="round" stroke-linejoin="round"/>
    <path d="M72.0632 103.128L71.2432 191.288" stroke="#263238" stroke-linecap="round" stroke-linejoin="round"/>
    <path d="M37.7729 128.468L35.7329 103.538" stroke="#263238" stroke-linecap="round" stroke-linejoin="round"/>
    <path d="M98.3831 123.178L98.1831 99.4578" stroke="#263238" stroke-linecap="round" stroke-linejoin="round"/>
    <path d="M75.7329 109.248C75.7349 109.492 75.6642 109.731 75.5298 109.935C75.3954 110.139 75.2034 110.298 74.9782 110.392C74.7531 110.487 74.505 110.512 74.2654 110.465C74.0259 110.418 73.8058 110.3 73.6332 110.128C73.4606 109.955 73.3432 109.735 73.2961 109.495C73.249 109.256 73.2742 109.008 73.3685 108.783C73.4628 108.557 73.622 108.365 73.8258 108.231C74.0296 108.097 74.2688 108.026 74.5129 108.028C74.8357 108.03 75.1445 108.16 75.3727 108.388C75.6009 108.616 75.7303 108.925 75.7329 109.248Z" fill="#263238"/>
    <path d="M75.7329 137.008C75.7329 137.252 75.6605 137.49 75.5249 137.692C75.3893 137.895 75.1966 138.052 74.9713 138.145C74.746 138.238 74.4981 138.262 74.2593 138.213C74.0204 138.165 73.8013 138.047 73.6297 137.874C73.4581 137.701 73.3417 137.481 73.2954 137.242C73.2491 137.002 73.2748 136.755 73.3695 136.53C73.4641 136.306 73.6233 136.114 73.8269 135.98C74.0305 135.846 74.2692 135.776 74.5129 135.778C74.674 135.778 74.8335 135.81 74.9821 135.872C75.1308 135.934 75.2658 136.024 75.3792 136.139C75.4926 136.253 75.5823 136.389 75.643 136.538C75.7037 136.687 75.7343 136.847 75.7329 137.008Z" fill="#263238"/>
    <path d="M75.7329 164.758C75.7349 165.002 75.6642 165.241 75.5298 165.445C75.3954 165.649 75.2034 165.808 74.9782 165.902C74.7531 165.997 74.505 166.022 74.2654 165.975C74.0259 165.928 73.8058 165.81 73.6332 165.638C73.4606 165.465 73.3432 165.245 73.2961 165.005C73.249 164.766 73.2742 164.518 73.3685 164.293C73.4628 164.067 73.622 163.875 73.8258 163.741C74.0296 163.607 74.2688 163.536 74.5129 163.538C74.8357 163.54 75.1445 163.67 75.3727 163.898C75.6009 164.126 75.7303 164.435 75.7329 164.758Z" fill="#263238"/>
    <path d="M75.7329 192.498C75.7329 192.742 75.6605 192.98 75.5249 193.182C75.3893 193.385 75.1966 193.542 74.9713 193.635C74.746 193.728 74.4981 193.752 74.2593 193.703C74.0204 193.655 73.8013 193.537 73.6297 193.364C73.4581 193.191 73.3417 192.971 73.2954 192.732C73.2491 192.492 73.2748 192.245 73.3695 192.02C73.4641 191.796 73.6233 191.604 73.8269 191.47C74.0305 191.336 74.2692 191.266 74.5129 191.268C74.674 191.268 74.8335 191.3 74.9821 191.362C75.1308 191.424 75.2658 191.514 75.3792 191.629C75.4926 191.743 75.5823 191.879 75.643 192.028C75.7037 192.177 75.7343 192.337 75.7329 192.498Z" fill="#263238"/>
    <path d="M64.5531 78.4278C64.5531 78.4278 58.5531 78.7778 58.5531 80.5378C58.5531 82.2978 52.9131 88.2978 52.9131 88.2978C52.9131 88.2978 53.9731 107.298 55.0331 108.378C56.0931 109.458 73.0331 94.6378 73.0331 94.6378C73.0331 94.6378 87.8331 107.328 88.8931 107.638C89.9531 107.948 88.1831 90.7178 86.4231 86.8478C84.6631 82.9778 80.4231 78.7378 77.2631 78.3878C74.1031 78.0378 64.5531 78.4278 64.5531 78.4278Z" fill="white" stroke="#263238" stroke-linecap="round" stroke-linejoin="round"/>
    <path d="M61.0332 72.7878C61.0332 72.7878 61.7332 86.1778 62.7932 88.6478C63.8532 91.1178 71.6032 102.738 73.3632 102.038C75.1232 101.338 81.4732 89.0378 81.4732 86.8878C81.4732 84.7378 82.8832 74.1978 82.8832 74.1978C82.8832 74.1978 69.1332 75.9578 61.0332 72.7878Z" fill="white" stroke="#263238" stroke-linecap="round" stroke-linejoin="round"/>
    <path d="M82.3232 78.4978C82.6232 76.1178 82.8832 74.1778 82.8832 74.1778C82.8832 74.1778 69.1332 75.9378 61.0332 72.7678C61.0332 72.7678 61.1532 75.0278 61.3632 77.8578C61.7165 78.0578 62.0765 78.2478 62.4432 78.4278C68.7332 81.4978 76.4132 81.8578 82.3232 78.4978Z" fill="#263238" stroke="#263238" stroke-linecap="round" stroke-linejoin="round"/>
    <path d="M12.1831 131.638L10.6431 143.268L31.8431 148.908L35.3031 137.978L12.1831 131.638Z" fill="white" stroke="#263238" stroke-linecap="round" stroke-linejoin="round"/>
    <path d="M117.933 108.628C117.933 108.628 110.983 115.628 108.423 119.958C106.518 123.395 104.809 126.938 103.303 130.568L112.813 137.568L127.443 114.568C127.443 114.568 119.033 108.258 117.933 108.628Z" fill="white" stroke="#263238" stroke-linecap="round" stroke-linejoin="round"/>
    <path d="M127.923 94.1878C127.923 94.1878 125.183 88.0878 125.183 85.0378C125.183 81.9878 128.843 71.9278 128.843 71.0378C128.843 70.1478 131.583 67.9878 132.193 71.0378C132.538 73.2611 132.538 75.5244 132.193 77.7478L133.113 80.4878L139.583 69.4978C139.811 68.9929 140.194 68.5732 140.675 68.2984C141.156 68.0236 141.712 67.9079 142.263 67.9678C144.563 68.2278 143.543 71.2878 143.543 71.2878L140.173 80.6078L140.123 80.7378L146.523 68.8478C146.523 68.8478 149.103 67.7378 150.523 69.3778C151.673 70.6578 150.273 72.4478 150.273 72.4478L144.943 83.7878L151.543 74.4478C151.729 74.1758 151.987 73.9612 152.289 73.8281C152.59 73.695 152.923 73.6487 153.249 73.6944C153.576 73.7402 153.883 73.8761 154.136 74.0869C154.389 74.2978 154.579 74.5751 154.683 74.8878V74.9478C155.293 77.0878 149.503 85.6178 149.503 85.6178L153.803 82.2978C153.803 82.2978 155.943 79.8578 156.553 82.5978C156.695 83.3256 156.586 84.0802 156.243 84.7378C155.593 85.7378 148.013 92.6578 148.013 92.6578C148.013 92.6578 142.533 96.9278 141.613 97.5378C140.551 98.0165 139.421 98.3237 138.263 98.4478C138.263 98.4478 134.113 126.178 131.983 130.748C129.853 135.318 123.433 139.378 119.363 138.978C115.293 138.578 108.943 134.048 111.683 125.818C114.423 117.588 127.923 94.1878 127.923 94.1878Z" fill="white" stroke="#263238" stroke-linecap="round" stroke-linejoin="round"/>
    <path d="M133.113 80.4978C133.113 80.4978 135.543 84.7678 135.853 86.8978C136.163 89.0278 134.933 92.6878 134.933 92.6878" fill="white"/>
    <path d="M133.113 80.4978C133.113 80.4978 135.543 84.7678 135.853 86.8978C136.163 89.0278 134.933 92.6878 134.933 92.6878" stroke="#263238" stroke-linecap="round" stroke-linejoin="round"/>
    <path d="M92.743 17.4978C92.743 17.4978 93.453 10.7978 86.743 5.49782C80.033 0.19782 75.1131 0.207822 75.4731 2.32782C75.7615 3.73368 76.363 5.05645 77.233 6.19782C77.233 6.19782 61.723 0.197817 51.153 5.19782C40.583 10.1978 38.483 18.4978 40.593 18.4978C41.6935 18.441 42.7888 18.6829 43.763 19.1978C43.763 19.1978 34.953 30.1278 34.603 35.7578C34.253 41.3878 39.893 42.8078 39.893 42.8078L43.063 50.5578C43.063 50.5578 50.063 54.7878 52.223 52.3178C54.383 49.8478 51.513 44.2178 53.283 43.1578C55.053 42.0978 71.2831 34.7078 71.2831 34.7078C72.4973 35.8563 73.9422 36.7329 75.5216 37.2795C77.101 37.8261 78.7787 38.0301 80.4431 37.8778C86.4431 37.5278 88.1931 34.3478 88.1931 34.3478L91.013 44.9178C91.013 44.9178 99.123 41.3978 99.823 36.4678C100.172 32.93 99.935 29.3588 99.123 25.8978C99.123 25.8978 106.123 25.8978 102.643 20.9578C99.163 16.0178 92.743 17.4978 92.743 17.4978Z" fill="#263238" stroke="#263238" stroke-linecap="round" stroke-linejoin="round"/>
    <path d="M90.3432 46.4378C90.3432 46.4378 94.2132 39.3878 97.3432 45.0278C100.473 50.6678 94.5232 56.2978 91.7032 58.0278C88.8832 59.7578 90.3432 46.4378 90.3432 46.4378Z" fill="white" stroke="#263238" stroke-linecap="round" stroke-linejoin="round"/>
    <path d="M90.2833 26.2778C90.2833 26.2778 86.7532 33.3278 80.4132 35.4378C74.0732 37.5478 75.1232 31.5578 75.1232 31.5578C75.1232 31.5578 55.7432 39.6678 47.6432 41.7778L48.3432 48.1278C48.3432 48.1278 44.1132 42.8378 40.9432 47.4178C37.7732 51.9978 41.3032 57.2878 44.4732 59.7478C47.6432 62.2078 49.7532 60.1078 49.7532 60.1078C49.7532 60.1078 53.2833 71.3778 62.7533 75.9578C72.2233 80.5378 84.9532 79.1378 89.8832 67.8578C94.8132 56.5778 90.2833 26.2778 90.2833 26.2778Z" fill="white" stroke="#263238" stroke-linecap="round" stroke-linejoin="round"/>
    <path d="M68.1929 53.6378C68.1929 53.6378 71.0129 57.5178 75.9429 53.6378" stroke="#263238" stroke-linecap="round" stroke-linejoin="round"/>
    <path d="M66.0831 47.8278C66.0831 49.6778 65.2131 51.1778 64.1431 51.1778C63.0731 51.1778 62.2031 49.6778 62.2031 47.8278C62.2031 45.9778 63.0731 44.4778 64.1431 44.4778C65.2131 44.4778 66.0831 45.9778 66.0831 47.8278Z" fill="#263238"/>
    <path d="M81.0531 48.3578C81.0531 50.2078 80.1931 51.7078 79.1231 51.7078C78.0531 51.7078 77.1831 50.2078 77.1831 48.3578C77.1831 46.5078 78.0531 45.0078 79.1231 45.0078C80.1931 45.0078 81.0531 46.4978 81.0531 48.3578Z" fill="#263238"/>
    <path d="M59.0332 42.7179C59.0332 42.7179 62.9132 38.8379 67.8432 40.2479" stroke="#263238" stroke-width="2" stroke-linecap="round" stroke-linejoin="round"/>
    <path d="M75.9429 40.2478C75.9429 40.2478 81.9429 37.7878 84.4029 43.0678" stroke="#263238" stroke-width="2" stroke-linecap="round" stroke-linejoin="round"/>
    <path d="M66.8032 59.6279C66.8032 59.6279 73.1532 62.4479 77.7332 58.9279" stroke="#263238" stroke-linecap="round" stroke-linejoin="round"/>
    </svg>