<svg width="310" height="213" viewBox="0 0 310 213" fill="none" xmlns="http://www.w3.org/2000/svg">
<path d="M49.6111 69.1501L48.7253 69.4263C48.5854 69.4759 48.4715 69.5777 48.4076 69.7103C48.3436 69.8428 48.3346 69.9959 48.3824 70.1373C48.4336 70.2713 48.5348 70.3815 48.6649 70.4449C48.7949 70.5084 48.9436 70.52 49.0798 70.4774L49.9655 70.2012C50.6826 69.9776 51.8214 69.6225 53.3188 69.1556C53.4586 69.112 53.574 69.0148 53.6397 68.8854C53.7053 68.756 53.7158 68.6051 53.6688 68.4657C53.6517 68.395 53.6196 68.3285 53.5747 68.2705C53.5297 68.2126 53.473 68.1646 53.4082 68.1298C53.3435 68.0949 53.2723 68.0741 53.1994 68.0686C53.1264 68.0631 53.0535 68.0731 52.9854 68.0979C51.467 68.5714 50.3281 68.9265 49.6111 69.1501ZM57.253 66.9299C57.1167 66.9722 57.0033 67.0656 56.9368 67.1903C56.8702 67.315 56.8555 67.4614 56.8959 67.5988C56.942 67.7369 57.0388 67.8537 57.1668 67.9258C57.2949 67.9979 57.4447 68.02 57.5863 67.9876C58.8728 67.5864 60.2858 67.1458 61.8609 66.8406C61.9328 66.8246 62.0003 66.7939 62.059 66.7505C62.1177 66.707 62.1663 66.6518 62.2019 66.5883C62.2375 66.5248 62.2591 66.4543 62.2655 66.3815C62.2719 66.3086 62.263 66.2349 62.2391 66.165C62.2215 66.0935 62.1891 66.0261 62.1439 65.967C62.0988 65.908 62.042 65.8586 61.9771 65.8221C61.9121 65.7855 61.8405 65.7625 61.7668 65.7547C61.693 65.7468 61.6187 65.7541 61.5487 65.7763C60.0091 66.2563 58.5536 66.5708 57.274 66.9233L57.253 66.9299ZM65.8164 64.6779C65.6766 64.7215 65.5611 64.8186 65.4955 64.948C65.4298 65.0774 65.4194 65.2284 65.4664 65.3678C65.5134 65.5072 65.614 65.6236 65.7461 65.6913C65.8782 65.759 66.031 65.7726 66.1708 65.729L70.4809 64.6871C70.5511 64.6683 70.6166 64.6359 70.6736 64.5918C70.7306 64.5477 70.778 64.4927 70.8132 64.4299C70.8483 64.3672 70.8704 64.2979 70.8783 64.2261C70.8862 64.1544 70.8796 64.0815 70.8591 64.0116C70.8191 63.8737 70.727 63.7555 70.6022 63.6818C70.4773 63.608 70.3295 63.5845 70.1897 63.6162L65.8797 64.6581L65.8164 64.6779ZM74.4507 62.6361C74.3177 62.6771 74.2063 62.7666 74.1388 62.8867C74.0713 63.0068 74.0526 63.1487 74.0865 63.284C74.1269 63.4242 74.2191 63.5451 74.3447 63.6224C74.4702 63.6997 74.6197 63.7275 74.763 63.7004L79.1014 62.7426C79.242 62.7118 79.3638 62.6278 79.441 62.5083C79.5182 62.3888 79.5447 62.2432 79.5149 62.1025C79.4789 61.957 79.3874 61.83 79.2598 61.7484C79.1322 61.6667 78.9785 61.6368 78.8313 61.6651L74.4929 62.6229L74.4507 62.6361ZM83.1488 60.7835C83.009 60.8271 82.8936 60.9243 82.8279 61.0537C82.7623 61.1831 82.7518 61.3341 82.7988 61.4735C82.8458 61.6129 82.9464 61.7292 83.0785 61.7969C83.2107 61.8647 83.3634 61.8782 83.5033 61.8346L87.8771 60.9819C87.9483 60.9694 88.0157 60.9427 88.0755 60.9033C88.1352 60.8639 88.186 60.8127 88.2247 60.7528C88.2634 60.6929 88.2892 60.6256 88.3005 60.5549C88.3118 60.4843 88.3085 60.4118 88.2906 60.3419C88.2761 60.27 88.2474 60.2015 88.2062 60.1401C88.1649 60.0788 88.1119 60.0259 88.0503 59.9846C87.9886 59.9433 87.9196 59.9144 87.8471 59.8995C87.7746 59.8846 87.7002 59.8841 87.6281 59.8979L83.2543 60.7506L83.1488 60.7835ZM91.9178 59.1412C91.7904 59.1804 91.6837 59.266 91.6188 59.381C91.5539 59.4959 91.5356 59.6318 91.5676 59.7615C91.5955 59.9035 91.6782 60.0303 91.7981 60.1145C91.9181 60.1987 92.0656 60.2337 92.209 60.212L96.6112 59.4434C96.6846 59.4337 96.755 59.4096 96.8182 59.3724C96.8814 59.3352 96.9362 59.2857 96.9793 59.2268C97.0225 59.1678 97.053 59.1007 97.0693 59.0294C97.0855 58.958 97.0871 58.8838 97.0739 58.8112C97.0595 58.7394 97.0308 58.6708 96.9895 58.6095C96.9483 58.5481 96.8953 58.4953 96.8336 58.454C96.772 58.4126 96.703 58.3837 96.6305 58.3688C96.558 58.354 96.4836 58.3534 96.4115 58.3673L92.0022 59.1149L91.9178 59.1412ZM100.751 57.688C100.626 57.7296 100.521 57.8123 100.452 57.9226C100.383 58.0328 100.355 58.1638 100.372 58.2939C100.384 58.3668 100.409 58.437 100.448 58.5004C100.487 58.5637 100.538 58.619 100.599 58.663C100.659 58.7069 100.728 58.7387 100.8 58.7563C100.873 58.7738 100.948 58.777 101.021 58.7655L105.465 58.123C105.611 58.1049 105.742 58.0304 105.83 57.9159C105.918 57.8014 105.956 57.6562 105.935 57.5118C105.928 57.4392 105.905 57.3686 105.869 57.3045C105.832 57.2404 105.783 57.1841 105.724 57.1392C105.665 57.0943 105.598 57.0617 105.526 57.0436C105.455 57.0254 105.38 57.0221 105.308 57.0337L100.863 57.6761L100.751 57.688ZM109.556 56.499C109.432 56.5405 109.326 56.6233 109.257 56.7335C109.188 56.8438 109.16 56.9748 109.178 57.1049C109.204 57.2467 109.283 57.3747 109.4 57.4632C109.516 57.5518 109.661 57.5946 109.805 57.583L114.292 57.0667C114.438 57.0485 114.568 56.9741 114.656 56.8596C114.744 56.7451 114.782 56.5999 114.762 56.4555C114.754 56.3829 114.732 56.3123 114.695 56.2482C114.659 56.1841 114.61 56.1278 114.551 56.0829C114.492 56.038 114.425 56.0055 114.353 55.9873C114.281 55.9691 114.207 55.9658 114.135 55.9774C112.644 56.1171 111.188 56.2923 109.647 56.4937L109.556 56.499ZM118.404 55.5754C118.282 55.615 118.178 55.694 118.108 55.8C118.038 55.906 118.007 56.0328 118.019 56.1603C118.039 56.3017 118.113 56.4312 118.226 56.5215C118.339 56.6119 118.482 56.6561 118.625 56.645L123.155 56.2548C123.228 56.2491 123.299 56.2292 123.364 56.196C123.428 56.1629 123.485 56.1173 123.532 56.0618C123.578 56.0063 123.613 55.9421 123.633 55.8728C123.654 55.8035 123.661 55.7305 123.653 55.6581C123.635 55.5163 123.564 55.3853 123.454 55.2906C123.345 55.1958 123.204 55.1442 123.061 55.1458L118.538 55.557L118.404 55.5754ZM127.274 54.9238C127.153 54.9579 127.047 55.0324 126.976 55.135C126.904 55.2376 126.871 55.362 126.882 55.4876C126.895 55.6314 126.964 55.7655 127.075 55.8613C127.185 55.9571 127.329 56.0069 127.474 56L131.899 55.7819C131.972 55.7805 132.043 55.7649 132.11 55.7359C132.176 55.707 132.236 55.6652 132.285 55.6131C132.335 55.561 132.373 55.4995 132.398 55.4322C132.423 55.3649 132.435 55.293 132.432 55.2207C132.428 55.1471 132.41 55.0747 132.377 55.0078C132.345 54.9408 132.299 54.8807 132.243 54.831C132.188 54.7813 132.122 54.743 132.052 54.7183C131.981 54.6936 131.907 54.6831 131.833 54.6874L127.309 54.82L127.274 54.9238ZM136.138 54.5994C136.026 54.638 135.929 54.7102 135.861 54.8062C135.794 54.9022 135.758 55.0174 135.759 55.1357C135.771 55.2799 135.837 55.4156 135.944 55.5157C136.051 55.6158 136.192 55.6729 136.338 55.6756C137.815 55.6331 139.307 55.6327 140.791 55.6112C140.864 55.6137 140.936 55.6015 141.003 55.5753C141.07 55.5491 141.131 55.5094 141.181 55.4589C141.232 55.4083 141.271 55.3478 141.297 55.2811C141.323 55.2145 141.335 55.143 141.331 55.0711C141.327 54.9275 141.267 54.7901 141.163 54.688C141.059 54.5859 140.919 54.5273 140.774 54.5245C139.283 54.525 137.791 54.5254 136.293 54.5744L136.138 54.5994ZM145.066 54.6035C144.954 54.6369 144.857 54.7047 144.787 54.7973C144.718 54.8898 144.681 55.0024 144.68 55.1188C144.685 55.2654 144.746 55.4059 144.851 55.5115C144.956 55.6171 145.097 55.6796 145.245 55.6862C146.722 55.7134 148.207 55.7616 149.677 55.8374C149.751 55.8437 149.825 55.8348 149.895 55.8112C149.964 55.7877 150.027 55.75 150.081 55.7006C150.134 55.6512 150.177 55.5911 150.205 55.5241C150.233 55.4572 150.247 55.3848 150.246 55.3117C150.249 55.1658 150.194 55.0235 150.092 54.9158C149.99 54.8082 149.85 54.7441 149.703 54.7376C148.232 54.6618 146.726 54.6202 145.242 54.572L145.066 54.6035ZM153.967 55.011C153.862 55.0452 153.771 55.11 153.704 55.1969C153.638 55.2838 153.6 55.3889 153.595 55.4987C153.59 55.6454 153.642 55.7897 153.741 55.9017C153.839 56.0137 153.977 56.0848 154.124 56.1003C155.602 56.1971 157.066 56.3216 158.537 56.467C158.61 56.4782 158.685 56.4742 158.756 56.4551C158.828 56.436 158.894 56.4023 158.951 56.3561C159.007 56.31 159.054 56.2525 159.086 56.1871C159.119 56.1218 159.137 56.0501 159.14 55.9768C159.147 55.9046 159.139 55.8315 159.117 55.7618C159.095 55.6921 159.059 55.6271 159.012 55.5706C158.965 55.5141 158.907 55.4671 158.842 55.4324C158.777 55.3977 158.705 55.376 158.632 55.3685C157.161 55.223 155.677 55.1052 154.171 54.9939L153.967 55.011ZM162.841 55.8916C162.742 55.9298 162.655 55.9928 162.589 56.0745C162.522 56.1562 162.479 56.2539 162.462 56.3582C162.455 56.5028 162.503 56.646 162.597 56.7589C162.691 56.8718 162.825 56.946 162.97 56.9665L167.355 57.5973C167.502 57.618 167.65 57.5823 167.769 57.4977C167.887 57.4132 167.968 57.286 167.994 57.1425C168.012 56.9976 167.973 56.8502 167.885 56.7307C167.797 56.6113 167.667 56.5287 167.521 56.5L163.087 55.8613L162.841 55.8916ZM171.66 57.3004C171.565 57.3298 171.48 57.3841 171.415 57.4576C171.349 57.5312 171.306 57.6213 171.288 57.7184C171.272 57.7897 171.271 57.8639 171.285 57.9363C171.3 58.0086 171.329 58.0775 171.372 58.1385C171.414 58.1996 171.469 58.2515 171.532 58.2909C171.596 58.3303 171.666 58.3564 171.74 58.3674C173.19 58.6588 174.647 58.9711 176.097 59.332C176.241 59.3635 176.39 59.3377 176.512 59.2604C176.635 59.1831 176.72 59.0605 176.751 58.9192C176.782 58.7796 176.757 58.6321 176.68 58.5084C176.604 58.3847 176.482 58.2945 176.341 58.2571L171.941 57.3056C171.812 57.2555 171.671 57.2505 171.54 57.2913L171.66 57.3004ZM180.332 59.2428C180.244 59.2672 180.164 59.314 180.1 59.3787C180.036 59.4435 179.99 59.5239 179.967 59.6122C179.948 59.6822 179.942 59.7558 179.951 59.8286C179.96 59.9015 179.984 59.972 180.021 60.0363C180.058 60.1005 180.107 60.157 180.166 60.2027C180.225 60.2483 180.292 60.282 180.363 60.3019C181.799 60.6905 183.25 61.1211 184.616 61.578C184.686 61.6003 184.76 61.6088 184.833 61.603C184.906 61.5971 184.977 61.5771 185.041 61.5441C185.106 61.511 185.163 61.4655 185.209 61.4101C185.256 61.3548 185.29 61.2908 185.311 61.2217C185.333 61.1526 185.34 61.0798 185.332 61.0073C185.325 60.935 185.303 60.8644 185.268 60.7997C185.233 60.7351 185.186 60.6776 185.129 60.6305C185.073 60.5834 185.007 60.5477 184.937 60.5254C183.55 60.075 182.099 59.6444 180.635 59.2414C180.566 59.2371 180.497 59.2473 180.433 59.2713C180.369 59.2953 180.31 59.3326 180.262 59.3808L180.332 59.2428ZM188.817 62.0105C188.741 62.035 188.671 62.0758 188.613 62.13C188.555 62.1843 188.509 62.2507 188.48 62.3246C188.446 62.3875 188.425 62.457 188.419 62.5289C188.412 62.6007 188.421 62.6734 188.445 62.7423C188.468 62.8113 188.505 62.875 188.554 62.9298C188.603 62.9845 188.662 63.0289 188.728 63.0604C190.123 63.6014 191.44 64.1897 192.841 64.7518C192.976 64.8176 193.131 64.8297 193.272 64.7855C193.414 64.7414 193.531 64.6445 193.601 64.515C193.635 64.4501 193.656 64.3786 193.662 64.305C193.667 64.2313 193.658 64.1569 193.634 64.0863C193.611 64.0156 193.573 63.9502 193.523 63.8938C193.473 63.8374 193.413 63.7913 193.345 63.7582C192.007 63.1764 190.62 62.5868 189.183 62.059C189.031 62.038 188.877 62.0697 188.747 62.1484L188.817 62.0105ZM197.016 65.5876C196.944 65.6108 196.879 65.6482 196.824 65.6974C196.768 65.7467 196.724 65.8068 196.693 65.8742C196.658 65.9371 196.637 66.0066 196.631 66.0785C196.625 66.1503 196.634 66.2229 196.657 66.2919C196.68 66.3608 196.717 66.4246 196.766 66.4793C196.815 66.5341 196.874 66.5785 196.941 66.61C198.265 67.2889 199.576 67.9955 200.851 68.7363C200.982 68.8019 201.133 68.8145 201.271 68.7714C201.409 68.7284 201.523 68.6332 201.589 68.5061C201.653 68.3738 201.662 68.2212 201.614 68.0801C201.566 67.9391 201.466 67.8206 201.334 67.7493C200.058 67.0086 198.706 66.2455 197.367 65.5941C197.292 65.5715 197.214 65.564 197.136 65.5722C197.059 65.5803 196.984 65.6039 196.917 65.6415L197.016 65.5876ZM173.159 79.5086C171.935 79.89 170.733 80.2648 169.602 80.7802C169.469 80.8334 169.364 80.9359 169.308 81.0661C169.252 81.1962 169.249 81.3439 169.301 81.4781C169.327 81.5474 169.367 81.611 169.419 81.6646C169.471 81.7183 169.534 81.7609 169.603 81.7897C169.672 81.8185 169.745 81.8329 169.82 81.8319C169.894 81.8309 169.967 81.8146 170.034 81.784C171.183 81.3092 172.359 80.8961 173.555 80.5465L174.146 80.3624C174.462 80.2638 174.602 79.9878 174.524 79.6869C174.476 79.5454 174.376 79.4267 174.243 79.3554C174.11 79.2841 173.956 79.2659 173.812 79.3047L173.159 79.5086ZM178.08 78.2063C177.94 78.2499 177.825 78.3471 177.759 78.4765C177.694 78.6059 177.683 78.7569 177.73 78.8963C177.777 79.0357 177.878 79.152 178.01 79.2197C178.142 79.2875 178.295 79.301 178.435 79.2574C179.827 78.9627 181.268 78.6759 182.815 78.4258C182.889 78.4161 182.959 78.392 183.023 78.3548C183.086 78.3175 183.141 78.268 183.184 78.2091C183.227 78.1502 183.257 78.0831 183.274 78.0117C183.29 77.9403 183.291 77.8662 183.278 77.7936C183.25 77.6515 183.168 77.5248 183.048 77.4405C182.928 77.3563 182.78 77.3213 182.637 77.343C181.132 77.58 179.641 77.859 178.249 78.1537L178.08 78.2063ZM204.738 70.1728C204.614 70.2041 204.507 70.2788 204.436 70.3831C204.378 70.5124 204.371 70.6595 204.417 70.7955C204.463 70.9316 204.558 71.0469 204.684 71.1189C205.917 71.9425 207.123 72.8212 208.265 73.7197C208.383 73.8124 208.532 73.8557 208.679 73.8401C208.827 73.8246 208.961 73.7514 209.053 73.6367C209.144 73.522 209.184 73.3752 209.165 73.2286C209.147 73.082 209.07 72.9475 208.952 72.8549C207.782 71.9419 206.548 71.0487 205.308 70.2042C205.222 70.1526 205.125 70.1228 205.025 70.1173C204.926 70.1118 204.827 70.1309 204.738 70.1728ZM165.611 82.6289C164.261 83.3014 162.961 84.0639 161.719 84.9111C161.656 84.949 161.603 84.9995 161.562 85.0594C161.52 85.1193 161.492 85.1873 161.479 85.2591C161.466 85.3309 161.468 85.4049 161.486 85.4764C161.503 85.548 161.535 85.6154 161.58 85.6746C161.622 85.7348 161.675 85.7866 161.736 85.8269C161.798 85.8672 161.866 85.8952 161.938 85.9095C162.01 85.9237 162.084 85.9239 162.155 85.9099C162.227 85.896 162.294 85.8682 162.354 85.8281C163.544 85.0081 164.79 84.2702 166.084 83.6195C166.208 83.5474 166.299 83.4311 166.34 83.2938C166.38 83.1565 166.366 83.0082 166.301 82.8783C166.215 82.7655 166.09 82.687 165.952 82.6575C165.813 82.628 165.669 82.6496 165.547 82.7182L165.611 82.6289ZM186.843 76.8912C186.722 76.9386 186.623 77.027 186.563 77.1409C186.503 77.2548 186.486 77.3869 186.515 77.5139C186.544 77.6409 186.617 77.7547 186.721 77.8352C186.825 77.9157 186.954 77.9578 187.085 77.9541C188.527 77.8066 190.004 77.6945 191.495 77.6244C191.568 77.6225 191.639 77.6058 191.705 77.5753C191.77 77.5449 191.829 77.5013 191.876 77.4474C191.923 77.3934 191.959 77.3302 191.98 77.2617C192.001 77.1931 192.008 77.1206 192 77.0487C191.987 76.905 191.918 76.7708 191.807 76.6751C191.697 76.5793 191.553 76.5295 191.408 76.5364C189.917 76.6065 188.411 76.7041 186.864 76.8846L186.843 76.8912ZM158.398 87.5729C158.315 87.5771 158.235 87.602 158.166 87.6453C157.069 88.6589 156.051 89.7528 155.121 90.9181C155.029 91.0279 154.986 91.1697 154.999 91.313C155.013 91.4564 155.082 91.5901 155.193 91.6855C155.31 91.7785 155.458 91.8239 155.606 91.8124C155.754 91.8009 155.891 91.7332 155.988 91.6235C156.896 90.5165 157.886 89.478 158.949 88.5163C159.054 88.418 159.115 88.2818 159.119 88.1372C159.122 87.9926 159.068 87.8512 158.968 87.7436C158.884 87.6646 158.777 87.6141 158.663 87.5994C158.549 87.5848 158.434 87.6069 158.335 87.6623L158.398 87.5729ZM195.706 76.4275C195.595 76.4633 195.5 76.5346 195.436 76.6304C195.371 76.7261 195.34 76.841 195.349 76.9571C195.353 77.1007 195.414 77.2381 195.518 77.3402C195.622 77.4422 195.761 77.5009 195.906 77.5036C197.369 77.4888 198.847 77.5159 200.353 77.5576C200.498 77.5565 200.635 77.4994 200.736 77.3985C200.837 77.2976 200.893 77.1608 200.893 77.0173C200.898 76.9459 200.888 76.874 200.863 76.8061C200.838 76.7383 200.799 76.6762 200.748 76.624C200.697 76.5717 200.636 76.5304 200.569 76.5029C200.502 76.4753 200.429 76.4622 200.357 76.4643C198.844 76.4016 197.345 76.381 195.882 76.3959L195.706 76.4275ZM204.607 76.6957C204.502 76.7299 204.411 76.7946 204.344 76.8815C204.278 76.9684 204.24 77.0735 204.235 77.1833C204.23 77.33 204.282 77.4744 204.381 77.5864C204.479 77.6984 204.617 77.7695 204.764 77.785C206.242 77.8818 207.706 78.0062 209.198 78.1451C209.271 78.1531 209.344 78.1467 209.414 78.1264C209.484 78.106 209.549 78.0721 209.605 78.0265C209.661 77.9809 209.708 77.9247 209.741 77.8609C209.775 77.7971 209.795 77.727 209.801 77.6548C209.809 77.5102 209.761 77.367 209.666 77.2541C209.572 77.1412 209.439 77.0671 209.293 77.0466L204.832 76.672L204.607 76.6957ZM211.759 75.6504C211.67 75.6574 211.583 75.6844 211.506 75.7293C211.41 75.8413 211.361 75.9856 211.368 76.1339C211.375 76.2822 211.437 76.4238 211.543 76.5308C212.072 76.9932 212.587 77.4832 213.102 77.9732C213.086 78.1168 213.129 78.2618 213.22 78.3769C213.311 78.492 213.444 78.5678 213.589 78.588L213.737 78.542L214.696 79.5207C214.8 79.6221 214.938 79.682 215.083 79.6885C215.227 79.695 215.368 79.6477 215.477 79.556C215.582 79.4577 215.643 79.3215 215.647 79.1769C215.65 79.0323 215.596 78.8909 215.496 78.7833L217.952 79.1558C218.096 79.1764 218.24 79.1411 218.356 79.0575C218.471 78.9738 218.548 78.8483 218.57 78.7075C218.588 78.5626 218.549 78.4153 218.461 78.2958C218.373 78.1763 218.243 78.0938 218.097 78.0651C216.795 77.8671 215.493 77.669 214.226 77.5064C213.571 76.8745 212.915 76.2427 212.245 75.6384C212.151 75.6077 212.052 75.6009 211.956 75.6187C211.86 75.6364 211.77 75.6781 211.696 75.7398L211.759 75.6504ZM152.801 94.3365C152.67 94.3771 152.559 94.4611 152.485 94.5745C151.74 95.856 151.092 97.1917 150.546 98.571C150.483 98.6993 150.473 98.8483 150.519 98.9859C150.566 99.1234 150.664 99.2386 150.794 99.3068C150.858 99.3423 150.929 99.3645 151.002 99.3721C151.075 99.3797 151.148 99.3725 151.217 99.351C151.286 99.3294 151.35 99.2939 151.404 99.2467C151.458 99.1995 151.502 99.1417 151.532 99.0766C152.062 97.7408 152.693 96.4487 153.422 95.2115C153.485 95.0831 153.495 94.9342 153.449 94.7966C153.402 94.659 153.304 94.5438 153.174 94.4757C153.061 94.4084 152.929 94.3837 152.801 94.4062L152.801 94.3365ZM222.223 79.0324C222.13 79.0656 222.047 79.1211 221.983 79.194C221.918 79.2669 221.872 79.355 221.851 79.4504C221.839 79.5225 221.842 79.5966 221.86 79.6681C221.877 79.7397 221.909 79.8074 221.953 79.8672C221.997 79.9271 222.052 79.9779 222.116 80.0166C222.18 80.0553 222.25 80.0813 222.324 80.0928C223.767 80.3631 225.224 80.6755 226.702 81.0509C226.849 81.0822 227.001 81.0548 227.124 80.9748C227.248 80.8948 227.334 80.7687 227.362 80.6243C227.391 80.4798 227.36 80.3288 227.277 80.2045C227.193 80.0802 227.064 79.9928 226.918 79.9615C225.46 79.6491 223.989 79.3644 222.497 79.0166C222.407 79.0211 222.32 79.0483 222.244 79.0955L222.223 79.0324ZM149.571 102.453C149.483 102.479 149.404 102.527 149.34 102.591C149.277 102.656 149.231 102.735 149.206 102.822C148.963 103.897 148.754 105.008 148.595 106.126L148.45 107.217C148.437 107.366 148.484 107.515 148.58 107.633C148.677 107.75 148.815 107.827 148.966 107.846C149.112 107.856 149.255 107.812 149.368 107.721C149.48 107.63 149.552 107.499 149.569 107.356L149.7 106.292C149.845 105.202 150.047 104.14 150.283 103.114C150.315 102.97 150.289 102.819 150.211 102.692C150.134 102.565 150.01 102.471 149.866 102.43C149.77 102.439 149.676 102.468 149.592 102.516L149.571 102.453ZM217.84 82.1413C217.772 82.1412 217.706 82.1619 217.651 82.2005C217.535 82.289 217.461 82.4199 217.444 82.5645C217.427 82.7091 217.469 82.8557 217.561 82.9719L217.956 83.4527C218.761 84.4564 219.523 85.4733 220.236 86.4823C220.276 86.5449 220.328 86.5989 220.39 86.641C220.451 86.6831 220.52 86.7123 220.593 86.7267C220.666 86.7412 220.741 86.7406 220.812 86.7249C220.884 86.7092 220.952 86.6789 221.011 86.6358C221.071 86.5957 221.122 86.5442 221.161 86.4842C221.201 86.4241 221.228 86.3567 221.24 86.2858C221.253 86.2149 221.252 86.1419 221.236 86.071C221.221 86 221.191 85.9325 221.149 85.8723C220.429 84.8423 219.66 83.8044 218.82 82.7652L218.425 82.2844C218.346 82.2224 218.252 82.1823 218.153 82.1682C218.054 82.1541 217.953 82.1666 217.862 82.2044L217.84 82.1413ZM230.972 80.9275C230.86 80.9651 230.764 81.0376 230.698 81.1343C230.632 81.231 230.6 81.3467 230.606 81.4645C230.612 81.5824 230.655 81.696 230.731 81.7888C230.806 81.8816 230.909 81.9486 231.024 81.98C232.467 82.3199 233.904 82.7085 235.34 83.097C235.41 83.117 235.484 83.1226 235.556 83.1135C235.628 83.1044 235.697 83.0807 235.759 83.0441C235.82 83.0074 235.874 82.9584 235.915 82.9001C235.957 82.8419 235.986 82.7756 236 82.7053C236.02 82.6352 236.026 82.5616 236.017 82.4888C236.007 82.416 235.984 82.3454 235.947 82.2812C235.91 82.2169 235.861 82.1604 235.802 82.1148C235.743 82.0692 235.676 82.0354 235.604 82.0155C234.168 81.627 232.718 81.266 231.268 80.905C231.171 80.9139 231.078 80.943 230.994 80.9905L230.972 80.9275ZM148.65 111.197C148.544 111.233 148.451 111.302 148.386 111.393C148.321 111.484 148.286 111.593 148.286 111.705C148.274 113.228 148.367 114.751 148.565 116.265C148.573 116.339 148.596 116.411 148.632 116.476C148.669 116.542 148.718 116.6 148.778 116.646C148.837 116.693 148.905 116.727 148.977 116.748C149.05 116.768 149.125 116.774 149.199 116.764C149.345 116.746 149.475 116.672 149.564 116.557C149.652 116.443 149.689 116.297 149.669 116.153C149.495 114.712 149.412 113.264 149.419 111.817C149.415 111.673 149.354 111.536 149.25 111.434C149.146 111.332 149.007 111.273 148.862 111.27L148.65 111.197ZM239.695 83.2956C239.609 83.3235 239.53 83.3715 239.467 83.4357C239.403 83.5 239.357 83.5785 239.33 83.6649C239.311 83.735 239.305 83.8086 239.314 83.8814C239.323 83.9542 239.347 84.0248 239.384 84.089C239.421 84.1532 239.47 84.2098 239.529 84.2554C239.587 84.301 239.655 84.3348 239.726 84.3547C241.148 84.7708 242.557 85.2146 243.972 85.6794C244.043 85.7031 244.117 85.7128 244.191 85.7081C244.265 85.7034 244.337 85.6843 244.403 85.6519C244.469 85.6195 244.527 85.5744 244.575 85.5192C244.623 85.464 244.659 85.3998 244.682 85.3303C244.704 85.2607 244.712 85.1872 244.706 85.1139C244.7 85.0406 244.679 84.9689 244.645 84.9029C244.611 84.837 244.564 84.7781 244.507 84.7296C244.45 84.681 244.385 84.6439 244.314 84.6201L240.019 83.2876C239.89 83.246 239.751 83.256 239.632 83.3153L239.695 83.2956ZM222.918 89.5261C222.795 89.5978 222.706 89.7144 222.67 89.8514C222.633 89.9883 222.652 90.135 222.722 90.2607C223.463 91.565 224.127 92.9097 224.71 94.2877C224.776 94.4169 224.886 94.519 225.021 94.5753C225.156 94.6315 225.305 94.638 225.442 94.5936C225.51 94.5667 225.571 94.5268 225.622 94.476C225.674 94.4252 225.714 94.3647 225.741 94.2979C225.769 94.2311 225.782 94.1593 225.781 94.0867C225.78 94.0141 225.765 93.9421 225.736 93.8748C225.142 92.5003 224.471 91.1581 223.728 89.8544C223.696 89.7795 223.651 89.7112 223.593 89.6538C223.535 89.5963 223.466 89.5509 223.39 89.5202C223.314 89.4895 223.233 89.4742 223.152 89.4752C223.071 89.4763 222.991 89.4936 222.918 89.5261ZM248.201 86.0566C248.119 86.0821 248.045 86.1263 247.984 86.1856C247.923 86.245 247.877 86.3178 247.85 86.3984C247.804 86.5361 247.815 86.6875 247.882 86.8193C247.948 86.9511 248.064 87.0525 248.204 87.1013L252.401 88.627C252.471 88.6604 252.547 88.6792 252.624 88.6822C252.701 88.6852 252.777 88.6724 252.848 88.6445C252.919 88.6166 252.983 88.5743 253.037 88.5202C253.09 88.4661 253.131 88.4015 253.157 88.3303C253.183 88.2592 253.194 88.1831 253.189 88.107C253.184 88.0308 253.163 87.9562 253.127 87.8878C253.091 87.8195 253.042 87.7589 252.982 87.7099C252.922 87.6609 252.853 87.6246 252.778 87.6033L248.553 86.0631C248.417 86.0142 248.268 86.019 248.138 86.0764L248.201 86.0566ZM149.707 119.859C149.57 119.901 149.457 119.994 149.391 120.119C149.324 120.244 149.309 120.39 149.35 120.528C149.484 120.927 149.612 121.305 149.74 121.684C150.098 122.73 150.521 123.754 151.007 124.75C151.037 124.817 151.081 124.876 151.136 124.925C151.19 124.974 151.254 125.012 151.323 125.036C151.393 125.06 151.466 125.07 151.539 125.065C151.611 125.061 151.682 125.041 151.746 125.008C151.813 124.978 151.873 124.936 151.922 124.883C151.972 124.83 152.01 124.768 152.035 124.699C152.06 124.631 152.07 124.558 152.066 124.485C152.062 124.413 152.044 124.341 152.012 124.274C151.533 123.331 151.126 122.355 150.794 121.355C150.674 120.998 150.546 120.619 150.418 120.241C150.378 120.103 150.286 119.985 150.161 119.911C150.037 119.837 149.889 119.814 149.749 119.845L149.707 119.859ZM226.407 97.5921C226.27 97.6344 226.157 97.7277 226.09 97.8524C226.024 97.9771 226.009 98.1236 226.049 98.261C226.459 99.6475 226.757 101.062 226.94 102.491C226.948 102.564 226.971 102.636 227.007 102.702C227.044 102.767 227.093 102.825 227.152 102.872C227.212 102.918 227.28 102.953 227.352 102.973C227.425 102.993 227.5 102.999 227.574 102.99C227.719 102.972 227.85 102.897 227.938 102.783C228.026 102.668 228.064 102.523 228.044 102.379C227.852 100.906 227.547 99.4478 227.132 98.0163C227.092 97.8785 227 97.7602 226.875 97.6865C226.751 97.6127 226.603 97.5892 226.463 97.6209L226.407 97.5921ZM256.483 89.1896C256.333 89.2376 256.209 89.343 256.139 89.4828C256.075 89.6151 256.066 89.7677 256.114 89.9088C256.161 90.0498 256.262 90.1683 256.394 90.2396C257.774 90.8082 259.113 91.3899 260.5 91.9795C260.631 92.0451 260.782 92.0577 260.92 92.0147C261.058 91.9717 261.172 91.8764 261.238 91.7494C261.276 91.6873 261.3 91.6176 261.308 91.5449C261.316 91.4722 261.308 91.3983 261.285 91.3284C261.261 91.2584 261.222 91.194 261.172 91.1397C261.121 91.0853 261.059 91.0423 260.99 91.0136C259.645 90.4108 258.257 89.8212 256.849 89.2381C256.735 89.2095 256.615 89.2222 256.511 89.2737L256.483 89.1896ZM264.695 92.8088C264.623 92.8295 264.556 92.8659 264.501 92.9155C264.445 92.965 264.401 93.0265 264.372 93.0954C264.309 93.2238 264.299 93.3727 264.346 93.5103C264.392 93.6478 264.491 93.7631 264.621 93.8312C265.98 94.476 267.382 95.1077 268.622 95.8129C268.688 95.8485 268.761 95.8706 268.835 95.8778C268.91 95.8851 268.985 95.8775 269.056 95.8554C269.126 95.8333 269.192 95.7972 269.248 95.7492C269.304 95.7013 269.349 95.6424 269.381 95.5762C269.439 95.4469 269.446 95.2999 269.4 95.1638C269.354 95.0277 269.259 94.9124 269.133 94.8404C267.808 94.1614 266.463 93.489 265.104 92.8442C264.967 92.8095 264.823 92.8294 264.703 92.8995L264.695 92.8088ZM153.66 127.919L153.491 127.972C153.376 128.061 153.299 128.191 153.279 128.336C153.258 128.48 153.295 128.629 153.381 128.75C154.303 129.962 155.337 131.086 156.471 132.107C156.582 132.204 156.725 132.257 156.871 132.254C157.017 132.252 157.156 132.195 157.259 132.094C157.355 131.982 157.404 131.838 157.397 131.689C157.39 131.541 157.327 131.4 157.222 131.293C156.13 130.333 155.144 129.261 154.28 128.098C154.206 128.009 154.107 127.944 153.996 127.912C153.885 127.88 153.768 127.882 153.66 127.919ZM227.548 106.436C227.443 106.471 227.352 106.535 227.285 106.622C227.219 106.709 227.181 106.814 227.176 106.924C227.114 108.356 226.922 109.776 226.603 111.169C226.574 111.31 226.604 111.459 226.684 111.581C226.765 111.704 226.891 111.791 227.034 111.824C227.104 111.844 227.178 111.85 227.25 111.841C227.322 111.832 227.391 111.808 227.452 111.771C227.514 111.734 227.568 111.686 227.609 111.627C227.651 111.569 227.68 111.503 227.694 111.432C228.02 109.978 228.214 108.494 228.274 107C228.279 106.927 228.27 106.853 228.246 106.783C228.222 106.712 228.185 106.647 228.135 106.591C228.086 106.535 228.026 106.489 227.959 106.456C227.892 106.423 227.819 106.403 227.745 106.398L227.548 106.436ZM272.684 97.0089C272.554 97.0577 272.445 97.149 272.375 97.2679C272.341 97.3308 272.32 97.4003 272.314 97.4721C272.308 97.544 272.316 97.6166 272.34 97.6856C272.363 97.7545 272.4 97.8183 272.449 97.873C272.498 97.9277 272.557 97.9722 272.623 98.0036C273.927 98.7589 275.23 99.5141 276.485 100.261C276.616 100.327 276.766 100.34 276.904 100.297C277.042 100.254 277.157 100.158 277.223 100.031C277.257 99.9683 277.278 99.8988 277.284 99.827C277.291 99.7551 277.282 99.6825 277.259 99.6135C277.235 99.5446 277.198 99.4808 277.149 99.4261C277.1 99.3714 277.041 99.3269 276.975 99.2955C275.692 98.5337 274.389 97.7785 273.064 97.0298C272.943 96.9703 272.806 96.9555 272.677 96.9879L272.684 97.0089ZM160.239 133.883C160.116 133.914 160.008 133.989 159.937 134.093C159.903 134.158 159.882 134.23 159.876 134.303C159.87 134.377 159.88 134.451 159.904 134.522C159.927 134.593 159.965 134.658 160.015 134.715C160.065 134.771 160.125 134.817 160.193 134.85C161.481 135.651 162.826 136.357 164.215 136.965C164.283 137.006 164.359 137.033 164.438 137.043C164.517 137.053 164.596 137.046 164.671 137.024C164.747 137.001 164.816 136.962 164.874 136.911C164.932 136.859 164.979 136.795 165.01 136.724C165.041 136.652 165.056 136.575 165.054 136.497C165.053 136.418 165.034 136.341 165 136.269C164.966 136.198 164.917 136.134 164.856 136.083C164.796 136.031 164.725 135.993 164.649 135.97C163.313 135.373 162.016 134.69 160.767 133.928C160.69 133.873 160.6 133.838 160.507 133.827C160.413 133.815 160.319 133.827 160.232 133.862L160.239 133.883ZM225.635 114.932C225.558 114.952 225.488 114.989 225.428 115.04C225.369 115.09 225.322 115.154 225.291 115.225C224.753 116.553 224.1 117.829 223.338 119.041C223.289 119.101 223.255 119.171 223.236 119.246C223.218 119.321 223.216 119.399 223.23 119.476C223.244 119.552 223.274 119.625 223.319 119.69C223.363 119.755 223.421 119.81 223.488 119.852C223.555 119.893 223.63 119.921 223.707 119.932C223.785 119.943 223.864 119.938 223.939 119.917C224.014 119.896 224.083 119.86 224.142 119.81C224.201 119.76 224.249 119.699 224.282 119.629C225.067 118.366 225.751 117.042 226.326 115.669C226.389 115.541 226.399 115.392 226.353 115.254C226.306 115.117 226.208 115.002 226.078 114.933C225.935 114.869 225.774 114.861 225.628 114.911L225.635 114.932ZM280.358 101.656C280.238 101.696 280.134 101.769 280.056 101.866C279.992 101.998 279.983 102.151 280.031 102.292C280.078 102.433 280.179 102.552 280.311 102.623C281.565 103.44 282.813 104.306 283.983 105.149C284.114 105.214 284.264 105.227 284.402 105.184C284.54 105.141 284.655 105.046 284.721 104.919C284.762 104.862 284.792 104.798 284.807 104.729C284.823 104.661 284.824 104.59 284.812 104.52C284.799 104.45 284.773 104.383 284.734 104.324C284.695 104.264 284.644 104.212 284.585 104.171C283.408 103.307 282.161 102.441 280.871 101.589C280.786 101.553 280.694 101.539 280.604 101.547C280.513 101.555 280.426 101.585 280.351 101.635L280.358 101.656ZM168.396 137.473C168.309 137.501 168.231 137.549 168.167 137.613C168.104 137.678 168.057 137.756 168.031 137.843C168.001 137.984 168.026 138.132 168.098 138.259C168.171 138.386 168.288 138.483 168.426 138.532C169.875 138.933 171.344 139.251 172.826 139.484C172.898 139.498 172.972 139.498 173.044 139.484C173.115 139.47 173.183 139.442 173.243 139.402C173.303 139.362 173.354 139.31 173.393 139.249C173.433 139.189 173.459 139.121 173.472 139.05C173.49 138.905 173.451 138.758 173.363 138.638C173.275 138.519 173.145 138.436 172.999 138.408C171.553 138.155 170.119 137.826 168.705 137.423C168.598 137.399 168.487 137.409 168.388 137.452L168.396 137.473ZM221.073 122.349C220.974 122.346 220.878 122.376 220.799 122.434C219.877 123.537 218.88 124.577 217.817 125.548C217.712 125.651 217.652 125.791 217.65 125.939C217.647 126.087 217.703 126.231 217.805 126.342C217.914 126.443 218.056 126.503 218.204 126.508C218.352 126.513 218.496 126.464 218.607 126.37C219.679 125.342 220.689 124.251 221.631 123.104C221.679 123.049 221.715 122.984 221.738 122.914C221.76 122.844 221.767 122.77 221.76 122.697C221.752 122.623 221.73 122.552 221.694 122.486C221.659 122.421 221.61 122.363 221.552 122.316C221.474 122.283 221.39 122.267 221.307 122.269C221.223 122.271 221.141 122.291 221.066 122.328L221.073 122.349ZM177.187 139.007C177.078 139.041 176.983 139.106 176.913 139.194C176.844 139.282 176.802 139.389 176.794 139.501C176.788 139.573 176.797 139.645 176.821 139.714C176.844 139.783 176.882 139.846 176.931 139.9C176.98 139.955 177.039 139.999 177.105 140.03C177.172 140.061 177.243 140.079 177.316 140.082C178.801 140.2 180.307 140.241 181.812 140.213C181.886 140.219 181.959 140.209 182.028 140.184C182.097 140.159 182.159 140.12 182.21 140.069C182.261 140.017 182.301 139.955 182.325 139.887C182.35 139.819 182.359 139.746 182.352 139.673C182.348 139.53 182.288 139.392 182.184 139.29C182.079 139.188 181.94 139.129 181.795 139.127C180.311 139.148 178.826 139.1 177.391 138.99L177.187 139.007ZM214.701 128.332L214.532 128.384C213.376 129.263 212.173 130.08 210.929 130.832C210.803 130.908 210.714 131.032 210.682 131.175C210.649 131.318 210.675 131.469 210.755 131.595C210.835 131.721 210.961 131.812 211.106 131.847C211.251 131.883 211.404 131.86 211.529 131.783C212.822 130.985 214.058 130.159 215.21 129.288C215.325 129.199 215.401 129.069 215.422 128.924C215.443 128.78 215.406 128.632 215.32 128.51C215.249 128.416 215.15 128.346 215.037 128.31C214.925 128.275 214.804 128.275 214.693 128.311L214.701 128.332ZM287.589 106.928C287.493 106.938 287.4 106.968 287.315 107.014C287.224 107.128 287.181 107.274 287.196 107.42C287.211 107.567 287.282 107.704 287.395 107.802C288.579 108.757 289.721 109.725 290.709 110.719C290.819 110.816 290.964 110.867 291.11 110.86C291.256 110.854 291.392 110.791 291.49 110.684C291.54 110.632 291.578 110.571 291.604 110.503C291.629 110.436 291.641 110.364 291.638 110.291C291.635 110.219 291.618 110.147 291.588 110.081C291.557 110.014 291.513 109.954 291.459 109.904C290.381 108.916 289.231 107.927 288.026 106.978C287.961 106.935 287.887 106.907 287.811 106.895C287.734 106.882 287.656 106.887 287.582 106.907L287.589 106.928ZM185.967 138.918C185.848 138.958 185.747 139.036 185.681 139.142C185.614 139.247 185.587 139.372 185.602 139.496C185.61 139.569 185.631 139.639 185.666 139.704C185.701 139.769 185.748 139.826 185.805 139.873C185.862 139.92 185.928 139.956 185.998 139.978C186.069 140 186.143 140.008 186.216 140.002C187.686 139.869 189.177 139.659 190.682 139.422C190.754 139.41 190.823 139.383 190.884 139.343C190.945 139.304 190.997 139.252 191.038 139.192C191.078 139.132 191.106 139.064 191.119 138.993C191.133 138.921 191.132 138.847 191.116 138.776C191.088 138.634 191.006 138.507 190.886 138.423C190.766 138.339 190.618 138.304 190.475 138.325C189.019 138.57 187.549 138.773 186.016 138.926L185.967 138.918ZM207.142 132.942C205.842 133.58 204.514 134.203 203.094 134.762C203.027 134.789 202.966 134.829 202.914 134.88C202.863 134.93 202.822 134.991 202.795 135.058C202.768 135.125 202.754 135.196 202.755 135.269C202.756 135.342 202.772 135.414 202.801 135.481C202.863 135.613 202.973 135.719 203.109 135.776C203.245 135.832 203.397 135.836 203.533 135.787C204.925 135.214 206.281 134.605 207.574 133.946C207.698 133.879 207.79 133.767 207.832 133.633C207.873 133.499 207.861 133.353 207.797 133.226C207.75 133.123 207.671 133.037 207.573 132.98C207.474 132.923 207.36 132.898 207.248 132.909L207.142 132.942ZM194.687 137.477C194.554 137.518 194.443 137.607 194.375 137.727C194.308 137.847 194.289 137.989 194.323 138.124C194.365 138.268 194.461 138.391 194.591 138.467C194.721 138.544 194.875 138.568 195.02 138.534C196.243 138.153 197.509 137.758 198.753 137.37L199.365 137.18C199.505 137.136 199.62 137.039 199.686 136.909C199.751 136.78 199.762 136.629 199.715 136.49C199.668 136.35 199.567 136.234 199.435 136.166C199.303 136.098 199.15 136.085 199.01 136.128L198.504 136.286C197.281 136.668 196.037 137.056 194.835 137.431L194.687 137.477ZM294.085 112.988L293.853 113.061C293.747 113.163 293.687 113.304 293.685 113.452C293.683 113.6 293.738 113.744 293.841 113.854C294.863 114.913 295.828 116.023 296.734 117.181C296.828 117.292 296.962 117.365 297.107 117.384C297.251 117.404 297.397 117.368 297.515 117.285C297.63 117.197 297.704 117.066 297.721 116.922C297.738 116.777 297.696 116.63 297.604 116.514C296.708 115.376 295.713 114.223 294.655 113.089C294.59 113.037 294.515 112.998 294.435 112.974C294.355 112.951 294.272 112.945 294.19 112.955L294.085 112.988ZM299.59 119.984L299.463 120.023C299.401 120.059 299.347 120.107 299.304 120.165C299.261 120.223 299.231 120.289 299.216 120.359C299.2 120.429 299.199 120.502 299.213 120.573C299.227 120.644 299.255 120.712 299.297 120.772C300.058 122.013 300.74 123.298 301.34 124.619C301.387 124.759 301.487 124.875 301.619 124.943C301.751 125.011 301.904 125.024 302.044 124.981C302.184 124.937 302.299 124.84 302.365 124.71C302.431 124.581 302.441 124.43 302.394 124.291C301.783 122.915 301.07 121.584 300.259 120.31C300.213 120.201 300.133 120.108 300.033 120.044C299.932 119.979 299.814 119.947 299.695 119.951L299.59 119.984ZM303.164 128.163C303.031 128.204 302.919 128.293 302.852 128.413C302.784 128.534 302.766 128.675 302.8 128.811C303.143 130.209 303.336 131.637 303.373 133.069C303.379 133.215 303.443 133.354 303.552 133.456C303.66 133.557 303.804 133.612 303.952 133.609C304.024 133.612 304.096 133.6 304.163 133.573C304.23 133.547 304.291 133.507 304.342 133.457C304.392 133.406 304.432 133.346 304.458 133.279C304.483 133.212 304.495 133.141 304.492 133.069C304.454 131.569 304.255 130.073 303.897 128.608C303.856 128.468 303.764 128.347 303.638 128.27C303.513 128.192 303.363 128.165 303.22 128.192L303.164 128.163Z" fill="black"/>
<path d="M14.6121 76.4261C14.6288 76.3777 14.6466 76.3261 14.6657 76.2716C14.8148 75.8442 15.0364 75.2339 15.3255 74.5053C15.9045 73.0464 16.7509 71.1214 17.8236 69.2441C18.8995 67.3612 20.1862 65.5563 21.6358 64.3125C23.0821 63.0717 24.6371 62.4312 26.2902 62.7422C27.1401 62.9021 27.4852 63.2085 27.6168 63.5023C27.759 63.8202 27.7376 64.305 27.4491 64.9977C26.875 66.3762 25.4226 68.1528 23.6757 69.9449C21.9446 71.721 19.979 73.4581 18.4425 74.7538C17.6751 75.401 17.0164 75.9366 16.5498 76.3102C16.3166 76.497 16.1315 76.6432 16.0049 76.7425C16.0024 76.7445 16 76.7464 15.9975 76.7483L14.6121 76.4261Z" fill="white" stroke="black"/>
<path opacity="0.6" d="M14.6121 76.4261C14.6288 76.3777 14.6466 76.3261 14.6657 76.2716C14.8148 75.8442 15.0364 75.2339 15.3255 74.5053C15.9045 73.0464 16.7509 71.1214 17.8236 69.2441C18.8995 67.3612 20.1862 65.5563 21.6358 64.3125C23.0821 63.0717 24.6371 62.4312 26.2902 62.7422C27.1401 62.9021 27.4852 63.2085 27.6168 63.5023C27.759 63.8202 27.7376 64.305 27.4491 64.9977C26.875 66.3762 25.4226 68.1528 23.6757 69.9449C21.9446 71.721 19.979 73.4581 18.4425 74.7538C17.6751 75.401 17.0164 75.9366 16.5498 76.3102C16.3166 76.497 16.1315 76.6432 16.0049 76.7425C16.0024 76.7445 16 76.7464 15.9975 76.7483L14.6121 76.4261Z" fill="white" stroke="black"/>
<path d="M8.9425 86.1939L8.94248 86.1938L8.9343 86.1962C8.56665 86.3003 8.18043 86.3249 7.79804 86.268C7.41555 86.2111 7.04366 86.0735 6.70487 85.8617C6.36598 85.6499 6.06721 85.3681 5.82759 85.032C5.58797 84.6959 5.41304 84.3131 5.31391 83.9066L5.31396 83.9066L5.31206 83.8993C5.15394 83.2908 5.16975 82.653 5.35495 82.0677C5.54006 81.4826 5.88516 80.9784 6.34195 80.6151C6.79836 80.2522 7.34805 80.0442 7.92233 80.0154C8.49685 79.9866 9.07518 80.1383 9.58394 80.4563C10.0931 80.7746 10.5092 81.2453 10.776 81.8116C11.0428 82.3779 11.1463 83.0108 11.0739 83.6288C11.0015 84.2467 10.7572 84.8183 10.3767 85.2734C9.99657 85.7281 9.49704 86.047 8.9425 86.1939Z" fill="white" stroke="black"/>
<path opacity="0.1" d="M8.9425 86.1939L8.94248 86.1938L8.9343 86.1962C8.56665 86.3003 8.18043 86.3249 7.79804 86.268C7.41555 86.2111 7.04366 86.0735 6.70487 85.8617C6.36598 85.6499 6.06721 85.3681 5.82759 85.032C5.58797 84.6959 5.41304 84.3131 5.31391 83.9066L5.31396 83.9066L5.31206 83.8993C5.15394 83.2908 5.16975 82.653 5.35495 82.0677C5.54006 81.4826 5.88516 80.9784 6.34195 80.6151C6.79836 80.2522 7.34805 80.0442 7.92233 80.0154C8.49685 79.9866 9.07518 80.1383 9.58394 80.4563C10.0931 80.7746 10.5092 81.2453 10.776 81.8116C11.0428 82.3779 11.1463 83.0108 11.0739 83.6288C11.0015 84.2467 10.7572 84.8183 10.3767 85.2734C9.99657 85.7281 9.49704 86.047 8.9425 86.1939Z" fill="white" stroke="black"/>
<path d="M18.6294 83.8069C17.9452 84.8699 16.9038 85.6044 15.7167 85.8722C14.7688 86.0861 13.7717 85.9924 12.8543 85.5995C11.9365 85.2063 11.1402 84.531 10.573 83.6574C10.0057 82.7837 9.69619 81.7552 9.68599 80.7075C9.67579 79.6598 9.9652 78.6458 10.5116 77.7969C11.0578 76.9483 11.8351 76.3043 12.7395 75.9439C13.6437 75.5836 14.638 75.5215 15.5941 75.768C16.5508 76.0145 17.4278 76.5593 18.1075 77.3366C18.7875 78.1141 19.2365 79.0861 19.3934 80.1255C19.5901 81.4284 19.3143 82.743 18.6294 83.8069Z" fill="white" stroke="black"/>
<path d="M31.0562 83.3744L31.0562 83.3744L31.0498 83.3785C30.1067 83.9873 29.0828 84.4476 28.0093 84.7458C27.43 84.8609 26.841 84.9226 26.2488 84.93C26.0477 84.9226 25.8502 84.9014 25.6345 84.8783C25.5146 84.8654 25.3892 84.8519 25.2543 84.8399C24.934 84.8113 24.571 84.7929 24.2278 84.855C23.4579 84.7482 22.7002 84.541 21.9723 84.2376L21.9607 84.2327L21.9488 84.2285C21.0465 83.9046 20.2207 83.3612 19.5401 82.6401C18.862 81.9216 18.3481 81.0476 18.0414 80.0884C17.8242 79.2733 17.7961 78.4207 17.9586 77.6042C18.1217 76.7841 18.4717 76.0267 18.9757 75.396L19.0111 75.3516L19.0357 75.3004C19.3801 74.5837 19.8904 73.9783 20.5172 73.5375L20.5442 73.5186L20.5684 73.4962C21.3494 72.7767 22.2607 72.2327 23.2493 71.8944L23.2611 71.8903L23.2727 71.8857C23.71 71.7113 24.1706 71.6057 24.6402 71.5723L24.6788 71.5696L24.7165 71.5609L25.135 71.465L25.148 71.462L25.1608 71.4584C26.1308 71.1811 27.1462 71.0972 28.156 71.2114L28.1709 71.213L28.1858 71.2138C28.8627 71.2496 29.5367 71.3559 30.1979 71.5316L30.2147 71.5361L30.2318 71.5394C31.2972 71.7445 32.2946 72.2777 33.0956 73.0769C33.8968 73.8764 34.464 74.9049 34.7225 76.033C34.981 77.1611 34.9184 78.3339 34.5453 79.4025C34.1723 80.4709 33.5067 81.3852 32.6369 82.0338L32.5963 82.0641L32.5626 82.102C32.1193 82.5993 31.6123 83.0273 31.0562 83.3744Z" fill="white" stroke="black"/>
<path d="M32.8568 82.3523C32.6298 82.5903 32.3876 82.8109 32.132 83.0127C31.4151 79.0796 30.4892 75.1866 29.3589 71.3522C29.7014 71.3957 30.0422 71.4573 30.3801 71.5369C31.3759 75.1007 32.2025 78.7104 32.8568 82.3523Z" fill="white" stroke="black"/>
<path d="M22.2136 84.64C20.7146 81.7878 19.6884 78.6955 19.1807 75.5003C19.384 75.1095 19.6377 74.7543 19.9333 74.4437C20.4807 78.1387 21.6473 81.7178 23.3779 85.0123C22.9837 84.9148 22.5948 84.7905 22.2136 84.64Z" fill="white" stroke="black"/>
<path d="M23.4458 71.8047C23.7517 71.7092 24.0668 71.6461 24.3866 71.6166C24.5834 76.1711 25.6104 80.6654 27.411 84.8534C27.0968 84.8994 26.7804 84.9299 26.4626 84.9448C24.6937 80.7804 23.6705 76.3235 23.4458 71.8047Z" fill="white" stroke="black"/>
<path d="M10.4363 79.2496C10.4324 79.1994 10.4284 79.1461 10.4243 79.0898C10.3904 78.6238 10.35 77.9549 10.3241 77.1465C10.2723 75.528 10.2792 73.3586 10.5115 71.1425C10.7446 68.9199 11.2012 66.6846 12.0303 64.9156C12.8587 63.1482 14.0229 61.9156 15.6462 61.5436C16.4799 61.3525 16.91 61.5009 17.1446 61.7241C17.4033 61.9701 17.5759 62.4435 17.5852 63.2179C17.6035 64.7559 16.975 67.0222 16.0857 69.4174C15.204 71.7924 14.0932 74.225 13.2004 76.0677C12.7545 76.9881 12.3639 77.7593 12.0851 78.3001C11.9456 78.5705 11.8342 78.7832 11.7577 78.928C11.7539 78.9353 11.7501 78.9424 11.7464 78.9494L10.4363 79.2496Z" fill="white" stroke="black"/>
<path opacity="0.6" d="M10.4363 79.2496C10.4324 79.1994 10.4284 79.1461 10.4243 79.0898C10.3904 78.6238 10.35 77.9549 10.3241 77.1465C10.2723 75.528 10.2792 73.3586 10.5115 71.1425C10.7446 68.9199 11.2012 66.6846 12.0303 64.9156C12.8587 63.1482 14.0229 61.9156 15.6462 61.5436C16.4799 61.3525 16.91 61.5009 17.1446 61.7241C17.4033 61.9701 17.5759 62.4435 17.5852 63.2179C17.6035 64.7559 16.975 67.0222 16.0857 69.4174C15.204 71.7924 14.0932 74.225 13.2004 76.0677C12.7545 76.9881 12.3639 77.7593 12.0851 78.3001C11.9456 78.5705 11.8342 78.7832 11.7577 78.928C11.7539 78.9353 11.7501 78.9424 11.7464 78.9494L10.4363 79.2496Z" fill="white" stroke="black"/>
</svg>
