<svg xmlns="http://www.w3.org/2000/svg" width="22" height="21" viewBox="0 0 22 21">
    <g id="Group_30" data-name="Group 30" transform="translate(0 -0.75)">
        <path id="Path_23" data-name="Path 23" d="M21,20.75V18.541a4.175,4.175,0,0,0-1.465-3.124A5.352,5.352,0,0,0,16,14.122H6a5.352,5.352,0,0,0-3.536,1.294A4.175,4.175,0,0,0,1,18.541V20.75" fill="none" stroke="#fff" stroke-linecap="round" stroke-linejoin="round" stroke-width="2" />
        <path id="Path_24" data-name="Path 24" d="M11,10.587a4.736,4.736,0,0,0,5-4.419A4.736,4.736,0,0,0,11,1.75,4.736,4.736,0,0,0,6,6.169,4.736,4.736,0,0,0,11,10.587Z" fill="none" stroke="#fff" stroke-linecap="round" stroke-linejoin="round" stroke-width="2" />
    </g>
</svg>