<svg width="403" height="350" viewBox="0 0 403 350" fill="none" xmlns="http://www.w3.org/2000/svg">
<g clip-path="url(#clip0_677_1937)">
<path d="M402.055 345.661L114.245 350L0 329.752H178.352L402.055 345.661Z" fill="#E6E6E6"/>
<path d="M328.039 120.08C353.467 120.08 374.079 99.4671 374.079 74.0399C374.079 48.6128 353.467 28 328.039 28C302.612 28 282 48.6128 282 74.0399C282 99.4671 302.612 120.08 328.039 120.08Z" fill="#536DFE"/>
<path d="M81.4463 332.158C81.4463 332.158 82.1197 318.047 95.9254 319.687L81.4463 332.158Z" fill="#FFD412"/>
<path d="M77.5454 318.73C81.3615 318.73 84.455 315.636 84.455 311.82C84.455 308.004 81.3615 304.911 77.5454 304.911C73.7293 304.911 70.6357 308.004 70.6357 311.82C70.6357 315.636 73.7293 318.73 77.5454 318.73Z" fill="#536DFE"/>
<path d="M78.3716 323.456H76.4211V337.109H78.3716V323.456Z" fill="#FFD412"/>
<path d="M308.994 334.569C308.994 334.569 309.668 320.458 323.474 322.098L308.994 334.569Z" fill="#FFD412"/>
<path d="M305.094 321.141C308.91 321.141 312.003 318.047 312.003 314.231C312.003 310.415 308.91 307.321 305.094 307.321C301.277 307.321 298.184 310.415 298.184 314.231C298.184 318.047 301.277 321.141 305.094 321.141Z" fill="#536DFE"/>
<path d="M305.92 325.866H303.969V339.519H305.92V325.866Z" fill="#FFD412"/>
<path d="M342.259 336.979C342.259 336.979 342.932 322.868 356.738 324.508L342.259 336.979Z" fill="#FFD412"/>
<path d="M338.358 323.551C342.174 323.551 345.268 320.457 345.268 316.641C345.268 312.825 342.174 309.731 338.358 309.731C334.542 309.731 331.448 312.825 331.448 316.641C331.448 320.457 334.542 323.551 338.358 323.551Z" fill="#536DFE"/>
<path d="M339.184 328.276H337.234V341.929H339.184V328.276Z" fill="#FFD412"/>
<path d="M135.923 325.409C135.923 325.409 136.596 311.298 150.402 312.938L135.923 325.409Z" fill="#FFD412"/>
<path d="M132.022 311.98C135.838 311.98 138.932 308.887 138.932 305.071C138.932 301.255 135.838 298.161 132.022 298.161C128.206 298.161 125.112 301.255 125.112 305.071C125.112 308.887 128.206 311.98 132.022 311.98Z" fill="#536DFE"/>
<path d="M132.848 316.707H130.898V330.36H132.848V316.707Z" fill="#FFD412"/>
<path d="M33.2368 327.82C33.2368 327.82 33.9103 313.708 47.716 315.348L33.2368 327.82Z" fill="#FFD412"/>
<path d="M29.3359 314.391C33.152 314.391 36.2456 311.298 36.2456 307.481C36.2456 303.665 33.152 300.572 29.3359 300.572C25.5198 300.572 22.4263 303.665 22.4263 307.481C22.4263 311.298 25.5198 314.391 29.3359 314.391Z" fill="#536DFE"/>
<path d="M30.1621 319.117H28.2117V332.77H30.1621V319.117Z" fill="#FFD412"/>
<path d="M200.299 303.299C241.875 303.299 275.58 269.594 275.58 228.017C275.58 186.441 241.875 152.736 200.299 152.736C158.722 152.736 125.017 186.441 125.017 228.017C125.017 269.594 158.722 303.299 200.299 303.299Z" fill="#FFD412"/>
<path d="M152.904 234.061C154.774 231.822 157.112 230.022 159.754 228.786C162.396 227.551 165.277 226.91 168.193 226.91C171.11 226.91 173.991 227.551 176.632 228.786C179.274 230.022 181.613 231.822 183.482 234.061C186.681 231.006 188.893 227.064 189.831 222.742C190.769 218.42 190.391 213.915 188.746 209.81C187.101 205.704 184.264 202.185 180.601 199.707C176.938 197.228 172.616 195.903 168.193 195.903C163.77 195.903 159.449 197.228 155.785 199.707C152.122 202.185 149.285 205.704 147.64 209.81C145.995 213.915 145.617 218.42 146.555 222.742C147.494 227.064 149.705 231.006 152.904 234.061Z" fill="white"/>
<path d="M212.687 234.06C214.556 231.822 216.895 230.022 219.536 228.786C222.178 227.551 225.059 226.91 227.976 226.91C230.892 226.91 233.773 227.551 236.415 228.786C239.057 230.022 241.395 231.822 243.265 234.06C246.464 231.006 248.675 227.064 249.613 222.742C250.552 218.42 250.174 213.915 248.529 209.81C246.884 205.704 244.047 202.185 240.383 199.707C236.72 197.228 232.399 195.903 227.976 195.903C223.553 195.903 219.231 197.228 215.568 199.707C211.905 202.185 209.068 205.704 207.422 209.81C205.777 213.915 205.4 218.42 206.338 222.742C207.276 227.064 209.487 231.006 212.687 234.06Z" fill="white"/>
<path d="M160.64 218.122C164.847 218.122 168.257 214.712 168.257 210.505C168.257 206.299 164.847 202.889 160.64 202.889C156.434 202.889 153.024 206.299 153.024 210.505C153.024 214.712 156.434 218.122 160.64 218.122Z" fill="#FFD412"/>
<path d="M220.42 218.122C224.627 218.122 228.037 214.712 228.037 210.505C228.037 206.299 224.627 202.889 220.42 202.889C216.214 202.889 212.804 206.299 212.804 210.505C212.804 214.712 216.214 218.122 220.42 218.122Z" fill="#FFD412"/>
<path d="M146.051 255.694C150.943 255.694 154.908 251.729 154.908 246.838C154.908 241.946 150.943 237.981 146.051 237.981C141.16 237.981 137.195 241.946 137.195 246.838C137.195 251.729 141.16 255.694 146.051 255.694Z" fill="#FF6584"/>
<path d="M247.903 255.694C252.794 255.694 256.76 251.729 256.76 246.838C256.76 241.946 252.794 237.981 247.903 237.981C243.012 237.981 239.046 241.946 239.046 246.838C239.046 251.729 243.012 255.694 247.903 255.694Z" fill="#FF6584"/>
<path d="M196.977 229.124L190.335 257.908L201.405 246.838L196.977 229.124Z" fill="#FF6584"/>
<path d="M231.108 339.833L223.567 333.503L223.743 339.833H221.4L221.213 333.14L211.031 339.833H206.769L221.137 330.388L220.581 310.557L220.165 295.58L222.501 295.516L222.923 310.557L223.479 330.371L234.75 339.833H231.108Z" fill="#FFD412"/>
<path d="M195.679 339.833L188.138 333.503L188.313 339.833H185.977L185.79 333.14L175.608 339.833H171.345L185.708 330.388L185.152 310.557L184.736 295.58L187.078 295.516L187.499 310.557L188.05 330.371L199.321 339.833H195.679Z" fill="#FFD412"/>
<path d="M201.406 147.2C199.34 147.2 197.518 148.805 196.299 151.27C195.226 147.564 192.97 144.986 190.335 144.986C190.156 145.004 189.978 145.034 189.803 145.076C188.79 141.119 186.436 138.344 183.692 138.344C180.024 138.344 177.05 143.3 177.05 149.415C177.05 155.529 180.024 160.485 183.692 160.485C183.871 160.468 184.049 160.438 184.224 160.396C185.237 164.353 187.591 167.128 190.335 167.128C192.4 167.128 194.223 165.523 195.441 163.059C196.515 166.765 198.771 169.342 201.406 169.342C205.074 169.342 208.048 164.385 208.048 158.271C208.048 152.157 205.074 147.2 201.406 147.2Z" fill="#FFD412"/>
<path d="M129.637 256.545C126.73 256.545 123.85 255.973 121.164 254.86C118.478 253.747 116.037 252.116 113.981 250.06C111.925 248.004 110.294 245.563 109.181 242.877C108.068 240.191 107.496 237.311 107.496 234.404V223.333C107.496 217.461 109.828 211.829 113.981 207.676C118.133 203.524 123.765 201.191 129.637 201.191V256.545Z" fill="#536DFE"/>
<path d="M270.96 201.191C273.868 201.191 276.747 201.764 279.433 202.877C282.12 203.99 284.56 205.62 286.616 207.677C288.673 209.733 290.303 212.173 291.416 214.86C292.529 217.546 293.102 220.425 293.102 223.333V234.404C293.102 237.312 292.529 240.191 291.416 242.877C290.303 245.563 288.673 248.004 286.616 250.06C284.56 252.116 282.12 253.747 279.433 254.86C276.747 255.973 273.868 256.545 270.96 256.545V201.191H270.96Z" fill="#536DFE"/>
<path d="M282.562 225.073H279.049C279.049 180.52 242.803 144.273 198.249 144.273C153.696 144.273 117.449 180.52 117.449 225.073H113.936C113.936 178.582 151.759 140.76 198.249 140.76C244.74 140.76 282.562 178.582 282.562 225.073Z" fill="#536DFE"/>
<path d="M77.6904 157.364L77.691 157.363L76.0406 156.675L69.0769 153.731L66.5807 152.676L66.3892 153.16L63.0361 161.626L72.4727 165.62L72.5222 165.665L71.8863 167.164C71.7993 167.302 71.725 167.446 71.6645 167.597C71.219 168.722 72.0604 169.841 72.8557 170.156C73.651 170.471 74.6569 169.814 75.1024 168.689C75.5418 167.58 75.1124 166.171 74.3373 165.83L74.338 165.829L72.6875 165.141L67.0416 162.947L70.2676 154.801L69.7894 154.612L66.5623 162.76L65.8641 162.489L69.1039 154.309L69.1892 154.345L75.8258 157.154L75.8753 157.199L75.2394 158.698C75.1524 158.835 75.0781 158.98 75.0176 159.131C74.5721 160.256 75.4134 161.374 76.2087 161.689C77.0041 162.004 78.01 161.348 78.4554 160.223C78.8948 159.114 78.4654 157.704 77.6904 157.364Z" fill="#FFD412"/>
<path d="M110.352 178.148C106.926 176.19 107.612 171.892 107.612 171.892C107.526 169.1 105.219 169.495 105.219 169.495L104.379 169.686C103.989 169.505 103.56 169.426 103.131 169.456L101.854 169.67C104.762 170.354 104.523 172.787 104.523 172.787L104.93 175.631L97.3103 172.557L98.1852 170.494C98.3061 170.304 98.4093 170.102 98.4934 169.893C99.112 168.331 97.9435 166.777 96.8389 166.34C95.7342 165.902 94.3372 166.814 93.7184 168.376C93.1082 169.917 93.7046 171.874 94.7811 172.347L94.7802 172.349L97.0725 173.304L97.0895 173.25L110.352 178.148ZM106.482 173.15L106.727 175.873C105.864 174.662 105.459 173.185 105.583 171.703C105.563 171.176 105.385 170.668 105.073 170.243C105.553 170.55 105.938 170.985 106.187 171.498C106.436 172.011 106.538 172.583 106.482 173.15V173.15Z" fill="#FFD412"/>
<path d="M52.2258 137.882L52.2267 137.88L49.9344 136.925L40.3539 133.201L42.772 131.05C43.245 130.419 43.9435 129.996 44.7215 129.869C45.4994 129.741 46.2965 129.919 46.9461 130.366L46.1957 129.251C46.1957 129.251 44.7851 127.383 42.8104 129.359C42.8104 129.359 40.3672 132.961 36.5295 132.043L49.636 137.59L49.7048 137.653L48.8216 139.735C48.7007 139.926 48.5975 140.127 48.5135 140.336C47.8948 141.898 49.0633 143.452 50.168 143.89C51.2726 144.327 52.6697 143.415 53.2884 141.853C53.8986 140.312 53.3022 138.355 52.2258 137.882Z" fill="#FFD412"/>
<path d="M87.3 125.693L86.4168 127.775C86.2959 127.966 86.1928 128.167 86.1087 128.376C85.49 129.939 86.6585 131.492 87.7631 131.93C88.8678 132.367 90.2649 131.456 90.8836 129.894C91.4939 128.353 90.8974 126.395 89.821 125.922L89.8219 125.92L87.5296 124.966L79.6879 121.917L84.1685 110.605L83.5044 110.341L79.0222 121.659L78.0526 121.282L82.5522 109.92L82.6707 109.971L91.8882 113.872L91.9571 113.934L91.0739 116.017C90.953 116.207 90.8498 116.408 90.7658 116.618C90.147 118.18 91.3156 119.734 92.4202 120.171C93.5248 120.609 94.922 119.697 95.5406 118.135C96.1509 116.594 95.5545 114.636 94.4781 114.164L94.479 114.162L92.1867 113.207L82.8189 109.247L82.8185 109.247L82.5147 109.118L79.0479 107.653L74.1248 120.083L87.2312 125.631L87.3 125.693Z" fill="#FFD412"/>
<path d="M45.7652 62.0318L45.7668 62.0286L41.8208 60.3853L25.3286 53.9742L29.491 50.2709C29.491 50.2709 32.2598 46.4292 36.6765 49.0938L35.3849 47.174C35.3849 47.174 32.9565 43.959 29.5573 47.3605C29.5573 47.3605 25.3515 53.5608 18.7451 51.9804L41.3071 61.5297L41.4256 61.6371L39.9052 65.2219C39.6971 65.5498 39.5195 65.8962 39.3747 66.2566C38.3097 68.9457 40.3212 71.6206 42.2228 72.3738C44.1244 73.1269 46.5294 71.5574 47.5945 68.8683C48.645 66.2158 47.6183 62.846 45.7652 62.0318Z" fill="#FFD412"/>
<path d="M57.8753 115.885C49.685 111.203 51.324 100.927 51.324 100.927C51.1179 94.2508 45.6024 95.1958 45.6024 95.1958L43.595 95.6538C42.6626 95.221 41.6358 95.0311 40.6102 95.1018L37.5566 95.6156C44.5097 97.2493 43.9384 103.066 43.9384 103.066L44.9125 109.867L26.6936 102.517L28.7854 97.5849C29.0745 97.1294 29.3212 96.6484 29.5223 96.1478C31.0015 92.4128 28.2077 88.6977 25.5665 87.6516C22.9254 86.6056 19.5851 88.7855 18.1059 92.5204C16.6467 96.2045 18.0727 100.885 20.6464 102.016L20.6443 102.02L26.1249 104.302L26.1657 104.173L57.8753 115.885ZM48.6234 103.936L49.2097 110.468C45.7698 105.901 46.4729 100.476 46.4729 100.476C46.4244 99.2164 45.9994 97.9999 45.2527 96.984C49.2042 99.3487 48.6234 103.936 48.6234 103.936H48.6234Z" fill="#FFD412"/>
</g>
<defs>
<clipPath id="clip0_677_1937">
<rect width="402.055" height="350" fill="white"/>
</clipPath>
</defs>
</svg>
