<svg width="500" height="500" viewBox="0 0 500 500" fill="none" xmlns="http://www.w3.org/2000/svg">
<path d="M90.8801 433.26C178.76 479.17 321.24 479.17 409.13 433.26C497.02 387.35 497 312.92 409.13 267C321.26 221.08 178.76 221.1 90.8701 267C2.98006 312.9 3.00005 387.35 90.8801 433.26Z" fill="#F5F5F5"/>
<path d="M419.15 364.22C441.457 364.22 459.54 355.602 459.54 344.97C459.54 334.339 441.457 325.72 419.15 325.72C396.843 325.72 378.76 334.339 378.76 344.97C378.76 355.602 396.843 364.22 419.15 364.22Z" fill="#E0E0E0"/>
<path d="M94.24 385.41C116.547 385.41 134.63 376.792 134.63 366.16C134.63 355.529 116.547 346.91 94.24 346.91C71.9332 346.91 53.85 355.529 53.85 366.16C53.85 376.792 71.9332 385.41 94.24 385.41Z" fill="#E0E0E0"/>
<path d="M244.47 442L142.21 383C141.862 382.773 141.572 382.468 141.363 382.108C141.155 381.749 141.034 381.345 141.01 380.93V379.38C141.034 378.965 141.155 378.562 141.363 378.202C141.572 377.842 141.862 377.537 142.21 377.31L266.89 305.31C267.261 305.123 267.67 305.025 268.085 305.025C268.5 305.025 268.909 305.123 269.28 305.31L371.54 364.31C371.887 364.537 372.176 364.843 372.382 365.203C372.589 365.563 372.708 365.966 372.73 366.38V367.94C372.708 368.354 372.589 368.758 372.382 369.117C372.176 369.477 371.887 369.783 371.54 370.01L246.86 442C246.489 442.187 246.08 442.285 245.665 442.285C245.25 442.285 244.841 442.187 244.47 442Z" fill="#EBEBEB"/>
<path d="M371.54 365.67L246.85 437.67C246.481 437.862 246.071 437.962 245.655 437.962C245.239 437.962 244.829 437.862 244.46 437.67L142.21 378.67C142.067 378.621 141.942 378.527 141.854 378.404C141.766 378.28 141.718 378.132 141.718 377.98C141.718 377.828 141.766 377.68 141.854 377.556C141.942 377.433 142.067 377.34 142.21 377.29L266.89 305.29C267.261 305.103 267.67 305.005 268.085 305.005C268.5 305.005 268.91 305.103 269.28 305.29L371.54 364.29C371.684 364.34 371.808 364.433 371.896 364.556C371.984 364.68 372.032 364.828 372.032 364.98C372.032 365.132 371.984 365.28 371.896 365.404C371.808 365.527 371.684 365.621 371.54 365.67Z" fill="#FAFAFA"/>
<path d="M371.54 365.67L246.85 437.67C246.481 437.862 246.071 437.962 245.655 437.962C245.239 437.962 244.829 437.862 244.46 437.67L142.21 378.67C142.067 378.621 141.942 378.527 141.854 378.404C141.766 378.28 141.718 378.132 141.718 377.98C141.718 377.828 141.766 377.68 141.854 377.556C141.942 377.433 142.067 377.34 142.21 377.29L266.89 305.29C267.261 305.103 267.67 305.005 268.085 305.005C268.5 305.005 268.91 305.103 269.28 305.29L371.54 364.29C371.684 364.34 371.808 364.433 371.896 364.556C371.984 364.68 372.032 364.828 372.032 364.98C372.032 365.132 371.984 365.28 371.896 365.404C371.808 365.527 371.684 365.621 371.54 365.67Z" fill="#FAFAFA"/>
<path d="M245.66 438.35V442.26C245.245 442.266 244.836 442.166 244.47 441.97L142.21 382.97C141.861 382.745 141.57 382.439 141.361 382.08C141.152 381.72 141.032 381.316 141.01 380.9V379.35C141.034 378.978 141.135 378.615 141.308 378.285C141.48 377.954 141.719 377.663 142.01 377.43C141.58 377.81 141.65 378.33 142.23 378.66L244.49 437.66C244.588 437.715 244.692 437.759 244.8 437.79L245.66 438.35Z" fill="#E0E0E0"/>
<path d="M184 372.65C184.008 372.7 184.008 372.751 184 372.8L183.89 372.95L183.32 373.18L170.02 373.86C169.814 373.895 169.618 373.973 169.445 374.09C169.272 374.208 169.127 374.361 169.02 374.54C168.81 374.9 168.92 375.19 169.27 375.21L181.81 375.85L182.1 376.08C182.089 376.134 182.068 376.184 182.04 376.23C181.979 376.329 181.896 376.411 181.797 376.47C181.697 376.529 181.585 376.564 181.47 376.57L168.82 375.92C168.11 375.92 167.88 375.28 168.3 374.54C168.527 374.165 168.836 373.846 169.202 373.605C169.569 373.365 169.985 373.209 170.42 373.15L183.83 372.46C183.94 372.46 184 372.53 184 372.65Z" fill="#455A64"/>
<path d="M301.18 364.59C301.175 364.67 301.147 364.746 301.1 364.81C301.034 364.903 300.947 364.98 300.846 365.033C300.746 365.087 300.634 365.117 300.52 365.12C300.52 365.12 297.2 364.73 291.13 364.21C290.95 364.21 290.9 364.02 291.03 363.82C291.093 363.726 291.178 363.648 291.277 363.592C291.376 363.536 291.486 363.505 291.6 363.5C297.68 364.02 300.98 364.41 301.01 364.41C301.056 364.413 301.099 364.433 301.131 364.467C301.162 364.5 301.18 364.544 301.18 364.59Z" fill="#455A64"/>
<path d="M290.14 383.761C290.153 383.803 290.153 383.848 290.14 383.891C290.088 383.995 290.012 384.086 289.918 384.155C289.824 384.225 289.715 384.271 289.6 384.291C289.6 384.291 285.81 384.691 279.13 385.231C278.92 385.231 278.83 385.101 278.93 384.911C278.984 384.807 279.062 384.717 279.158 384.649C279.254 384.581 279.364 384.537 279.48 384.521C286.15 383.981 289.89 383.581 289.93 383.581C289.97 383.581 290.14 383.641 290.14 383.761Z" fill="#455A64"/>
<path d="M276 362.53C275.998 362.601 275.977 362.67 275.94 362.73C275.874 362.825 275.788 362.904 275.688 362.961C275.587 363.019 275.475 363.052 275.36 363.06C269.81 362.72 264 362.43 258.09 362.18C231.14 361.09 222.17 362.08 213.99 363.39C205.11 364.81 182.52 373.03 180.59 374.52C180.81 376 193.96 384.18 201.21 385.57C207.9 386.86 215.74 387.83 244 386.65C250.18 386.39 256.34 386.08 262.32 385.72C262.52 385.72 262.6 385.86 262.5 386.05C262.445 386.152 262.366 386.24 262.27 386.306C262.175 386.372 262.065 386.415 261.95 386.43C255.95 386.79 249.8 387.1 243.62 387.36C215.28 388.55 207.41 387.57 200.68 386.28C194.18 385.02 178.79 376.35 179.84 374.52C180.89 372.69 206.31 363.96 214.27 362.68C222.5 361.37 231.51 360.37 258.53 361.47C264.44 361.71 270.26 362.01 275.82 362.35C275.844 362.347 275.869 362.349 275.893 362.357C275.916 362.365 275.937 362.378 275.955 362.396C275.972 362.413 275.985 362.434 275.993 362.458C276.001 362.481 276.003 362.506 276 362.53Z" fill="#455A64"/>
<path d="M225.45 368.511C224.78 366.961 223.18 366.101 220.97 366.101C218.345 366.235 215.806 367.086 213.63 368.561C212.407 369.336 211.273 370.245 210.25 371.271C209.294 372.23 208.461 373.305 207.77 374.471C206.842 375.914 206.407 377.619 206.53 379.331C206.84 381.531 208.64 382.841 211.33 382.831C213.956 382.7 216.496 381.849 218.67 380.371C221.058 378.885 223.065 376.861 224.53 374.461C225.279 373.253 225.718 371.879 225.81 370.461C225.83 369.792 225.708 369.128 225.45 368.511ZM223.81 374.461C222.474 376.66 220.637 378.514 218.45 379.871C216.463 381.216 214.146 381.994 211.75 382.121C209.27 382.121 207.63 380.921 207.36 378.921C207.318 378.666 207.301 378.408 207.31 378.151C207.397 376.846 207.802 375.582 208.49 374.471C209.828 372.276 211.66 370.423 213.84 369.061C215.83 367.715 218.151 366.94 220.55 366.821C222.55 366.821 224.04 367.601 224.66 369.021C225.28 370.441 225 372.391 223.81 374.461Z" fill="#455A64"/>
<path d="M224.66 369C224.04 367.58 222.59 366.8 220.55 366.8C218.151 366.92 215.83 367.694 213.84 369.04C211.66 370.403 209.828 372.255 208.49 374.45C207.802 375.562 207.397 376.826 207.31 378.13C207.301 378.388 207.318 378.646 207.36 378.9C207.63 380.9 209.27 382.1 211.75 382.1C214.146 381.974 216.463 381.196 218.45 379.85C220.637 378.494 222.474 376.64 223.81 374.44C225 372.39 225.29 370.46 224.66 369ZM222 374.46C220.13 377.69 216 380.33 212.75 380.33C209.54 380.33 208.43 377.69 210.28 374.47C212.13 371.25 216.28 368.61 219.52 368.6C221.74 368.6 222.96 369.84 222.91 371.6C222.845 372.614 222.533 373.596 222 374.46Z" fill="#BA68C8"/>
<path d="M201.46 366.16C201.417 366.143 201.371 366.133 201.325 366.133C201.279 366.133 201.233 366.143 201.19 366.16C194.85 368.16 180.66 373.06 179.81 374.53C178.96 376 187.52 380.86 191.56 382.85C191.654 382.885 191.756 382.885 191.85 382.85C191.967 382.803 192.073 382.731 192.16 382.64C197.1 377.22 200.26 371.75 201.53 366.39V366.33C201.539 366.298 201.537 366.264 201.524 366.233C201.511 366.203 201.489 366.177 201.46 366.16Z" fill="#455A64"/>
<path d="M200.63 367C199.37 372 196.45 377 191.93 382.08C185.8 379.03 180.69 375.49 180.56 374.56C181.76 373.59 191 370 200.63 367Z" fill="#BA68C8"/>
<path d="M301.3 365.55C301.185 367.018 300.809 368.454 300.19 369.79C300.139 369.897 300.064 369.989 299.97 370.061C299.876 370.132 299.766 370.18 299.65 370.2C299.44 370.2 299.33 370.1 299.41 369.91C300.73 366.73 300.49 365.42 300.41 365.11C299.89 365.05 297.7 364.8 294.02 364.47C293.665 366.735 292.928 368.923 291.84 370.94C291.784 371.043 291.706 371.132 291.611 371.2C291.515 371.267 291.405 371.312 291.29 371.33C291.08 371.33 291 371.2 291.09 371.01C292.83 367.42 293.2 365.32 293.23 364.23C293.242 364.156 293.268 364.085 293.308 364.022C293.347 363.958 293.399 363.903 293.46 363.86C293.576 363.758 293.725 363.701 293.88 363.7C298.5 364.11 300.99 364.41 301.02 364.41C301.05 364.413 301.079 364.422 301.105 364.438C301.131 364.454 301.153 364.475 301.17 364.5C301.294 364.835 301.338 365.195 301.3 365.55Z" fill="#455A64"/>
<path d="M295 378.71C294.987 378.794 294.952 378.873 294.9 378.94C291.98 382.94 289.9 384.15 289.8 384.2C289.724 384.248 289.639 384.278 289.55 384.29C289.55 384.29 286.69 384.6 281.55 385.03C281.41 385.03 281.32 385.03 281.31 384.86C281.315 384.789 281.336 384.72 281.37 384.658C281.405 384.596 281.453 384.542 281.51 384.5C283.675 382.498 285.574 380.226 287.16 377.74C287.222 377.642 287.308 377.56 287.409 377.503C287.51 377.445 287.624 377.413 287.74 377.41C287.92 377.41 287.97 377.6 287.84 377.8C286.327 380.138 284.563 382.305 282.58 384.26C286.64 383.91 289.12 383.65 289.71 383.59C291.463 382.253 292.99 380.643 294.23 378.82C294.297 378.729 294.384 378.656 294.485 378.605C294.586 378.555 294.697 378.529 294.81 378.53C294.835 378.525 294.861 378.526 294.886 378.533C294.911 378.54 294.933 378.553 294.952 378.571C294.97 378.588 294.985 378.61 294.993 378.635C295.001 378.659 295.004 378.685 295 378.71Z" fill="#455A64"/>
<path d="M307.72 392.62L282.21 394.34L279.67 384.64C279.662 384.611 279.645 384.585 279.622 384.565C279.599 384.546 279.57 384.533 279.54 384.53C274.68 383.21 268.83 383.62 262.16 385.74C262.018 385.791 261.89 385.877 261.79 385.99C261.75 386.035 261.721 386.087 261.706 386.145C261.69 386.202 261.688 386.262 261.7 386.32L267.52 401.64C267.533 401.676 267.558 401.707 267.591 401.727C267.624 401.747 267.662 401.755 267.7 401.75L277.7 401.92H277.83L307.48 393.34C307.583 393.31 307.679 393.257 307.76 393.187C307.841 393.116 307.906 393.028 307.95 392.93C307.953 392.897 307.953 392.864 307.95 392.83C308 392.69 307.87 392.61 307.72 392.62ZM278 401.2L268.24 401.04L262.61 386.21C268.81 384.33 274.27 383.99 278.84 385.21L281.39 394.95C281.39 395.03 281.5 395.08 281.62 395.07L304.53 393.53L278 401.2Z" fill="#455A64"/>
<path d="M304.57 393.52L278 401.2L268.24 401.04L262.61 386.21C268.81 384.33 274.27 383.99 278.84 385.21L281.39 394.95C281.39 395.03 281.5 395.08 281.62 395.07L304.57 393.52Z" fill="#BA68C8"/>
<path d="M329.35 355.31L309.54 346.8H309.43L299.24 347C299.128 347.006 299.021 347.044 298.93 347.11L275.44 362.47C275.315 362.549 275.217 362.664 275.16 362.8C275.138 362.846 275.134 362.898 275.149 362.946C275.164 362.994 275.196 363.035 275.24 363.06C279.48 365.16 284.86 365.55 291.24 364.22C291.333 364.195 291.421 364.155 291.5 364.1L305.22 354.38L328.81 356C328.916 355.995 329.019 355.966 329.112 355.916C329.206 355.866 329.287 355.795 329.35 355.71C329.409 355.644 329.444 355.559 329.45 355.47C329.452 355.436 329.444 355.403 329.426 355.374C329.408 355.345 329.381 355.323 329.35 355.31ZM305.51 353.64C305.375 353.639 305.245 353.685 305.14 353.77L291.35 363.53C285.35 364.75 280.35 364.43 276.27 362.53L299 347.69L309 347.5L326.72 355.11L305.51 353.64Z" fill="#455A64"/>
<path d="M326.69 355.11L305.51 353.641C305.375 353.64 305.245 353.685 305.14 353.77L291.35 363.53C285.35 364.75 280.35 364.43 276.27 362.53L299 347.69L309 347.5L326.69 355.11Z" fill="#BA68C8"/>
<path d="M328.39 373.86L303.53 369H303.42L266.37 374C266.266 374.022 266.167 374.064 266.08 374.124C265.992 374.184 265.917 374.261 265.86 374.35C265.75 374.53 265.8 374.68 265.96 374.71L297.27 379.71H297.39L327.99 374.57C328.094 374.549 328.192 374.505 328.278 374.443C328.364 374.381 328.436 374.302 328.49 374.21C328.519 374.158 328.536 374.1 328.54 374.04C328.543 373.997 328.529 373.954 328.501 373.921C328.473 373.887 328.433 373.866 328.39 373.86ZM297.73 379L268.73 374.37L303.09 369.76L326.15 374.24L297.73 379Z" fill="#455A64"/>
<path d="M326.11 374.23L297.73 378.99L268.69 374.36L303.05 369.75L326.11 374.23Z" fill="#BA68C8"/>
<path d="M296.22 395.931L293.35 396.771L290.45 397.621L287.21 398.561C286.035 398.912 284.956 399.526 284.053 400.356C283.151 401.185 282.449 402.21 282 403.351C281.44 405.351 282.8 406.521 285.11 406.031L288.17 405.381H288.26L291.09 404.781L293.87 404.191C295.38 403.811 296.55 401.451 297.09 399.551C297.287 398.88 297.405 398.189 297.44 397.491C297.49 396.421 297.17 395.691 296.22 395.931ZM296.3 399.731C295.77 401.631 294.77 403.311 294.1 403.481L292.1 403.901L291.15 404.101L289.15 404.521L288.24 404.721L285.29 405.341C283.67 405.681 282.62 405.011 282.65 403.781C282.66 403.563 282.697 403.349 282.76 403.141C283.125 402.21 283.698 401.375 284.434 400.699C285.171 400.023 286.052 399.525 287.01 399.241L290.01 398.351L290.94 398.081L292.94 397.491L293.94 397.201L295.94 396.611C296.71 396.451 296.84 397.851 296.3 399.731Z" fill="#455A64"/>
<path d="M294 397.2C293.958 397.101 293.897 397.01 293.819 396.935C293.742 396.859 293.65 396.8 293.55 396.76C293.478 396.741 293.402 396.741 293.33 396.76L290.43 397.61C290.258 397.662 290.11 397.772 290.01 397.92C289.91 398.06 289.91 398.2 290.01 398.26C290.038 398.282 290.062 398.309 290.08 398.34C290.42 398.75 290.38 399.91 289.98 401.34C289.674 402.583 289.093 403.742 288.28 404.73L288.15 404.86C288.09 404.906 288.041 404.965 288.006 405.033C287.971 405.1 287.952 405.174 287.95 405.25C287.962 405.295 287.99 405.334 288.028 405.36C288.067 405.386 288.114 405.397 288.16 405.39H288.25L291.08 404.79C291.16 404.768 291.234 404.731 291.3 404.68C291.596 404.47 291.859 404.218 292.08 403.93C292.874 402.872 293.455 401.67 293.79 400.39C293.994 399.725 294.111 399.036 294.14 398.34C294.179 397.955 294.131 397.565 294 397.2ZM293 400.56C292.686 401.877 292.046 403.095 291.14 404.1L289.14 404.52C289.865 403.492 290.403 402.345 290.73 401.13C291.073 400.151 291.152 399.099 290.96 398.08L292.96 397.49C293.45 397.77 293.45 399 293 400.56Z" fill="#455A64"/>
<path d="M293 400.56C292.686 401.877 292.046 403.094 291.14 404.1L289.14 404.52C289.865 403.492 290.403 402.345 290.73 401.13C291.073 400.151 291.152 399.099 290.96 398.08L292.96 397.49C293.45 397.77 293.45 399 293 400.56Z" fill="#BA68C8"/>
<path d="M328.25 344.47L326.13 343.89L324 343.3L321.61 342.64C319.87 342.16 317.14 343.35 315.41 345.34C313.68 347.33 313.54 349.43 315.11 350.12L317.26 351.05L319.19 351.89L321.1 352.72C321.45 352.84 322.15 352.72 323.49 351.72C324.451 350.933 325.341 350.063 326.15 349.12C326.926 348.251 327.613 347.307 328.2 346.3C328.43 345.922 328.577 345.5 328.63 345.06C328.649 344.933 328.622 344.802 328.552 344.693C328.482 344.585 328.374 344.505 328.25 344.47ZM327.46 346.32C326.919 347.249 326.286 348.12 325.57 348.92C324.826 349.788 324.006 350.588 323.12 351.31C322.44 351.85 321.92 352.11 321.7 352.04L320.36 351.46L319.7 351.17L318.36 350.59L317.75 350.32L315.75 349.44C314.47 348.88 314.57 347.17 315.99 345.54C317.41 343.91 319.63 342.94 321.06 343.34L323.31 343.96L323.98 344.14L325.49 344.55L326.21 344.75L327.7 345.16C327.89 345.24 327.81 345.66 327.46 346.32Z" fill="#455A64"/>
<path d="M326.25 344C326.243 343.972 326.228 343.947 326.206 343.928C326.185 343.908 326.159 343.895 326.13 343.89L324 343.3C323.842 343.29 323.685 343.336 323.558 343.432C323.431 343.527 323.343 343.665 323.31 343.82C323.31 343.82 323.31 343.9 323.31 343.95C322.796 345.205 322.046 346.349 321.1 347.32C320.155 348.489 319.031 349.501 317.77 350.32L317.6 350.4C317.435 350.465 317.297 350.585 317.21 350.74C317.14 350.88 317.16 351 317.27 351.05L319.2 351.89C319.271 351.916 319.349 351.916 319.42 351.89C319.773 351.794 320.11 351.646 320.42 351.45C321.703 350.549 322.863 349.483 323.87 348.28C324.849 347.239 325.65 346.043 326.24 344.74C326.298 344.576 326.332 344.404 326.34 344.23C326.326 344.148 326.295 344.07 326.25 344ZM323.25 348.09C322.276 349.332 321.075 350.378 319.71 351.17L318.37 350.59C319.58 349.702 320.68 348.675 321.65 347.53C322.582 346.52 323.361 345.378 323.96 344.14L325.47 344.55C325.5 345.08 324.57 346.55 323.24 348.09H323.25Z" fill="#455A64"/>
<path d="M325.46 344.551C325.46 345.081 324.57 346.551 323.24 348.091C322.266 349.333 321.065 350.378 319.7 351.171L318.36 350.591C319.569 349.703 320.67 348.676 321.64 347.531C322.572 346.52 323.351 345.378 323.95 344.141L325.46 344.551Z" fill="#BA68C8"/>
<path d="M219.52 368.601C216.29 368.601 212.14 371.241 210.28 374.471C208.42 377.701 209.54 380.331 212.75 380.331C215.99 380.331 220.13 377.691 222 374.461C222.518 373.609 222.823 372.645 222.89 371.651C223 369.841 221.74 368.601 219.52 368.601ZM221.3 374.461C219.66 377.301 216.03 379.611 213.18 379.611C210.33 379.611 209.36 377.311 211 374.471C212.64 371.631 216.27 369.331 219.11 369.321C221.95 369.311 222.93 371.621 221.3 374.461Z" fill="#455A64"/>
<path d="M398.88 181C394.71 186.55 386.29 196.5 382.11 201.75C379.896 204.492 378.699 207.915 378.72 211.44C378.72 214.05 379.47 216.23 382.02 215.12C383.87 214.31 385.02 213.36 387.74 210.7C390.16 208.31 404.16 190.61 404.16 190.61C404.16 190.61 405.31 180.69 408.93 179.61C412.55 178.53 407.63 175.53 407.63 175.53C406.1 175.7 403.09 175.4 398.88 181Z" fill="#9A4A4D"/>
<path d="M347.66 313.71L321.52 343.55C321.352 343.737 321.131 343.868 320.886 343.924C320.64 343.979 320.384 343.957 320.152 343.86C319.92 343.764 319.724 343.597 319.591 343.384C319.458 343.17 319.395 342.921 319.41 342.67L322.01 302.86L347.66 313.71Z" fill="#FFA8A7"/>
<path d="M319.41 342.67C319.395 342.921 319.458 343.17 319.591 343.384C319.724 343.597 319.92 343.764 320.152 343.86C320.384 343.957 320.64 343.979 320.886 343.924C321.131 343.868 321.352 343.737 321.52 343.55L326.62 337.72C325.398 337.846 324.166 337.633 323.058 337.104C321.95 336.575 321.009 335.75 320.34 334.72L319.96 334.15L319.41 342.67Z" fill="#263238"/>
<path d="M386 148.21L384.6 151.61L382.89 155.7L322 302.85C323.608 307.028 326.738 310.444 330.76 312.41C336.76 315.61 343.95 316.19 347.63 313.7L408 167.63L411.24 159.8C408.9 164.75 383.65 153.21 386 148.21Z" fill="#BA68C8"/>
<path d="M380.59 161.11L377.47 168.7C376.47 170.87 380.59 174.21 385.8 176.92C392.7 180.55 401.54 183.07 402.8 180.2L405.11 174.61L405.9 172.61C404.6 175.48 395.76 172.97 388.85 169.34C383.85 166.73 379.85 163.53 380.47 161.34C380.489 161.254 380.531 161.175 380.59 161.11Z" fill="#EBEBEB"/>
<path d="M379.83 163C377.55 168 402.9 179.53 405.18 174.5L408.33 166.91C406.05 171.91 380.7 160.45 382.98 155.42L379.83 163Z" fill="#BA68C8"/>
<path d="M386 148.21L382.89 155.7C380.59 160.62 405 172 408 167.63C408.063 167.546 408.117 167.456 408.16 167.36L411.24 159.8C408.9 164.75 383.65 153.21 386 148.21Z" fill="#EBEBEB"/>
<path opacity="0.1" d="M408 167.63L411.24 159.8C410.16 162.04 404.42 160.9 398.66 158.53L335.61 314.37L321.52 343.55L347.66 313.71L408 167.63Z" fill="black"/>
<path d="M399.14 116.45L386 148.21C385 150.35 389 153.68 394.2 156.4C401.09 160.05 409.95 162.64 411.31 159.8L424 129.22C427.54 122.34 415.33 113.68 406.56 113.22C403.24 113 400.46 113.88 399.14 116.45Z" fill="#FFA8A7"/>
<path d="M411.28 126.93L398.7 158.52C403.83 160.63 408.92 161.76 410.7 160.4C410.829 160.293 410.95 160.176 411.06 160.05C411.12 159.96 411.19 159.89 411.24 159.8L424.29 128.31C422.67 132.09 411.28 126.93 411.28 126.93Z" fill="#F28F8F"/>
<path d="M450.69 336.25L443.48 338.4L440.36 327.89L447.73 325.37L450.69 336.25Z" fill="#B16668"/>
<path d="M442.42 334.84L442.11 333.84C441.51 334.34 441.33 340.72 439.64 344.4C437.8 348.4 435.85 351.28 435.03 353.09C433.93 355.51 438.21 356.79 442.94 354.46C445.28 353.3 449.04 350.28 449.64 348.34C450.24 346.4 450.03 343.89 450.55 342.44C451.07 340.99 452.69 339.09 452.76 337.58C452.52 336.259 451.995 335.007 451.22 333.91C450.51 332.74 449.73 331.44 449.33 331.69C449.33 331.85 449.56 332.48 449.56 332.48C448.866 333.731 447.824 334.752 446.56 335.42C445.43 336 442.8 336.09 442.42 334.84Z" fill="#263238"/>
<path d="M432.82 216.4C437.17 221.98 437.95 227.74 437 244.05C436.05 260.36 435.76 274.05 436 274.92C436.24 275.79 441.36 282.39 443 288.36C444.64 294.33 449.13 328.15 449.13 328.15C448.147 329.365 446.893 330.334 445.47 330.98C444.047 331.625 442.492 331.93 440.93 331.87C440.93 331.87 422.78 282.45 421.56 278.77C420.34 275.09 412.56 236.45 412.56 236.45L413.74 214.63L432.82 216.4Z" fill="#37474F"/>
<path d="M413.9 168.35H419.9C423.675 168.35 427.295 166.851 429.966 164.183C432.636 161.515 434.137 157.895 434.14 154.12C434.14 149.545 432.323 145.158 429.088 141.923C425.853 138.688 421.465 136.87 416.89 136.87C412.315 136.87 407.927 138.688 404.692 141.923C401.457 145.158 399.64 149.545 399.64 154.12C399.64 155.991 400.009 157.844 400.726 159.573C401.443 161.301 402.494 162.871 403.818 164.193C405.143 165.515 406.715 166.562 408.445 167.276C410.175 167.989 412.029 168.354 413.9 168.35Z" fill="#263238"/>
<path d="M404.848 322.451L397.329 322.352L397.184 333.311L404.703 333.41L404.848 322.451Z" fill="#B16668"/>
<path d="M399.6 235.16C400.27 227.63 401.88 214.58 401.88 214.58L421.14 213.45C424.26 218.31 422.9 226.45 422.05 233.71L411.05 276.83C411.27 278.9 413.17 283.28 411.05 294.38C408.68 306.78 405.16 324.55 405.16 324.55C405.16 324.55 399.67 327.31 396.96 324.3C396.96 324.3 395.51 284 396.53 273.3C397.62 261.66 399.15 240.32 399.6 235.16Z" fill="#37474F"/>
<path d="M397.26 329.57V328.49C396.54 328.79 394.46 334.83 391.76 337.84C388.81 341.13 386.09 343.28 384.76 344.76C383 346.76 386.7 349.24 391.9 348.42C394.49 348.02 398.98 346.24 400.12 344.58C401.26 342.92 401.82 340.44 402.75 339.22C403.68 338 405.75 336.65 406.3 335.22C406.471 333.875 406.341 332.509 405.92 331.22C405.59 329.89 405.23 328.42 404.78 328.54C404.78 328.7 404.78 329.36 404.78 329.36C403.736 330.345 402.431 331.008 401.02 331.27C399.8 331.52 397.25 330.88 397.26 329.57Z" fill="#263238"/>
<path d="M404.17 199.49C403.69 203.89 400.85 223 400.85 223C415.37 230.74 433.38 225.61 436.13 222.42C433.64 214.2 430.95 209.52 428.9 207.34L432 195.26C432 195.26 425 187.8 431.23 176.05L423.53 175.42L412.23 175.09C409.53 175.24 407.6 175.5 407.6 175.5C405.535 178.927 403.766 182.524 402.31 186.25C401.19 189.17 400 193.44 404.17 199.49Z" fill="#F0F0F0"/>
<path d="M405.82 144.38C404 145.46 401.75 150.04 401.97 159.65C402.16 167.79 404.8 169.8 406.12 170.38C407.44 170.96 410 170.61 412.49 170.19V175.08C412.49 175.08 409.05 179.08 409.27 181.31C409.49 183.54 414.27 184.08 417.44 181.89C419.765 180.087 421.766 177.903 423.36 175.43L423.3 164.2C423.3 164.2 424.77 165.62 427.25 163.45C429.25 161.66 429.98 158.65 428.39 157.03C427.976 156.645 427.477 156.363 426.933 156.209C426.389 156.054 425.816 156.031 425.261 156.141C424.706 156.252 424.186 156.492 423.742 156.843C423.299 157.194 422.945 157.645 422.71 158.16C422.71 158.16 418.71 158.3 413.48 155.4C411.426 154.295 409.662 152.722 408.331 150.807C407 148.892 406.14 146.69 405.82 144.38Z" fill="#B16668"/>
<path d="M411.06 157.6C411.045 157.74 411.059 157.882 411.102 158.017C411.145 158.151 411.217 158.275 411.311 158.38C411.405 158.484 411.521 158.568 411.65 158.625C411.779 158.682 411.919 158.711 412.06 158.71C412.27 158.722 412.478 158.671 412.659 158.564C412.839 158.457 412.984 158.299 413.075 158.109C413.166 157.92 413.198 157.708 413.168 157.5C413.138 157.292 413.047 157.098 412.906 156.942C412.766 156.786 412.582 156.676 412.379 156.624C412.175 156.573 411.961 156.583 411.763 156.653C411.565 156.724 411.393 156.851 411.268 157.02C411.143 157.189 411.07 157.39 411.06 157.6Z" fill="#263238"/>
<path d="M410.79 164.5L408.41 165.26C408.454 165.419 408.529 165.568 408.631 165.698C408.733 165.828 408.86 165.936 409.004 166.016C409.149 166.096 409.307 166.147 409.472 166.164C409.636 166.182 409.802 166.167 409.96 166.12C410.278 166.006 410.541 165.775 410.696 165.474C410.85 165.173 410.884 164.825 410.79 164.5Z" fill="#9A4A4D"/>
<path d="M402.67 154.46L404.74 153.02C404.653 152.881 404.538 152.761 404.404 152.667C404.269 152.573 404.116 152.508 403.955 152.475C403.794 152.443 403.628 152.443 403.468 152.477C403.307 152.51 403.154 152.576 403.02 152.67C402.744 152.867 402.555 153.163 402.49 153.495C402.425 153.828 402.489 154.173 402.67 154.46Z" fill="#263238"/>
<path d="M403.14 156.86C403.141 157.055 403.198 157.244 403.305 157.407C403.411 157.569 403.563 157.697 403.741 157.774C403.919 157.852 404.116 157.876 404.308 157.843C404.499 157.81 404.677 157.723 404.819 157.591C404.962 157.459 405.063 157.288 405.11 157.1C405.157 156.911 405.149 156.713 405.085 156.53C405.021 156.346 404.906 156.185 404.752 156.066C404.599 155.947 404.414 155.876 404.22 155.86C403.945 155.852 403.677 155.952 403.475 156.139C403.273 156.326 403.153 156.585 403.14 156.86Z" fill="#263238"/>
<path d="M407.97 156.28L407.81 162.44L404.57 161.44L407.97 156.28Z" fill="#9A4A4D"/>
<path d="M412.49 170.19C415.11 169.85 420.49 168.3 421.33 166.19C420.993 167.269 420.334 168.218 419.44 168.91C417.83 170.29 412.49 171.84 412.49 171.84V170.19Z" fill="#9A4A4D"/>
<path d="M434 156.8L437.67 154.11C437.506 153.862 437.292 153.649 437.044 153.485C436.795 153.32 436.515 153.208 436.222 153.155C435.928 153.102 435.627 153.109 435.337 153.175C435.046 153.241 434.771 153.365 434.53 153.54C434.041 153.912 433.714 154.458 433.615 155.065C433.516 155.671 433.654 156.292 434 156.8Z" fill="#263238"/>
<path d="M416 253.46L412.85 237.63C410.067 236.644 407.425 235.3 404.99 233.63C406.545 235.599 408.401 237.31 410.49 238.7L416 253.46Z" fill="#263238"/>
<path d="M432 168.42C428.66 166.73 429.12 163.57 430.81 160.22C432.5 156.87 434.76 154.62 438.11 156.3C439.658 157.144 440.817 158.557 441.342 160.24C441.867 161.923 441.717 163.744 440.924 165.319C440.13 166.893 438.755 168.097 437.09 168.676C435.424 169.254 433.599 169.163 432 168.42Z" fill="#263238"/>
<path d="M378.12 218.44C379.8 218.88 381.43 218.74 383.75 219.54C385.292 220.209 386.973 220.494 388.65 220.37C390.83 220.23 396.52 217.54 401.57 214.47C407.11 210.872 411.991 206.35 416 201.1C420.57 194.63 425.63 184.42 428.05 180.52C430.47 176.62 431.3 176.05 431.3 176.05C434.46 176.18 437.6 179.05 435.5 186.79C433.76 193.17 429.09 201.44 423.34 208.4C418.971 213.546 413.785 217.938 407.99 221.4C402.65 224.66 397.99 226.28 391.99 228.27C390.37 228.81 389.31 229.61 386.35 231.01C385.158 231.656 383.878 232.124 382.55 232.4C380.892 232.639 379.208 232.639 377.55 232.4C375.443 232.11 373.453 231.256 371.79 229.93C370.879 229.204 370.15 228.276 369.66 227.22C369.175 226.149 369.083 224.942 369.4 223.81C369.458 223.58 369.575 223.37 369.74 223.2C369.913 223.076 370.109 222.987 370.317 222.939C370.525 222.891 370.74 222.885 370.95 222.92C373.372 223.161 375.806 223.277 378.24 223.27C380.24 223.13 381.63 222.75 381.34 222.47C381.05 222.19 379.89 222.35 378.29 221.66C376.69 220.97 375.64 219.45 376.08 218.66C376.52 217.87 376.44 218 378.12 218.44Z" fill="#B16668"/>
<path d="M367.08 193.87C369.395 192.865 371.949 192.546 374.44 192.95C376.44 193.28 376.44 199.95 370.01 202.08C365.82 203.45 363.3 202.84 361.95 206.29C361.95 206.29 359.23 205.93 359.85 202.08C360.53 198.104 362.315 194.4 365 191.39C366.84 189.21 367 187.39 367.87 187.99C368.74 188.59 368.42 190.72 368.42 190.72L367.08 193.87Z" fill="#B16668"/>
<path d="M107.47 198.74C111.93 204.07 120.06 214.24 124.24 219.49C126.458 222.23 127.656 225.655 127.63 229.18C127.63 231.79 126.89 233.97 124.33 232.86C122.49 232.05 121.33 231.1 118.62 228.44C116.2 226.05 107.62 215.74 107.62 215.74C107.62 215.74 101.04 198.43 97.42 197.33C95.4452 196.679 93.3665 196.401 91.29 196.51C95.66 195 101.81 192 107.47 198.74Z" fill="#F28F8F"/>
<path d="M89.13 193.05C93.6 189.69 101.13 190.56 105.35 195.62C108.42 199.33 115.71 208.38 115.71 208.38C114.82 210.362 113.525 212.135 111.908 213.586C110.29 215.036 108.387 216.131 106.32 216.8L89.13 193.05Z" fill="#E0E0E0"/>
<path d="M174.68 312.45C174.68 312.45 162.12 266.92 144.41 224C126.84 181.49 99.7501 138.36 95.2201 131.85L95.1601 131.77L95.0901 131.67C94.6575 131.096 94.0554 130.672 93.3688 130.458C92.6822 130.244 91.9459 130.252 91.2638 130.48C90.5818 130.707 89.9886 131.144 89.568 131.727C89.1474 132.31 88.9208 133.011 88.9201 133.73C88.9192 133.993 88.9494 134.254 89.0101 134.51C89.0101 134.51 101.01 193.39 118.34 235.2C135.67 277.01 159.34 318.85 159.34 318.85C159.725 319.4 160.23 319.855 160.818 320.179C161.405 320.503 162.06 320.688 162.73 320.72C164.781 320.875 166.84 320.546 168.74 319.759C170.641 318.972 172.329 317.75 173.67 316.19C174.113 315.685 174.434 315.085 174.609 314.437C174.784 313.789 174.808 313.109 174.68 312.45Z" fill="#BA68C8"/>
<path opacity="0.1" d="M88.9101 133.77C88.9092 134.033 88.9394 134.294 89 134.55C89 134.55 101 193.43 118.33 235.24C129.96 263.37 144.47 291.5 152.73 306.91L161.79 301.17C161.79 301.17 89.66 131.63 92.35 130.34C91.8988 130.339 91.4517 130.426 91.0344 130.598C90.6171 130.77 90.2378 131.022 89.9182 131.341C89.5986 131.66 89.3451 132.038 89.1721 132.455C88.9991 132.872 88.9101 133.319 88.9101 133.77Z" fill="black"/>
<path d="M159.29 318.89C157.83 326.24 155.29 335.68 159.91 347.94C165.12 361.86 180.91 365.7 188.49 365.71C199.06 365.71 205.75 361.79 205.75 361.79C205.75 361.79 200.28 359.69 198.02 351.79C197.571 350.068 197.296 348.306 197.2 346.53C196.71 340.13 196.5 333.16 190.91 325.43C186.857 319.635 181.228 315.124 174.69 312.43L159.29 318.89Z" fill="#EBEBEB"/>
<path d="M198 351.79C197.551 350.068 197.276 348.306 197.18 346.53C197.18 346.58 195.27 354.87 190.6 354.38C185.93 353.89 184.6 348.92 178.39 348.92C170.84 348.92 168.24 355.26 161.77 351.84C168.25 362.73 181.6 365.7 188.47 365.71C199.04 365.71 205.73 361.79 205.73 361.79C205.73 361.79 200.28 359.69 198 351.79Z" fill="#BA68C8"/>
<path opacity="0.1" d="M178.28 354.46C166.06 345.99 168.36 323.46 168.72 319.79L159.29 318.89C157.83 326.24 155.29 335.68 159.91 347.94C165.12 361.86 180.91 365.7 188.49 365.71C199.06 365.71 205.75 361.79 205.75 361.79C205.75 361.79 192.59 364.39 178.28 354.46Z" fill="black"/>
<path d="M159.29 318.89C159.675 319.44 160.18 319.895 160.768 320.219C161.355 320.543 162.01 320.728 162.68 320.76C164.731 320.915 166.79 320.586 168.69 319.799C170.591 319.013 172.279 317.79 173.62 316.23C174.078 315.726 174.414 315.122 174.599 314.466C174.785 313.81 174.816 313.12 174.69 312.45C172.91 306.13 170.86 299.28 168.63 292.08C169.07 293.48 168.63 295.2 167.32 296.96C165.63 298.933 163.499 300.479 161.099 301.473C158.7 302.466 156.1 302.88 153.51 302.68C151.25 302.39 149.73 301.41 149.08 300.07C153 307.4 156.66 314.25 159.29 318.89Z" fill="#455A64"/>
<path d="M161.79 301.17C159.22 302.42 156.356 302.943 153.51 302.68C151.25 302.39 149.73 301.41 149.08 300.07C152.98 307.4 156.66 314.25 159.29 318.89C159.675 319.44 160.18 319.895 160.768 320.219C161.355 320.543 162.01 320.728 162.68 320.76C164.732 320.939 166.797 320.595 168.68 319.76L168.79 319.57L161.79 301.14V301.17Z" fill="#37474F"/>
<path d="M97.9319 177.179C103.764 175.802 107.376 169.958 105.999 164.126C104.623 158.294 98.7792 154.682 92.9472 156.059C87.1151 157.435 83.5032 163.279 84.8797 169.111C86.2562 174.943 92.0998 178.555 97.9319 177.179Z" fill="#263238"/>
<path d="M69.48 363.22H77.12V350.14H69.48V363.22Z" fill="#FFA8A7"/>
<path d="M95.9601 349.44L103.6 349.7L103.98 335.86L96.3501 335.6L95.9601 349.44Z" fill="#FFA8A7"/>
<path d="M70 246.46C70 253.76 69 297.97 69 297.97C68.82 300.07 66.86 303.97 67.28 311.97C67.86 322.92 68.81 351.4 68.81 351.4C68.81 351.4 72.39 354.95 77.45 351.4C77.45 351.4 84.37 312.01 85.73 301.15C87 291.71 89 266 89 266L96.08 296.29C96.08 296.29 94.83 303.41 94.56 308.43C94.29 313.45 95.85 339.77 95.85 339.77C97.0889 340.544 98.5089 340.98 99.9687 341.034C101.428 341.089 102.877 340.76 104.17 340.08C104.17 340.08 110.3 300.39 111.09 295.85C111.88 291.31 105.72 246.48 105.72 246.48L70 246.46Z" fill="#37474F"/>
<path d="M77.32 193.69C75.6917 193.974 74.1842 194.735 72.9881 195.876C71.792 197.017 70.9609 198.487 70.6 200.1C70.1849 202.005 69.977 203.95 69.98 205.9V246.46C75.33 252.29 93.98 255 105.71 246.46C105.71 246.46 105.48 210.64 104.6 204.75C103.08 194.52 98.19 190.88 93.27 191.26L81.48 193L77.32 193.69Z" fill="#F0F0F0"/>
<path d="M76.7001 174.32C76.7001 174.32 78.4601 182.58 79.1601 183.94C79.6336 184.773 80.4056 185.394 81.3201 185.68L81.2001 179.87L76.7001 174.32Z" fill="#263238"/>
<path d="M78.9101 162.49C78.2949 162.419 77.6717 162.49 77.0879 162.696C76.504 162.902 75.9747 163.239 75.5401 163.68C74.0901 165.16 74.9001 169.79 76.7001 174.32L80.0101 174.7L78.9101 162.49Z" fill="#263238"/>
<path d="M81.0001 174.71C80.3401 175.1 79.3901 173.83 78.5701 172.97C77.7501 172.11 75.0801 170.97 73.7501 173.75C72.4201 176.53 74.9301 180.4 77.0301 181.06C80.6601 182.2 81.2001 179.87 81.2001 179.87L81.4801 193C82.2802 194.754 83.5029 196.283 85.0387 197.448C86.5744 198.614 88.3753 199.381 90.2801 199.68C96.7101 200.55 95.3901 195.25 93.2801 192.68V188.68C94.8964 188.939 96.5355 189.026 98.1701 188.94C100.84 188.52 102.52 186.42 103.32 183.53C104.62 178.9 105.12 175.15 104.01 166.04C102.81 156.04 91.1801 155.94 84.9101 159.89C78.6401 163.84 81.0001 174.71 81.0001 174.71Z" fill="#FFA8A7"/>
<path d="M81.0001 175.82C80.6701 175.82 79.4001 173.72 78.5701 172.97C77.4301 171.97 78.9101 162.49 78.9101 162.49C78.607 161.674 78.5497 160.788 78.7452 159.94C78.9408 159.092 79.3805 158.32 80.0101 157.72C81.5801 156 84.2001 155.8 88.6801 155.1C91.0201 154.73 94.5801 154.1 96.9301 153.64C99.7301 153.12 102.05 152.57 104.02 154.29C104.792 154.964 105.338 155.858 105.585 156.853C105.832 157.847 105.767 158.893 105.4 159.85C105.195 160.285 104.925 160.686 104.6 161.04C104.068 161.67 103.378 162.146 102.6 162.42C102.6 162.42 101.38 163.51 97.1301 164.02C93.2085 164.315 89.2679 164.241 85.3601 163.8C84.1301 163.63 83.8701 164.8 83.2001 168.09C82.6101 171 82.1201 175.8 81.0001 175.82Z" fill="#263238"/>
<path d="M78.91 163.23L74.91 161.07C75.0387 160.805 75.219 160.568 75.4404 160.374C75.6619 160.179 75.9199 160.031 76.1994 159.938C76.479 159.845 76.7743 159.809 77.068 159.831C77.3618 159.854 77.6481 159.935 77.91 160.07C78.4511 160.367 78.8569 160.861 79.0431 161.45C79.2293 162.038 79.1817 162.676 78.91 163.23Z" fill="#263238"/>
<path d="M93.26 188.62C93.26 188.62 87.26 187.43 85.26 186.32C84.0353 185.681 83.0317 184.688 82.38 183.47C82.6883 184.687 83.2393 185.83 84 186.83C85.52 188.78 93.27 190.21 93.27 190.21L93.26 188.62Z" fill="#F28F8F"/>
<path d="M91.8301 173.22C91.8242 173.454 91.7494 173.681 91.6151 173.873C91.4808 174.064 91.2929 174.212 91.075 174.298C90.8572 174.383 90.6189 174.403 90.3901 174.353C90.1612 174.304 89.952 174.188 89.7886 174.021C89.6251 173.853 89.5147 173.641 89.4712 173.411C89.4277 173.181 89.4529 172.944 89.5438 172.728C89.6347 172.512 89.7872 172.328 89.9822 172.199C90.1771 172.069 90.406 172 90.6401 172C90.7985 172.001 90.9551 172.034 91.1009 172.096C91.2466 172.158 91.3786 172.249 91.4892 172.362C91.5999 172.475 91.687 172.61 91.7455 172.757C91.804 172.904 91.8327 173.062 91.8301 173.22Z" fill="#263238"/>
<path d="M90.57 168.72L88 170.12C87.8272 169.773 87.792 169.375 87.9015 169.004C88.011 168.633 88.257 168.317 88.59 168.12C88.758 168.023 88.944 167.962 89.1366 167.94C89.3292 167.918 89.5242 167.935 89.7097 167.992C89.8952 168.048 90.0672 168.141 90.2151 168.267C90.3631 168.392 90.4839 168.546 90.57 168.72Z" fill="#263238"/>
<path d="M92.72 181.46L95.45 182.46C95.3905 182.642 95.2948 182.811 95.1687 182.956C95.0426 183.101 94.8886 183.219 94.716 183.303C94.5433 183.387 94.3556 183.435 94.1638 183.445C93.9721 183.455 93.7803 183.426 93.6 183.36C93.2377 183.216 92.9444 182.939 92.7806 182.586C92.6169 182.232 92.5952 181.829 92.72 181.46Z" fill="#F28F8F"/>
<path d="M102.47 169.71L100.14 167.92C100.249 167.766 100.388 167.635 100.549 167.536C100.709 167.437 100.888 167.371 101.074 167.342C101.261 167.313 101.451 167.322 101.634 167.368C101.817 167.414 101.989 167.496 102.14 167.61C102.454 167.85 102.664 168.203 102.725 168.594C102.787 168.985 102.695 169.385 102.47 169.71Z" fill="#263238"/>
<path d="M101.75 172.88C101.74 173.113 101.662 173.338 101.526 173.527C101.389 173.716 101.2 173.861 100.982 173.943C100.764 174.026 100.526 174.042 100.299 173.991C100.071 173.939 99.864 173.822 99.7025 173.654C99.541 173.486 99.4326 173.274 99.3906 173.045C99.3486 172.815 99.3749 172.578 99.4662 172.364C99.5576 172.149 99.7099 171.966 99.9044 171.838C100.099 171.709 100.327 171.64 100.56 171.64C100.72 171.641 100.879 171.675 101.026 171.738C101.173 171.801 101.306 171.894 101.417 172.009C101.527 172.125 101.614 172.261 101.671 172.411C101.729 172.561 101.755 172.72 101.75 172.88Z" fill="#263238"/>
<path d="M95.6801 171.75L96.0701 178.92L99.8101 177.65L95.6801 171.75Z" fill="#F28F8F"/>
<path d="M77.1101 359.44V358.35C77.8501 358.67 79.5401 365.15 82.5801 367.91C84.9901 370.11 88.2701 372.65 89.1101 375.1C89.9501 377.55 84.5301 379.1 82.2801 378.66C79.6601 378.19 75.1301 376.35 73.9901 374.66C72.8501 372.97 72.3201 370.44 71.4001 369.19C70.4801 367.94 68.3401 366.54 67.8401 365.09C67.5601 364.29 67.8401 362.55 68.2801 361.09C68.7201 359.63 69.0101 358.25 69.4701 358.38C69.4701 358.54 69.4701 359.21 69.4701 359.21C70.5565 360.068 71.906 360.524 73.2901 360.5C74.4101 360.52 77.1201 360.29 77.1101 359.44Z" fill="#263238"/>
<path d="M103.68 347.34C104.08 347.34 104.4 347.92 105.27 348.86C106.58 350.183 108.1 351.278 109.77 352.1C112.63 353.53 118.19 355.73 120.71 356.87C122.28 357.57 122.21 359.47 120.58 360.56C118.95 361.65 115.03 362.41 110.32 361.36C107.75 360.79 104.41 358.42 102.32 358.54C100.23 358.66 96.2401 358.64 94.6801 357.54C93.1201 356.44 93.7401 354.16 94.1901 352.19C94.6701 350.03 95.3601 346.73 96.0701 346.88V347.56C96.9901 348.95 101.66 349.56 103.68 348.49V347.34Z" fill="#263238"/>
<path d="M89 266C92.9493 264.767 96.5809 262.685 99.64 259.9C99.64 259.9 97.58 263.74 91.48 267.32L93.77 286.85L89 266Z" fill="#263238"/>
<path d="M131.75 237.48C130.07 237.91 128.45 237.77 126.13 238.57C124.586 239.244 122.9 239.529 121.22 239.4C119.05 239.27 113.35 236.57 108.3 233.51C102.776 229.903 97.9087 225.378 93.9102 220.13C89.3402 213.66 84.2802 203.46 81.9102 199.56C79.5402 195.66 77.2001 195.24 74.5101 195.36C71.3501 195.49 69.3301 198.36 72.1101 204.36C76.0795 212.543 80.9497 220.257 86.6301 227.36C90.9951 232.506 96.1778 236.898 101.97 240.36C107.31 243.63 111.97 245.24 117.97 247.23C119.59 247.77 120.66 248.57 123.62 249.97C124.808 250.619 126.085 251.091 127.41 251.37C129.068 251.614 130.752 251.614 132.41 251.37C134.517 251.083 136.507 250.233 138.17 248.91C139.087 248.183 139.82 247.252 140.31 246.19C140.792 245.118 140.88 243.911 140.56 242.78C140.503 242.552 140.39 242.342 140.23 242.17C139.877 241.925 139.444 241.825 139.02 241.89C136.595 242.134 134.158 242.254 131.72 242.25C129.72 242.1 128.34 241.73 128.62 241.45C128.9 241.17 130.08 241.33 131.68 240.64C133.28 239.95 134.32 238.42 133.89 237.64C133.46 236.86 133.43 237.05 131.75 237.48Z" fill="#FFA8A7"/>
<path d="M75.4901 194.24C73.0601 194.36 69.9201 195.84 69.9801 199.99C70.0401 204.14 76.4101 216.19 81.3201 223.07C81.3201 223.07 88.9901 222.58 93.0101 216.8C93.0101 216.8 85.8501 205.41 83.9101 201.8C82.1601 198.51 79.0001 194.06 75.4901 194.24Z" fill="#E0E0E0"/>
<path d="M139 211.48C136.791 210.547 134.36 210.276 132 210.7C130 211.03 130 217.7 136.43 219.83C140.62 221.2 143.14 220.6 144.49 224.04C144.49 224.04 147.2 223.68 146.59 219.83C145.917 215.859 144.147 212.156 141.48 209.14C139.63 206.96 139.48 205.14 138.6 205.75C137.72 206.36 137.73 208.6 137.73 208.6L139 211.48Z" fill="#FFA8A7"/>
<path d="M314.6 239.18L277.9 238.68L277.58 268.68C277.58 271.39 279.31 274.12 282.87 276.23C290 280.45 301.62 280.57 308.87 276.51C312.51 274.46 314.33 271.74 314.32 269L314.6 239.18Z" fill="#37474F"/>
<path d="M283.36 231.25C276.15 235.32 276.08 242.03 283.2 246.25C290.32 250.47 301.94 250.59 309.15 246.53C316.36 242.47 316.44 235.76 309.32 231.53C302.2 227.3 290.57 227.19 283.36 231.25Z" fill="#455A64"/>
<path d="M313 239.06C312.991 239.551 312.904 240.037 312.74 240.5C312.19 242.22 310.69 243.81 308.35 245.13C304.551 246.99 300.369 247.935 296.139 247.89C291.909 247.845 287.749 246.811 283.99 244.87C281.73 243.53 280.25 241.87 279.73 240.24C279.555 239.746 279.467 239.224 279.47 238.7C279.47 236.47 281.15 234.31 284.13 232.7C287.931 230.847 292.112 229.905 296.341 229.95C300.569 229.995 304.729 231.026 308.49 232.96C311.45 234.65 313 236.82 313 239.06Z" fill="#263238"/>
<path d="M312.76 240.5C312.21 242.22 310.71 243.81 308.37 245.13C304.571 246.99 300.389 247.935 296.159 247.89C291.929 247.845 287.769 246.811 284.01 244.87C281.75 243.53 280.27 241.87 279.75 240.24C280.585 238.205 282.156 236.559 284.15 235.63C287.946 233.757 292.129 232.805 296.361 232.85C300.593 232.895 304.755 233.937 308.51 235.89C310.441 236.858 311.952 238.497 312.76 240.5Z" fill="#BA68C8"/>
<path d="M304.07 250.41C304.88 249.96 305.52 250.34 305.51 251.26C305.478 251.763 305.328 252.251 305.072 252.685C304.817 253.119 304.463 253.487 304.04 253.76C303.23 254.21 302.59 253.83 302.6 252.91C302.632 252.407 302.782 251.919 303.038 251.485C303.293 251.051 303.646 250.683 304.07 250.41Z" fill="#263238"/>
<path d="M277.84 244C275.84 248 271.84 257.44 277.02 261.3C277.24 261.46 277.44 261.6 277.66 261.74V263.65C277.14 263.34 276.6 262.98 276.08 262.6C268.29 256.82 277.08 242.01 277.46 241.39C277.557 241.224 277.715 241.102 277.9 241.05L277.84 244Z" fill="#E0E0E0"/>
<path d="M304.76 252.46C304.54 252.92 298.87 263.76 289.54 265.94C288.486 266.194 287.405 266.322 286.32 266.32C283.226 266.262 280.214 265.318 277.64 263.6V261.69C281.49 264.36 285.37 265.28 289.16 264.4C297.77 262.4 303.28 251.82 303.32 251.72C303.368 251.627 303.435 251.544 303.515 251.476C303.596 251.409 303.689 251.358 303.789 251.326C303.89 251.294 303.995 251.283 304.1 251.292C304.205 251.301 304.307 251.331 304.4 251.38C304.497 251.424 304.584 251.488 304.655 251.568C304.726 251.647 304.78 251.741 304.814 251.842C304.848 251.943 304.86 252.05 304.851 252.156C304.842 252.263 304.811 252.366 304.76 252.46Z" fill="#E0E0E0"/>
<path d="M257.27 179.521H173.27L182.66 256.8C183.09 261.28 186.22 265.681 192.14 269.101C204.91 276.471 225.6 276.471 238.36 269.101C244.28 265.681 247.42 261.28 247.85 256.8L257.27 179.521Z" fill="#37474F"/>
<path d="M185.61 162.36C202.02 152.89 228.61 152.89 245.03 162.36C261.45 171.83 261.44 187.2 245.03 196.67C228.62 206.14 202.03 206.14 185.61 196.67C169.19 187.2 169.2 171.84 185.61 162.36Z" fill="#455A64"/>
<path d="M215.32 198.9C204.94 198.9 195.25 196.61 188.05 192.45C181.68 188.77 178.18 184.18 178.18 179.51C178.18 174.84 181.68 170.26 188.05 166.58C195.25 162.42 204.94 160.13 215.32 160.13C225.7 160.13 235.39 162.42 242.59 166.58C248.96 170.26 252.46 174.85 252.46 179.51C252.46 184.17 248.96 188.77 242.59 192.44C235.39 196.61 225.7 198.9 215.32 198.9Z" fill="#263238"/>
<path d="M238.58 243L223.08 272.5C222.986 272.693 222.833 272.851 222.643 272.95C222.453 273.049 222.236 273.084 222.024 273.051C221.812 273.017 221.617 272.916 221.466 272.763C221.316 272.61 221.219 272.413 221.19 272.2L215.51 239.2L238.58 243Z" fill="#FFA8A7"/>
<path d="M238.58 243L223.08 272.5C222.986 272.693 222.833 272.851 222.643 272.95C222.453 273.049 222.236 273.084 222.024 273.051C221.812 273.017 221.617 272.916 221.466 272.763C221.316 272.61 221.219 272.413 221.19 272.2L215.51 239.2L238.58 243Z" fill="#FFA8A7"/>
<path d="M221.19 272.171C221.219 272.383 221.316 272.58 221.466 272.734C221.617 272.887 221.812 272.988 222.024 273.021C222.236 273.055 222.453 273.019 222.643 272.92C222.833 272.821 222.986 272.663 223.08 272.471L226.08 266.711C225.107 267.053 224.059 267.121 223.05 266.908C222.041 266.695 221.111 266.208 220.36 265.501L219.94 265.101L221.19 272.171Z" fill="#263238"/>
<path d="M237.4 100.271L236.93 103.271L236.33 106.941L215.5 239.131C217.624 242.224 220.839 244.4 224.5 245.221C230 246.671 236.01 245.721 238.5 242.961L259.24 111.801L260.35 104.801C259.38 109.281 236.49 104.811 237.4 100.271Z" fill="#BA68C8"/>
<path d="M235.54 111.86L234.48 118.67C234.11 120.67 238.11 122.56 242.9 123.76C249.24 125.36 256.96 125.69 257.46 123.09L258.25 118.09L258.5 116.29C258 118.89 250.28 118.57 243.94 116.97C239.35 115.81 235.47 113.97 235.52 112.1C235.498 112.021 235.505 111.935 235.54 111.86Z" fill="#EBEBEB"/>
<path d="M235.29 113.57C234.41 118.12 257.38 122.57 258.29 117.98L259.37 111.17C258.5 115.72 235.53 111.31 236.37 106.76L235.29 113.57Z" fill="#BA68C8"/>
<path d="M237.4 100.271L236.33 107.001C235.44 111.471 257.57 116.001 259.24 111.811C259.278 111.731 259.305 111.647 259.32 111.561L260.32 104.781C259.38 109.281 236.49 104.811 237.4 100.271Z" fill="#EBEBEB"/>
<path opacity="0.1" d="M259.24 111.8L260.35 104.8C259.91 106.8 254.99 107.04 249.82 106.23L228.87 245.87L223.08 272.47L238.58 242.97L259.24 111.8Z" fill="black"/>
<path d="M241.93 71.7404L237.4 100.27C237.01 102.21 240.97 104.14 245.71 105.35C252.05 106.98 259.8 107.35 260.35 104.77L264.7 77.3304C266.24 71.0104 254.57 66.3304 247.3 67.6404C244.59 68.0804 242.51 69.3804 241.93 71.7404Z" fill="#FFA8A7"/>
<path d="M188.54 236.5L188.12 233.44L187.59 229.76L169.05 97.2703C170.77 99.0403 175.22 99.9803 180.05 99.4603C185.7 98.8503 190.91 96.5303 192.15 93.8403L210.55 225.35L211.55 232.4C210.67 227.87 187.71 231.94 188.54 236.5Z" fill="#BA68C8"/>
<path d="M186.88 224.87L185.94 218.05C185.6 216.05 189.64 214.22 194.44 213.11C200.82 211.61 208.54 211.42 208.99 214.03L209.7 219.03L209.92 220.83C209.46 218.22 201.74 218.41 195.36 219.9C190.76 220.98 186.85 222.75 186.87 224.62C186.847 224.702 186.851 224.79 186.88 224.87Z" fill="#EBEBEB"/>
<path d="M186.66 223.17C185.86 218.59 208.9 214.58 209.66 219.17L210.66 226C209.86 221.43 186.82 225.44 187.66 230L186.66 223.17Z" fill="#BA68C8"/>
<path d="M188.54 236.5L187.59 229.76C186.77 225.27 208.98 221.18 210.59 225.35C210.621 225.431 210.644 225.515 210.66 225.6L211.57 232.4C210.67 227.87 187.71 231.94 188.54 236.5Z" fill="#EBEBEB"/>
<path d="M178.52 71.21C175.16 72.08 173.97 71.38 173.97 71.38L169.06 97.27C171.74 101.12 178.27 101.92 183.8 100.27L183.63 99L178.52 71.21Z" fill="#FFA8A7"/>
<path d="M192.19 93.8403L180.14 69.8403L192.19 93.8403Z" fill="#FAFAFA"/>
<path d="M180.13 69.8803L177.21 64.0703L180.13 69.8803Z" fill="#E0E0E0"/>
<path d="M175.31 64.3402L173.97 71.3402C173.97 71.3402 175.11 72.1502 178.52 71.1702L177.21 64.0302C177.153 63.9118 177.072 63.806 176.974 63.7188C176.875 63.6316 176.76 63.5647 176.636 63.522C176.511 63.4792 176.379 63.4615 176.248 63.4698C176.117 63.478 175.988 63.5122 175.87 63.5702C175.72 63.6419 175.59 63.7498 175.493 63.8843C175.395 64.0187 175.332 64.1754 175.31 64.3402Z" fill="#455A64"/>
<path opacity="0.1" d="M210.58 225.35L192.18 93.8701C190.88 97.0001 187.57 99.2201 183.8 100.31L201.06 230.78C206.25 230.06 211.16 230.35 211.56 232.4L210.58 225.35Z" fill="black"/>
<path d="M192.18 93.8701L180.12 69.8701C179.756 70.4885 179.186 70.9593 178.51 71.2001L183.63 99.0001L183.8 100.29C187.57 99.2201 190.88 97.0001 192.18 93.8701Z" fill="#F28F8F"/>
<path d="M178.52 71.2103C178.872 71.1249 179.199 70.9608 179.478 70.7305C179.757 70.5001 179.98 70.2094 180.13 69.8803L177.21 64.0703L178.52 71.2103Z" fill="#37474F"/>
<path d="M192.57 265.1L188.57 236.5C188.22 234.55 192.2 232.69 196.96 231.56C203.34 230.04 211.09 229.8 211.59 232.4L215.47 259.92C216.9 266.26 205.15 270.73 197.91 269.3C195.17 268.8 193.11 267.47 192.57 265.1Z" fill="#F28F8F"/>
<path d="M207.86 85.3104C207.86 85.3104 203.39 121.17 203.35 156.68C203.35 191.88 209.82 230.31 211.12 236.24C211.12 236.24 211.12 236.24 211.12 236.31C211.125 236.344 211.125 236.377 211.12 236.41C211.252 236.953 211.553 237.439 211.979 237.799C212.405 238.159 212.935 238.374 213.492 238.413C214.049 238.452 214.604 238.313 215.076 238.016C215.548 237.719 215.914 237.279 216.12 236.76C216.198 236.575 216.252 236.38 216.28 236.18C216.28 236.18 225 191 225.07 156.4C225.14 121.8 220.63 85.2704 220.63 85.2704C220.511 84.7778 220.283 84.3182 219.963 83.9254C219.643 83.5325 219.239 83.2164 218.78 83.0004C217.377 82.2872 215.824 81.9155 214.25 81.9155C212.676 81.9155 211.124 82.2872 209.72 83.0004C209.252 83.2149 208.841 83.5353 208.518 83.9362C208.195 84.3371 207.97 84.8075 207.86 85.3104Z" fill="#BA68C8"/>
<path opacity="0.1" d="M216.13 236.76C216.208 236.574 216.261 236.379 216.29 236.18C216.29 236.18 225 191 225.07 156.4C225.07 133.11 223.07 108.97 221.75 95.6602L213.67 97.0602C213.67 97.0602 214.97 238.06 212.67 238.18C212.99 238.316 213.334 238.387 213.682 238.389C214.03 238.391 214.375 238.324 214.696 238.192C215.018 238.06 215.311 237.866 215.557 237.62C215.803 237.374 215.998 237.082 216.13 236.76Z" fill="black"/>
<path d="M214.23 81.8703C215.35 79.7703 221.46 68.4303 219.49 59.1903C218.26 59.1568 217.047 58.8993 215.91 58.4303C211.52 56.6103 212.04 52.7103 208.91 50.9903C205.78 49.2703 201.99 54.5703 201.96 54.6203C200.43 59.2803 198.53 64.2703 200.22 71.3803C201.395 76.6577 204.056 81.4882 207.89 85.3003H220.66C221.46 84.1103 222.34 82.8403 223.21 81.4603C222.34 82.8403 221.46 84.1103 220.66 85.3003L214.23 81.8703Z" fill="#F0F0F0"/>
<path opacity="0.1" d="M228.52 61.2301C225.8 57.9601 223.01 59.3101 219.52 59.2301C221.52 68.4701 215.38 79.8101 214.26 81.9101L220.66 85.3001C221.46 84.1101 222.34 82.8401 223.21 81.4601C223.43 81.1201 223.65 80.7601 223.87 80.4001C224.31 79.6801 224.74 78.9201 225.15 78.1301C225.806 76.8853 226.38 75.5992 226.87 74.2801C227.2 73.3601 227.51 72.4001 227.77 71.3801C228.355 69.1611 228.691 66.8837 228.77 64.5901C228.786 63.4649 228.703 62.3405 228.52 61.2301Z" fill="black"/>
<path d="M228.51 61.1802C228.42 60.6102 228.31 60.0602 228.18 59.5102V59.3502C228.07 58.9402 227.95 58.5302 227.82 58.1402L227.67 57.6802C227.67 57.5602 227.57 57.4402 227.53 57.3202L227.28 56.6902C227.17 56.4302 227.06 56.1802 226.94 55.9402C226.659 55.3755 226.345 54.8279 226 54.3002C225.69 53.7702 225.36 53.3002 225 52.7602C224.64 52.2202 224.29 51.7602 223.91 51.3302C221.545 48.5026 218.655 46.1595 215.4 44.4302L214.69 44.0702L214.49 43.9702L213.67 43.6102C211.975 42.8997 210.222 42.3376 208.43 41.9302C207.63 41.7502 206.87 41.6202 206.16 41.5102C205.45 41.4002 204.79 41.3402 204.16 41.3002L203.3 41.2402H202.54H201.32C200.65 41.2402 200.32 41.3202 200.32 41.3202C200.32 41.3202 203.58 44.4102 202.86 50.6502C202.662 52.0139 202.327 53.354 201.86 54.6502C201.86 54.6502 205.66 49.3102 208.81 51.0202C211.96 52.7302 211.45 56.6402 215.81 58.4602C216.947 58.9292 218.16 59.1868 219.39 59.2202C222.91 59.3402 225.7 57.9902 228.39 61.2202L228.51 61.1802Z" fill="#BA68C8"/>
<path opacity="0.1" d="M200.35 41.3202C200.35 41.3202 210.42 43.3202 217.63 54.5502C218.528 55.9707 219.158 57.5432 219.49 59.1902C223.01 59.3102 225.8 57.9602 228.49 61.1902C228.4 60.6202 228.29 60.0702 228.16 59.5202V59.3602C228.05 58.9502 227.93 58.5402 227.8 58.1502L227.65 57.6902C227.65 57.5702 227.55 57.4502 227.51 57.3302L227.26 56.7002C227.15 56.4402 227.04 56.1902 226.92 55.9502C226.642 55.3847 226.335 54.834 226 54.3002C225.69 53.7702 225.36 53.3002 225 52.7602C224.64 52.2202 224.29 51.7602 223.91 51.3302C221.545 48.5026 218.655 46.1595 215.4 44.4302L214.69 44.0702L214.49 43.9702L213.67 43.6102C211.975 42.8997 210.222 42.3376 208.43 41.9302C207.63 41.7502 206.87 41.6202 206.16 41.5102C205.45 41.4002 204.79 41.3402 204.16 41.3002L203.3 41.2402H202.54H201.32C200.65 41.2402 200.32 41.3202 200.32 41.3202H200.35Z" fill="black"/>
<path d="M220.63 85.2604C220.509 84.7699 220.28 84.3126 219.96 83.9217C219.64 83.5307 219.237 83.216 218.78 83.0004C217.376 82.2872 215.824 81.9155 214.25 81.9155C212.676 81.9155 211.124 82.2872 209.72 83.0004C209.247 83.2175 208.831 83.5436 208.508 83.9521C208.185 84.3605 207.963 84.8397 207.86 85.3504C207.26 90.3504 206.7 95.7904 206.16 101.53C206.277 100.866 206.552 100.24 206.963 99.7057C207.374 99.1711 207.908 98.7438 208.52 98.4604C210.293 97.5609 212.252 97.0921 214.24 97.0921C216.228 97.0921 218.187 97.5609 219.96 98.4604C220.586 98.7447 221.13 99.1809 221.544 99.7293C221.958 100.278 222.228 100.921 222.33 101.6C221.72 95.2404 221.13 89.3204 220.63 85.2604Z" fill="#455A64"/>
<path d="M213.67 97.0601C215.865 96.9213 218.056 97.392 220 98.4201C220.626 98.7044 221.17 99.1406 221.584 99.689C221.998 100.237 222.268 100.881 222.37 101.56C221.76 95.2401 221.17 89.3201 220.67 85.2601C220.545 84.7658 220.31 84.306 219.983 83.9148C219.655 83.5236 219.244 83.211 218.78 83.0001C217.38 82.2576 215.814 81.8858 214.23 81.9201L214.09 82.0201L213.67 97.1101V97.0601Z" fill="#37474F"/>
<path d="M260.35 104.77L264.7 77.3305C264.769 77.0519 264.809 76.7671 264.82 76.4805C263 81.1705 254 78.7705 254 78.7705L249.79 106.19C255 107 259.91 106.81 260.35 104.77Z" fill="#F28F8F"/>
</svg>
