<svg width="207" height="502" viewBox="0 0 207 502" fill="none" xmlns="http://www.w3.org/2000/svg">
<path d="M129.517 21.8616C129.517 21.8616 124.958 -2.09526 94.1538 1.33636C63.3497 4.76798 45.6761 45.8185 47.4322 58.3689C49.1883 70.9193 50.2838 114.757 50.2838 114.757L111.892 142.146L152.91 118.237L154.618 58.3367C154.618 58.3367 155.762 17.8661 129.517 21.8616Z" fill="#263238" stroke="#263238" stroke-linecap="round" stroke-linejoin="round"/>
<path d="M55.9381 462.221C55.9381 462.221 46.8032 471.356 34.2528 482.762C21.7024 494.169 31.9812 503.304 47.9471 500.484C63.913 497.665 73.6117 480.507 73.6117 480.507C73.6117 480.507 82.7466 476.527 82.7466 468.536C82.7466 460.545 62.7852 457.098 55.9381 462.221Z" fill="white" stroke="#263238" stroke-linecap="round" stroke-linejoin="round"/>
<path d="M144.452 462.221C144.452 462.221 153.587 471.356 166.137 482.762C178.687 494.169 168.409 503.304 152.443 500.484C136.477 497.665 126.778 480.507 126.778 480.507C126.778 480.507 117.643 476.527 117.643 468.536C117.643 460.545 137.605 457.098 144.452 462.221Z" fill="white" stroke="#263238" stroke-linecap="round" stroke-linejoin="round"/>
<path d="M45.6765 262.575C45.6765 262.575 51.9437 365.25 53.0875 382.939C54.2314 400.629 57.0831 445.111 57.0831 445.111C57.0831 445.111 52.5075 452.538 52.5075 455.39C52.5075 458.242 53.0875 465.653 53.0875 465.653C53.0875 465.653 62.7541 469.648 67.3457 470.212C71.9373 470.776 83.3116 472.5 83.3116 472.5C83.3116 472.5 85.5993 462.833 84.4554 457.098C83.3116 451.362 82.1838 445.111 82.1838 445.111C82.1838 445.111 85.0354 436.556 85.0354 431.417C85.0354 426.278 84.4554 423.442 84.4554 420.011C84.4554 416.579 96.4419 304.222 96.4419 304.222H102.145C102.145 304.222 111.812 426.294 112.408 428.565C113.004 430.837 111.264 437.7 112.972 441.696C114.342 445.234 115.488 448.856 116.403 452.538C115.108 455.818 114.336 459.281 114.116 462.801C114.272 466.279 114.851 469.725 115.839 473.064C120.001 473.524 124.188 473.718 128.374 473.644C136.945 473.644 148.351 466.217 148.351 466.217C148.351 466.217 146.627 452.538 146.063 448.495C145.5 444.451 144.356 438.828 144.356 436.508V420.542C144.356 418.254 144.92 408.556 144.92 408.556L150.059 263.67L93.5903 234.01L45.6765 262.575Z" fill="#263238" stroke="#263238" stroke-linecap="round" stroke-linejoin="round"/>
<path d="M87.8217 107.99C87.8217 107.99 66.7165 102.867 55.8739 106.863C45.0312 110.858 29.0653 126.824 25.0698 131.383C21.0743 135.943 9.10394 152.489 9.10394 152.489L25.0698 166.747L53.0222 150.781L57.0177 181.585L21.7671 250.024C21.7671 250.024 46.8517 276.268 94.2661 277.976C141.68 279.684 178.687 254.019 178.687 254.019L143.211 179.297L143.775 143.37L178.043 167.891L195.12 144.498C195.12 144.498 174.579 121.685 162.608 113.694C150.638 105.703 132.368 107.426 120.398 107.426C108.428 107.426 90.1578 108.57 90.1578 108.57L87.8217 107.99Z" fill="#FF9A00"/>
<path d="M87.8217 107.99C87.8217 107.99 66.7165 102.867 55.8739 106.863C45.0312 110.858 29.0653 126.824 25.0698 131.383C21.0743 135.943 9.10394 152.489 9.10394 152.489L25.0698 166.747L53.0222 150.781L57.0177 181.585L21.7671 250.024C21.7671 250.024 46.8517 276.268 94.2661 277.976C141.68 279.684 178.687 254.019 178.687 254.019L143.211 179.297L143.775 143.37L178.043 167.891L195.12 144.498C195.12 144.498 174.579 121.685 162.608 113.694C150.638 105.703 132.368 107.426 120.398 107.426C108.428 107.426 90.1578 108.57 90.1578 108.57L87.8217 107.99Z" stroke="#263238" stroke-linecap="round" stroke-linejoin="round"/>
<path d="M133.705 72.338C133.705 72.338 139.747 61.3503 144.693 70.1469C149.639 78.9434 140.295 87.7239 135.896 90.4788C131.498 93.2338 133.705 72.338 133.705 72.338Z" fill="white" stroke="#263238" stroke-linecap="round" stroke-linejoin="round"/>
<path d="M85.0347 106.863L87.3064 131.948C88.6752 135.399 91.0589 138.354 94.1425 140.422C97.2261 142.49 100.865 143.574 104.577 143.531C118.417 143.531 121.542 129.032 121.542 129.032L124.394 102.803C124.394 102.803 101.565 109.135 85.0347 106.863Z" fill="white" stroke="#263238" stroke-linecap="round" stroke-linejoin="round"/>
<path d="M109.974 48.1387C109.974 48.1387 79.7342 60.7857 67.1033 64.0723L68.1988 73.9644C68.1988 73.9644 61.6095 65.7317 56.6634 72.8689C51.7174 80.006 57.2112 88.2548 62.1572 92.1053C67.1033 95.9558 70.3899 92.653 70.3899 92.653C70.3899 92.653 75.8998 110.246 90.7379 117.399C105.576 124.553 122.766 120.944 130.451 103.351C134.35 94.4575 137.041 79.3938 136.187 65.2645C120.414 64.6362 109.974 48.1387 109.974 48.1387Z" fill="white" stroke="#263238" stroke-linecap="round" stroke-linejoin="round"/>
<path d="M98.375 83.0178C98.375 83.0178 102.773 89.0755 110.474 83.0178" stroke="#263238" stroke-linecap="round" stroke-linejoin="round"/>
<path d="M92.0588 77.7503C93.2689 77.7503 94.2498 76.048 94.2498 73.9482C94.2498 71.8483 93.2689 70.146 92.0588 70.146C90.8487 70.146 89.8677 71.8483 89.8677 73.9482C89.8677 76.048 90.8487 77.7503 92.0588 77.7503Z" fill="#263238"/>
<path d="M113.132 77.7503C114.342 77.7503 115.323 76.048 115.323 73.9482C115.323 71.8483 114.342 70.146 113.132 70.146C111.922 70.146 110.941 71.8483 110.941 73.9482C110.941 76.048 111.922 77.7503 113.132 77.7503Z" fill="#263238"/>
<path d="M80.8945 65.9888C80.8945 65.9888 86.9361 59.9311 94.6371 62.1383" stroke="#263238" stroke-linecap="round" stroke-linejoin="round"/>
<path d="M110.474 62.1393C110.474 62.1393 119.818 58.2888 123.669 66.5376" stroke="#263238" stroke-linecap="round" stroke-linejoin="round"/>
<path d="M95.9583 91.4292C95.9583 91.4292 97.7627 103.045 103.289 104.576C111.344 106.815 113.229 91.2681 113.229 91.2681L95.9583 91.4292Z" fill="#263238" stroke="#263238" stroke-linecap="round" stroke-linejoin="round"/>
<path d="M77.8332 83.8086C77.8332 83.8086 77.3338 84.163 76.5283 84.7913C73.9022 86.8535 67.9895 91.8479 65.2506 96.8262C61.7385 103.271 59.7407 118.383 57.1952 121.895C54.6497 125.407 13.7119 140.938 6.1559 146.947C-1.40011 152.957 -1.89952 172.515 13.1803 173.015C28.2601 173.514 33.7217 167.005 42.1799 160.996C50.6381 154.986 64.2356 137.426 64.2356 137.426C64.2356 137.426 78.2682 131.416 81.281 124.907C84.2937 118.399 85.212 105.027 86.2915 103.851C90.3997 99.3717 93.7991 93.3301 93.7991 88.8191C93.7991 84.308 87.3548 78.782 77.8332 83.8086Z" fill="white" stroke="#263238" stroke-linecap="round" stroke-linejoin="round"/>
<path d="M93.4452 88.0929C93.4452 88.0929 92.0757 85.5635 89.7719 88.0929C87.468 90.6223 78.4943 98.6778 77.8015 100.063" stroke="#263238" stroke-linecap="round" stroke-linejoin="round"/>
<path d="M90.4642 83.7112C90.4642 83.7112 87.9187 82.3417 86.5492 83.7112C85.1798 85.0806 75.9483 92.2338 74.5789 94.7632C73.9174 95.8558 73.3771 97.0173 72.9678 98.2271" stroke="#263238" stroke-linecap="round" stroke-linejoin="round"/>
<path d="M78.7192 83.7119C78.7192 83.7119 71.5821 90.1562 68.5854 96.375" stroke="#263238" stroke-linecap="round" stroke-linejoin="round"/>
<path d="M129.437 83.8086C129.437 83.8086 129.936 84.163 130.742 84.7913C133.368 86.8535 139.28 91.8479 142.019 96.8262C145.531 103.271 147.529 118.383 150.075 121.895C152.62 125.407 193.671 140.938 201.195 146.947C208.718 152.957 209.25 172.515 194.17 173.015C179.09 173.514 173.629 167.005 165.171 160.996C156.712 154.986 143.115 137.426 143.115 137.426C143.115 137.426 129.082 131.416 126.069 124.907C123.057 118.399 122.138 105.027 121.059 103.851C116.951 99.3717 113.551 93.3301 113.551 88.8191C113.551 84.308 119.915 78.782 129.437 83.8086Z" fill="white" stroke="#263238" stroke-linecap="round" stroke-linejoin="round"/>
<path d="M113.825 88.0929C113.825 88.0929 115.194 85.5635 117.498 88.0929C119.802 90.6223 128.776 98.6778 129.469 100.063" stroke="#263238" stroke-linecap="round" stroke-linejoin="round"/>
<path d="M116.821 83.7112C116.821 83.7112 119.367 82.3417 120.736 83.7112C122.106 85.0806 131.337 92.2338 132.707 94.7632C133.368 95.8558 133.908 97.0173 134.318 98.2271" stroke="#263238" stroke-linecap="round" stroke-linejoin="round"/>
<path d="M128.551 83.7119C128.551 83.7119 135.688 90.1562 138.685 96.375" stroke="#263238" stroke-linecap="round" stroke-linejoin="round"/>
</svg>
