<svg width="239" height="402" viewBox="0 0 239 402" fill="none" xmlns="http://www.w3.org/2000/svg">
<path d="M36.5917 354.985C36.5917 354.985 29.4866 363.617 26.4321 366.154C23.3776 368.69 8.66272 379.355 3.07162 386.978C-2.51949 394.601 3.58956 402.715 16.7904 400.683C29.9913 398.651 27.9593 392.569 35.5824 390.059C43.2054 387.549 47.256 384.481 48.2786 375.344C49.3012 366.207 49.2879 358.079 49.2879 358.079L36.5917 354.985Z" fill="white" stroke="#263238" stroke-linecap="round" stroke-linejoin="round"/>
<path d="M41.1599 373.777L38.6233 367.681C36.0868 361.585 29.4863 364.64 29.4863 364.64L28.2512 364.44C27.6871 365.041 27.0932 365.613 26.4716 366.154C23.4304 368.703 8.70227 379.354 3.11117 386.977C-2.47994 394.6 3.62911 402.715 16.83 400.683C30.0308 398.651 27.9989 392.569 35.6219 390.059C43.245 387.549 47.2955 384.481 48.3181 375.344C48.4642 374.016 48.5837 372.688 48.7033 371.36L41.1599 373.777Z" fill="#FFD101" stroke="#263238" stroke-linecap="round" stroke-linejoin="round"/>
<path d="M47.3353 379.952C43.8032 381.554 40.3824 383.391 37.096 385.451C29.991 390.019 27.959 394.601 14.7582 396.075C7.33436 396.938 3.2838 393.937 1.15891 391.148C-0.00977683 397.217 6.03287 402.304 16.7901 400.643C29.991 398.625 27.959 392.529 35.5821 390.019C41.7177 387.974 45.5557 385.65 47.3353 379.952Z" fill="white" stroke="#263238" stroke-linecap="round" stroke-linejoin="round"/>
<path d="M184.324 354.985C184.324 354.985 191.443 363.617 194.484 366.154C197.525 368.69 212.253 379.355 217.845 386.978C223.436 394.601 217.34 402.715 204.139 400.683C190.938 398.651 192.957 392.569 185.347 390.059C177.737 387.549 173.66 384.481 172.651 375.344C171.642 366.207 171.628 358.079 171.628 358.079L184.324 354.985Z" fill="white" stroke="#263238" stroke-linecap="round" stroke-linejoin="round"/>
<path d="M179.756 373.777L182.293 367.681C184.842 361.585 191.443 364.64 191.443 364.64L192.678 364.44C193.355 365.131 194.006 365.768 194.484 366.154C197.539 368.703 212.254 379.354 217.845 386.977C223.436 394.6 217.34 402.715 204.139 400.683C190.938 398.651 192.957 392.569 185.347 390.059C177.737 387.549 173.66 384.481 172.651 375.344C172.505 374.016 172.372 372.688 172.266 371.36L179.756 373.777Z" fill="#FFD101" stroke="#263238" stroke-linecap="round" stroke-linejoin="round"/>
<path d="M173.594 379.952C177.123 381.552 180.539 383.389 183.82 385.451C190.925 390.019 192.957 394.601 206.171 396.075C213.595 396.938 217.645 393.937 219.77 391.148C220.926 397.217 214.896 402.304 204.139 400.643C190.925 398.625 192.957 392.529 185.347 390.019C179.198 387.974 175.373 385.65 173.594 379.952Z" fill="white" stroke="#263238" stroke-linecap="round" stroke-linejoin="round"/>
<path d="M79.8066 187.836L33.0458 348.889L58.4249 353.458L118.48 239.471L132.185 241.503L168.627 365.649L194.524 363.113L174.776 210.174L128.055 188.341L79.8066 187.836Z" fill="#263238" stroke="#263238" stroke-linecap="round" stroke-linejoin="round"/>
<path d="M169.184 78.6571C169.184 78.6571 145.824 69.0022 133.632 66.9702C121.441 64.9383 113.326 65.9609 108.253 69.5068C103.18 73.0527 99.621 90.3307 102.158 96.4265C103.479 99.3611 104.498 102.423 105.199 105.563C105.199 105.563 93.0073 159.881 92.5026 162.949C91.9979 166.016 81.3337 169.044 81.3337 171.581C81.3337 174.118 78.2659 189.868 78.2659 189.868C78.2659 189.868 98.0672 199.005 130.06 206.11C162.053 213.216 175.758 212.751 175.758 212.751C175.758 212.751 176.263 202.604 176.781 195.486C177.299 188.368 174.749 183.308 174.749 181.78C174.749 180.253 193.023 130.491 193.023 130.491L209.278 155.379L204.71 206.668C204.71 206.668 189.982 211.741 188.959 215.805C187.937 219.869 185.413 225.447 185.413 227.997C185.413 230.547 185.918 234.079 189.982 233.575C194.046 233.07 194.046 225.447 194.046 225.447L196.078 223.933L194.046 244.239C194.457 245.361 195.226 246.317 196.234 246.96C197.241 247.603 198.432 247.897 199.623 247.798C204.205 247.798 203.183 243.23 203.183 243.23L210.288 242.207C210.288 242.207 218.415 240.693 220.447 238.143C222.479 235.593 225.52 218.342 225.52 214.238C225.543 211.521 225.716 208.808 226.038 206.11C226.038 206.11 239.744 156.853 238.217 151.275C236.689 145.697 216.383 101.447 212.399 96.4265C208.415 91.4064 188.494 83.2256 182.438 82.203C177.938 81.3558 173.507 80.1704 169.184 78.6571Z" fill="#B2B2B2" stroke="#263238" stroke-linecap="round" stroke-linejoin="round"/>
<path d="M203.209 243.189L208.136 225.38" stroke="#263238" stroke-linecap="round" stroke-linejoin="round"/>
<path d="M210.315 242.167L215.109 228.421" stroke="#263238" stroke-linecap="round" stroke-linejoin="round"/>
<path d="M217.725 239.311L220.328 229.298" stroke="#263238" stroke-linecap="round" stroke-linejoin="round"/>
<path d="M212.399 96.4265C208.335 91.3533 188.494 83.2256 182.438 82.203C177.956 81.3532 173.543 80.1679 169.238 78.6571C169.238 78.6571 145.877 69.0022 133.686 66.9702C121.494 64.9383 113.38 65.9609 108.306 69.5068C103.233 73.0527 99.6741 90.3307 102.211 96.4265C103.532 99.3611 104.551 102.423 105.252 105.563C105.252 105.563 93.0073 159.881 92.5026 162.949C91.9979 166.016 81.3337 169.044 81.3337 171.581C81.3337 174.118 78.2659 189.868 78.2659 189.868C78.2659 189.868 98.0672 199.005 130.06 206.11C162.053 213.216 175.758 212.751 175.758 212.751C175.758 212.751 176.263 202.604 176.781 195.486C177.299 188.368 174.749 183.308 174.749 181.78C174.749 180.253 193.023 130.491 193.023 130.491L204.139 147.517L228.88 129.455C222.466 115.351 214.697 99.3615 212.399 96.4265Z" fill="white" stroke="#263238" stroke-linecap="round" stroke-linejoin="round"/>
<path d="M204.166 147.477L228.908 129.415C226.916 125.046 224.791 120.504 222.732 116.214L222.599 115.936C222.254 115.218 221.909 114.515 221.577 113.811C221.497 113.638 221.417 113.465 221.324 113.306L220.421 111.433L220.156 110.889C219.85 110.278 219.571 109.694 219.279 109.123L219.027 108.618L218.097 106.745C218.048 106.66 218.003 106.571 217.964 106.48C217.619 105.789 217.274 105.152 216.942 104.474L216.836 104.275C216.557 103.731 216.278 103.213 216.025 102.708L215.72 102.15C215.534 101.779 215.335 101.42 215.149 101.088C214.963 100.756 214.95 100.703 214.844 100.53L214.365 99.6536L214.073 99.149L213.648 98.4053L213.396 97.9936L213.011 97.3694L212.825 97.0905C212.679 96.8597 212.519 96.638 212.347 96.4265C208.283 91.3533 188.442 83.2256 182.386 82.203C177.903 81.3532 173.49 80.1679 169.185 78.6571C169.185 78.6571 145.825 69.0022 133.633 66.9702C121.441 64.9383 113.327 65.9609 108.254 69.5068C103.181 73.0527 99.6216 90.3307 102.158 96.4265C103.479 99.3611 104.498 102.423 105.199 105.563C105.199 105.563 103.367 113.758 101.096 123.944C115.107 119.787 154.497 107.011 168.176 90.8354L171.722 91.3533C171.722 91.3533 170.885 128.14 183.262 157.344C188.03 144.064 193.05 130.451 193.05 130.451L204.166 147.477Z" fill="#FFD101" stroke="#263238" stroke-linecap="round" stroke-linejoin="round"/>
<path d="M105.199 105.564C105.199 105.564 117.152 105.471 120.711 86.5459L105.199 105.564Z" fill="#FFD101"/>
<path d="M105.199 105.564C105.199 105.564 117.152 105.471 120.711 86.5459" stroke="#263238" stroke-linecap="round" stroke-linejoin="round"/>
<path d="M201.987 109.042L193.05 130.45L210.673 110.065" fill="#FFD101"/>
<path d="M201.987 109.042L193.05 130.45L210.673 110.065" stroke="#263238" stroke-linecap="round" stroke-linejoin="round"/>
<path d="M185.268 82.8531C183.302 82.4945 181.284 82.0562 179.106 81.525C174.006 80.343 169.185 78.6299 169.185 78.6299C169.185 78.6299 161.482 75.4425 152.624 72.3481C152.266 84.4733 152.624 107.767 160.592 113.518C169.57 120.158 189.982 95.7352 196.769 87.1028C193.022 85.4615 189.182 84.0425 185.268 82.8531Z" fill="white" stroke="#263238" stroke-linecap="round" stroke-linejoin="round"/>
<path d="M158.52 69.5732C158.52 69.5732 154.456 101.061 162.584 107.662C170.712 114.262 193.567 86.3333 193.567 86.3333C193.567 86.3333 167.657 85.2576 158.52 69.5732Z" fill="#B2B2B2" stroke="#263238" stroke-linecap="round" stroke-linejoin="round"/>
<path d="M157.816 36.212C157.816 36.212 152.703 27.1414 148.732 36.212C144.761 45.2827 150.445 52.1487 154.974 52.6666C159.503 53.1846 157.816 36.212 157.816 36.212Z" fill="#B2B2B2" stroke="#263238" stroke-linecap="round" stroke-linejoin="round"/>
<path d="M213.834 50.5285C213.834 50.5285 222.758 45.2163 221.736 55.004C220.713 64.7918 212.439 67.9791 208.203 66.2394C203.966 64.4996 213.834 50.5285 213.834 50.5285Z" fill="#B2B2B2" stroke="#263238" stroke-linecap="round" stroke-linejoin="round"/>
<path d="M160.606 18.6287C160.606 18.6287 153.235 44.1539 153.806 60.0374C154.377 75.9209 164.576 87.8336 173.727 91.2334C182.877 94.6332 199.823 83.8627 206.065 73.0921C212.307 62.3216 222.001 36.7832 220.806 24.2995C219.611 11.8158 201.523 1.60302 187.91 1.04524C174.298 0.487454 162.916 5.01612 160.606 18.6287Z" fill="#B2B2B2" stroke="#263238" stroke-linecap="round" stroke-linejoin="round"/>
<path d="M165.758 42.4542C170.035 41.9627 174.333 43.1851 177.711 45.854" stroke="#263238" stroke-width="2" stroke-linecap="round" stroke-linejoin="round"/>
<path d="M165.187 33.3704C170.097 31.3792 175.59 31.3792 180.499 33.3704" stroke="#263238" stroke-linecap="round" stroke-linejoin="round"/>
<path d="M191.283 50.9804C191.283 50.9804 199.796 50.4093 203.236 56.0801" stroke="#263238" stroke-width="2" stroke-linecap="round" stroke-linejoin="round"/>
<path d="M195.825 40.1824C198.244 40.1499 200.627 40.7644 202.728 41.9622C204.83 43.16 206.573 44.8977 207.777 46.9953" stroke="#263238" stroke-linecap="round" stroke-linejoin="round"/>
<path d="M175.971 52.0957C175.971 52.0957 174.271 56.6377 179.955 58.9086C181.41 59.6067 183.066 59.7616 184.625 59.3451C186.184 58.9286 187.542 57.9683 188.455 56.6376" stroke="#263238" stroke-linecap="round" stroke-linejoin="round"/>
<path d="M190.009 64.2607C188.28 65.2219 186.354 65.7743 184.379 65.8756C182.404 65.9769 180.432 65.6244 178.614 64.8451C174.284 63.0655 173.952 59.8782 170.154 57.833C166.356 55.7878 163.142 58.7095 164.603 65.1373C166.064 71.565 173.66 75.35 180.951 76.2265C188.242 77.103 194.391 73.3048 194.683 68.63C194.975 63.9553 190.009 64.2607 190.009 64.2607Z" fill="white" stroke="#263238" stroke-linecap="round" stroke-linejoin="round"/>
<path d="M164.589 59.041C167.553 64.3234 172.319 68.3632 178.016 70.4224C183.336 72.3785 189.211 72.1687 194.377 69.8381" stroke="#263238" stroke-linecap="round" stroke-linejoin="round"/>
<path d="M220.779 24.2994C219.65 11.8157 201.496 1.60291 187.883 1.04513C174.271 0.487345 162.916 5.0293 160.645 18.6286C160.645 18.6286 158.839 24.897 157.086 33.1575C158.197 31.755 159.493 30.5087 160.937 29.4522C166.356 25.3884 167.71 26.2914 167.71 20.873C167.71 15.4545 171.336 9.1197 175.4 8.66816C179.464 8.21663 183.089 9.57125 191.668 13.6351C200.248 17.6989 209.305 16.7958 213.369 19.9699C217.433 23.1439 219.252 28.0976 214.697 33.9809C210.142 39.8641 212.891 43.4765 212.891 46.1857C212.891 48.8949 211.988 54.3134 214.219 54.7782C218.283 43.9147 221.457 31.7763 220.779 24.2994Z" fill="#263238"/>
<path d="M79.3021 72.0563C79.3021 72.0563 79.8068 90.3303 83.366 97.9534C86.9251 105.576 98.5987 108.578 107.271 102.017C115.943 95.4566 113.367 83.2252 110.325 77.1295C107.284 71.0337 105.239 67.4878 105.239 67.4878L79.3021 72.0563Z" fill="#B2B2B2" stroke="#263238" stroke-linecap="round" stroke-linejoin="round"/>
<path d="M110.79 73.0656L126.527 61.392C128.559 59.8647 130.591 54.7517 127.55 52.7596C124.509 50.7675 120.91 54.2736 120.91 54.2736C120.91 54.2736 109.728 59.8647 107.629 59.8647C105.531 59.8647 102.556 53.769 100.989 51.2324C99.4218 48.6958 96.0618 31.4311 95.0392 28.4031C94.0166 25.3752 87.4295 26.3712 87.4295 30.9397C87.4295 35.5082 90.4707 48.7224 90.4707 48.7224L83.3656 49.7317C83.3656 49.7317 77.2699 35.0434 75.7426 31.9358C74.2154 28.8281 67.6282 29.9038 68.6375 33.9677C69.6469 38.0315 75.2778 52.7596 75.2778 52.7596H71.1741C71.1741 52.7596 61.5324 41.0728 59.5005 40.5681C57.4686 40.0634 55.4367 43.1047 58.9959 48.1778C62.555 53.251 67.1103 58.8023 67.1103 58.8023C67.1103 58.8023 56.4858 57.793 54.932 57.2883C53.3782 56.7836 49.8456 60.8342 53.9094 62.8661C57.858 64.5413 61.935 65.8959 66.1009 66.9167C66.1009 66.9167 73.206 76.5716 80.3244 75.549C84.3279 75.0294 88.2499 74.0077 91.998 72.5078C91.998 72.5078 99.1031 78.152 110.79 73.0656Z" fill="#B2B2B2" stroke="#263238" stroke-linecap="round" stroke-linejoin="round"/>
<path d="M161.522 351.425L167.1 366.153L196.051 363.617V341.784L161.522 351.425Z" fill="white" stroke="#263238" stroke-linecap="round" stroke-linejoin="round"/>
<path d="M32.0233 341.784L29.9914 356.007L54.8791 364.122L66.5527 346.857L32.0233 341.784Z" fill="white" stroke="#263238" stroke-linecap="round" stroke-linejoin="round"/>
</svg>
