<svg width="59" height="55" viewBox="0 0 59 55" fill="none" xmlns="http://www.w3.org/2000/svg">
<path d="M26.4991 17.6786H27.4812C28.0233 17.6786 28.4633 17.2386 28.4633 16.6965C28.4633 16.1544 28.0233 15.7144 27.4812 15.7144H26.4991C25.957 15.7144 25.517 16.1544 25.517 16.6965C25.517 17.2386 25.957 17.6786 26.4991 17.6786Z" fill="#7E0094"/>
<path d="M11.7673 9.82163H12.7494C13.2915 9.82163 13.7315 9.38163 13.7315 8.83953C13.7315 8.29743 13.2915 7.85742 12.7494 7.85742H11.7673C11.2252 7.85742 10.7852 8.29743 10.7852 8.83953C10.7852 9.38163 11.2252 9.82163 11.7673 9.82163Z" fill="#7E0094"/>
<path d="M21.626 19.4005C21.8136 21.2882 22.6336 22.9499 22.673 23.0286C23.5638 24.8092 24.9093 27.5002 29.4448 27.5002C33.9804 27.5002 35.326 24.8092 36.2158 23.0286C36.256 22.9499 37.0761 21.2882 37.2637 19.4005C37.8716 19.0666 38.2841 18.4193 38.2841 17.6788V15.7145C38.2841 14.9887 37.8883 14.3542 37.302 14.0144V13.7503C37.302 10.5003 34.6591 7.85742 31.4092 7.85742H27.4806C24.2307 7.85742 21.5878 10.5003 21.5878 13.7503V14.0144C21.0015 14.3543 20.6057 14.9887 20.6057 15.7145V17.6788C20.6055 18.4193 21.018 19.0665 21.626 19.4005ZM22.5699 15.7145C23.112 15.7145 23.552 15.2745 23.552 14.7324V13.7503C23.552 11.5836 25.314 9.82175 27.4805 9.82175H31.409C33.5757 9.82175 35.3376 11.5837 35.3376 13.7503V14.7324C35.3376 15.2745 35.7776 15.7145 36.3197 15.7145V17.6788C35.7776 17.6788 35.3376 18.1188 35.3376 18.6609C35.3376 20.3601 34.4674 22.1338 34.4586 22.1505C33.4362 24.1953 32.5346 25.5359 29.4447 25.5359C26.3549 25.5359 25.4523 24.1953 24.4308 22.1514C24.422 22.1337 23.5519 20.36 23.5519 18.6609C23.5519 18.1188 23.1118 17.6788 22.5697 17.6788V15.7145H22.5699Z" fill="#7E0094"/>
<path d="M13.7451 22.4402L12.929 27.3332C12.8395 27.8685 13.2 28.3742 13.7353 28.4637C13.7903 28.4725 13.8443 28.4764 13.8984 28.4764C14.3698 28.4764 14.7862 28.1366 14.8658 27.6564L15.5445 23.5933C16.9618 23.6258 18.2719 23.7485 19.4515 23.9606C19.9877 24.0578 20.4955 23.7003 20.5918 23.167C20.688 22.6327 20.3324 22.122 19.7992 22.0267C18.2935 21.7566 16.6023 21.6201 14.7716 21.6201C14.2765 21.6251 13.8266 21.9481 13.7451 22.4402Z" fill="#7E0094"/>
<path d="M45.1594 9.82163H46.1415C46.6836 9.82163 47.1236 9.38163 47.1236 8.83953C47.1236 8.29743 46.6836 7.85742 46.1415 7.85742H45.1594C44.6173 7.85742 44.1772 8.29743 44.1772 8.83953C44.1772 9.38163 44.6173 9.82163 45.1594 9.82163Z" fill="#7E0094"/>
<path d="M31.4094 17.6786H32.3915C32.9336 17.6786 33.3736 17.2386 33.3736 16.6965C33.3736 16.1544 32.9336 15.7144 32.3915 15.7144H31.4094C30.8673 15.7144 30.4272 16.1544 30.4272 16.6965C30.4271 17.2386 30.8671 17.6786 31.4094 17.6786Z" fill="#7E0094"/>
<path d="M50.0707 9.82163H51.0528C51.5949 9.82163 52.0349 9.38163 52.0349 8.83953C52.0349 8.29743 51.5949 7.85742 51.0528 7.85742H50.0707C49.5286 7.85742 49.0886 8.29743 49.0886 8.83953C49.0886 9.38163 49.5286 9.82163 50.0707 9.82163Z" fill="#7E0094"/>
<path d="M40.2874 11.5431C40.475 13.4308 41.2951 15.0925 41.3343 15.1711C42.2252 16.9518 43.5706 19.6428 48.1062 19.6428C52.6417 19.6428 53.9873 16.9518 54.878 15.1711C54.9173 15.0925 55.7374 13.4308 55.925 11.5431C56.533 11.2092 56.9455 10.5619 56.9455 9.8214V7.85708C56.9455 7.13129 56.5497 6.49677 55.9634 6.15701V5.89286C55.9634 2.64293 53.3204 0 50.0705 0H46.142C42.892 0 40.2491 2.64293 40.2491 5.89286V6.15701C39.6628 6.49688 39.267 7.13129 39.267 7.85708V9.8214C39.267 10.5619 39.6795 11.2091 40.2874 11.5431ZM41.2313 7.85708C41.7734 7.85708 42.2134 7.41707 42.2134 6.87497V5.89286C42.2134 3.7262 43.9754 1.96433 46.142 1.96433H50.0705C52.2372 1.96433 53.999 3.72632 53.999 5.89286V6.87497C53.999 7.41707 54.4391 7.85708 54.9812 7.85708V9.8214C54.4391 9.8214 53.999 10.2614 53.999 10.8035C53.999 12.5027 53.1289 14.2764 53.1201 14.2931C52.0977 16.3379 51.196 17.6785 48.1062 17.6785C45.0154 17.6785 44.1138 16.3379 43.0923 14.294C43.0834 14.2763 42.2133 12.5025 42.2133 10.8035C42.2133 10.2614 41.7733 9.8214 41.2312 9.8214V7.85708H41.2313Z" fill="#7E0094"/>
<path d="M38.2812 23.1656C38.3765 23.6989 38.8813 24.0534 39.4215 23.9601C40.603 23.748 41.9181 23.6252 43.3392 23.5928L44.0179 27.6559C44.0974 28.1362 44.5138 28.476 44.9853 28.476C45.0393 28.476 45.0933 28.472 45.1484 28.4632C45.6837 28.3737 46.044 27.867 45.9547 27.3327L45.1386 22.4397C45.0551 21.9476 44.6299 21.6235 44.1112 21.6196C42.2766 21.6196 40.5824 21.7561 39.0748 22.0263C38.5416 22.1216 38.186 22.6324 38.2812 23.1656Z" fill="#7E0094"/>
<path d="M5.86006 22.4412C5.77858 21.9472 5.3228 21.624 4.82985 21.6201C3.4166 21.6201 2.07885 21.7026 0.85412 21.8637C0.315935 21.9343 -0.0622669 22.4284 0.00851659 22.9656C0.0802208 23.5038 0.575244 23.88 1.11044 23.8112C2.02878 23.6903 3.01676 23.6167 4.06078 23.5932L6.86968 40.4301C6.94921 40.9104 7.36562 41.2501 7.83705 41.2501C7.89011 41.2501 7.94512 41.2462 8.00014 41.2365C8.53441 41.1481 8.89581 40.6413 8.80649 40.106L5.86006 22.4412Z" fill="#7E0094"/>
<path d="M34.4198 29.4771C33.9159 29.4781 33.4524 29.8189 33.3827 30.3256L30.4362 51.921C30.3636 52.4583 30.7387 52.9533 31.277 53.027C31.3222 53.0329 31.3663 53.0359 31.4106 53.0359C31.8948 53.0359 32.3152 52.6793 32.383 52.1863L35.2126 31.4504C39.3985 31.5526 42.6297 32.46 44.153 33.9793C44.8307 34.6561 45.1598 35.428 45.1598 36.3395V52.0535C45.1598 52.5956 45.5998 53.0356 46.1419 53.0356C46.684 53.0356 47.124 52.5956 47.124 52.0535V36.3392C47.124 34.9004 46.5906 33.6383 45.5398 32.5894C43.5282 30.5809 39.581 29.4771 34.4198 29.4771Z" fill="#7E0094"/>
<path d="M31.4093 31.4287C31.4093 30.3454 30.5284 29.4644 29.445 29.4644C28.3617 29.4644 27.4807 30.3453 27.4807 31.4287C27.4807 32.1525 27.8784 32.7791 28.4628 33.1199V40.268C28.4628 40.8101 28.9028 41.2501 29.4449 41.2501C29.987 41.2501 30.427 40.8101 30.427 40.268V33.1199C31.0115 32.7792 31.4093 32.1525 31.4093 31.4287Z" fill="#7E0094"/>
<path d="M40.2491 41.25C39.707 41.25 39.267 41.69 39.267 42.2321V54.0178C39.267 54.5599 39.707 54.9999 40.2491 54.9999C40.7912 54.9999 41.2312 54.5599 41.2312 54.0178V42.2321C41.2312 41.69 40.7912 41.25 40.2491 41.25Z" fill="#7E0094"/>
<path d="M51.0564 23.5713C51.0564 22.488 50.1744 21.6069 49.0901 21.6069C48.0058 21.6069 47.1238 22.4879 47.1238 23.5713C47.1238 24.2951 47.5216 24.9208 48.1059 25.2615V32.4106C48.1059 32.9527 48.546 33.3927 49.0881 33.3927C49.6302 33.3927 50.0702 32.9527 50.0702 32.4106V25.2644C50.6567 24.9236 51.0564 24.296 51.0564 23.5713Z" fill="#7E0094"/>
<path d="M58.0566 21.8637C56.83 21.7026 55.4903 21.6201 54.0731 21.6201C53.5653 21.6201 53.1244 21.9472 53.0418 22.4402L50.0905 40.106C50.001 40.6413 50.3615 41.1481 50.8968 41.2365C50.9518 41.2462 51.0058 41.2501 51.0599 41.2501C51.5313 41.2501 51.9477 40.9103 52.0273 40.4301L54.8411 23.5932C55.888 23.6168 56.88 23.6904 57.7993 23.8112C58.3326 23.8799 58.8305 23.5038 58.9012 22.9656C58.973 22.4274 58.5939 21.9344 58.0566 21.8637Z" fill="#7E0094"/>
<path d="M6.85595 9.82163H7.83805C8.38015 9.82163 8.82016 9.38163 8.82016 8.83953C8.82016 8.29743 8.38015 7.85742 7.83805 7.85742H6.85595C6.31385 7.85742 5.87384 8.29743 5.87384 8.83953C5.87384 9.38163 6.31385 9.82163 6.85595 9.82163Z" fill="#7E0094"/>
<path d="M9.80289 21.6069C8.71961 21.6069 7.83856 22.4879 7.83856 23.5713C7.83856 24.2951 8.23633 24.9217 8.82067 25.2625V32.4106C8.82067 32.9527 9.26068 33.3927 9.80277 33.3927C10.3449 33.3927 10.7849 32.9527 10.7849 32.4106V25.2625C11.3692 24.9217 11.767 24.2951 11.767 23.5713C11.7672 22.4879 10.8863 21.6069 9.80289 21.6069Z" fill="#7E0094"/>
<path d="M1.98388 11.5431C2.17045 13.4308 2.99154 15.0925 3.03078 15.1711C3.92162 16.9518 5.26708 19.6428 9.80263 19.6428C14.3382 19.6428 15.6838 16.9518 16.5736 15.1711C16.6138 15.0925 17.4339 13.4308 17.6215 11.5431C18.2294 11.2092 18.6419 10.5619 18.6419 9.8214V7.85708C18.6419 7.13129 18.2461 6.49677 17.6598 6.15701V5.89286C17.6598 2.64293 15.0169 0 11.767 0H7.83853C4.58859 0 1.94567 2.64293 1.94567 5.89286V6.15701C1.35937 6.49688 0.963562 7.13129 0.963562 7.85708V9.8214C0.963447 10.5619 1.37595 11.2091 1.98388 11.5431ZM2.92777 7.85708C3.46987 7.85708 3.90988 7.41707 3.90988 6.87497V5.89286C3.90988 3.7262 5.67187 1.96433 7.83842 1.96433H11.767C13.9336 1.96433 15.6955 3.72632 15.6955 5.89286V6.87497C15.6955 7.41707 16.1355 7.85708 16.6776 7.85708V9.8214C16.1355 9.8214 15.6955 10.2614 15.6955 10.8035C15.6955 12.5027 14.8253 14.2764 14.8165 14.2931C13.7941 16.3379 12.8925 17.6785 9.80263 17.6785C6.71187 17.6785 5.81125 16.3379 4.78875 14.294C4.77988 14.2763 3.90976 12.5025 3.90976 10.8035C3.90976 10.2614 3.46976 9.8214 2.92766 9.8214V7.85708H2.92777Z" fill="#7E0094"/>
<path d="M18.6412 41.25C18.0991 41.25 17.6591 41.69 17.6591 42.2321V54.0178C17.6591 54.5599 18.0991 54.9999 18.6412 54.9999C19.1833 54.9999 19.6233 54.5599 19.6233 54.0178V42.2321C19.6234 41.69 19.1834 41.25 18.6412 41.25Z" fill="#7E0094"/>
<path d="M25.5081 30.3266C25.4413 29.8404 25.0269 29.478 24.5368 29.4771C19.3766 29.484 15.3714 30.5722 13.3512 32.5894C12.2993 33.6384 11.767 34.9004 11.767 36.3392V52.0535C11.767 52.5956 12.207 53.0356 12.7491 53.0356C13.2912 53.0356 13.7312 52.5956 13.7312 52.0535V36.3392C13.7312 35.4278 14.0603 34.6559 14.7389 33.9791C16.2612 32.4597 19.4924 31.5522 23.6783 31.451L26.5079 52.1861C26.5757 52.6792 26.996 53.0356 27.4792 53.0356C27.5244 53.0356 27.5686 53.0326 27.6137 53.0268C28.1519 52.9531 28.5271 52.4581 28.4545 51.9208L25.5081 30.3266Z" fill="#7E0094"/>
</svg>
